Veleka-Bold.ufo
<glyph name="percent" format="1">
  <advance width="894"/>
  <unicode hex="0025"/>
  <outline>
    <contour>
      <point x="865" y="193" type="curve" smooth="yes"/>
      <point x="865" y="63"/>
      <point x="807" y="-16"/>
      <point x="693" y="-16" type="curve" smooth="yes"/>
      <point x="579" y="-16"/>
      <point x="523" y="63"/>
      <point x="523" y="193" type="curve" smooth="yes"/>
      <point x="523" y="323"/>
      <point x="579" y="402"/>
      <point x="693" y="402" type="curve" smooth="yes"/>
      <point x="807" y="402"/>
      <point x="865" y="323"/>
    </contour>
    <contour>
      <point x="691" y="671" type="line"/>
      <point x="275" y="0" type="line"/>
      <point x="204" y="0" type="line"/>
      <point x="619" y="671" type="line"/>
    </contour>
    <contour>
      <point x="372" y="478" type="curve" smooth="yes"/>
      <point x="372" y="348"/>
      <point x="315" y="268"/>
      <point x="201" y="268" type="curve" smooth="yes"/>
      <point x="87" y="268"/>
      <point x="29" y="348"/>
      <point x="29" y="478" type="curve" smooth="yes"/>
      <point x="29" y="608"/>
      <point x="87" y="687"/>
      <point x="201" y="687" type="curve" smooth="yes"/>
      <point x="315" y="687"/>
      <point x="372" y="608"/>
    </contour>
    <contour>
      <point x="756" y="193" type="curve" smooth="yes"/>
      <point x="756" y="316"/>
      <point x="730" y="355"/>
      <point x="693" y="355" type="curve" smooth="yes"/>
      <point x="657" y="355"/>
      <point x="625" y="316"/>
      <point x="625" y="193" type="curve" smooth="yes"/>
      <point x="625" y="70"/>
      <point x="657" y="31"/>
      <point x="693" y="31" type="curve" smooth="yes"/>
      <point x="730" y="31"/>
      <point x="756" y="70"/>
    </contour>
    <contour>
      <point x="264" y="478" type="curve" smooth="yes"/>
      <point x="264" y="601"/>
      <point x="237" y="640"/>
      <point x="201" y="640" type="curve" smooth="yes"/>
      <point x="164" y="640"/>
      <point x="130" y="601"/>
      <point x="130" y="478" type="curve" smooth="yes"/>
      <point x="130" y="355"/>
      <point x="164" y="315"/>
      <point x="201" y="315" type="curve" smooth="yes"/>
      <point x="237" y="315"/>
      <point x="264" y="355"/>
    </contour>
  </outline>
</glyph>
<glyph name="parenleft" format="1">
  <advance width="392"/>
  <unicode hex="0028"/>
  <outline>
    <contour>
      <point x="358" y="-142" type="line"/>
      <point x="161" y="-137"/>
      <point x="59" y="27"/>
      <point x="59" y="288" type="curve" smooth="yes"/>
      <point x="59" y="549"/>
      <point x="161" y="711"/>
      <point x="358" y="717" type="curve"/>
      <point x="358" y="663" type="line"/>
      <point x="217" y="644"/>
      <point x="186" y="493"/>
      <point x="186" y="288" type="curve" smooth="yes"/>
      <point x="186" y="83"/>
      <point x="217" y="-69"/>
      <point x="358" y="-88" type="curve"/>
    </contour>
  </outline>
</glyph>
<glyph name="period" format="1">
  <advance width="317"/>
  <unicode hex="002E"/>
  <outline>
    <contour>
      <point x="230" y="71" type="curve" smooth="yes"/>
      <point x="230" y="25"/>
      <point x="194" y="-12"/>
      <point x="147" y="-12" type="curve" smooth="yes"/>
      <point x="101" y="-12"/>
      <point x="63" y="25"/>
      <point x="63" y="71" type="curve" smooth="yes"/>
      <point x="63" y="117"/>
      <point x="101" y="155"/>
      <point x="147" y="155" type="curve" smooth="yes"/>
      <point x="194" y="155"/>
      <point x="230" y="117"/>
    </contour>
  </outline>
</glyph>
<glyph name="slash" format="1">
  <advance width="500"/>
  <unicode hex="002F"/>
  <outline>
    <contour>
      <point x="501" y="671" type="line"/>
      <point x="78" y="-93" type="line"/>
      <point x="0" y="-93" type="line"/>
      <point x="422" y="671" type="line"/>
    </contour>
  </outline>
</glyph>
<glyph name="two" format="1">
  <advance width="586"/>
  <unicode hex="0032"/>
  <outline>
    <contour>
      <point x="543" y="0" type="line"/>
      <point x="43" y="0" type="line"/>
      <point x="43" y="83" type="line"/>
      <point x="123" y="150"/>
      <point x="375" y="304"/>
      <point x="375" y="480" type="curve" smooth="yes"/>
      <point x="375" y="559"/>
      <point x="327" y="620"/>
      <point x="251" y="620" type="curve" smooth="yes"/>
      <point x="224" y="620"/>
      <point x="216" y="614"/>
      <point x="194" y="607" type="curve"/>
      <point x="194" y="472" type="line"/>
      <point x="194" y="472"/>
      <point x="158" y="453"/>
      <point x="126" y="453" type="curve" smooth="yes"/>
      <point x="77" y="453"/>
      <point x="51" y="483"/>
      <point x="51" y="527" type="curve" smooth="yes"/>
      <point x="51" y="653"/>
      <point x="208" y="687"/>
      <point x="295" y="687" type="curve" smooth="yes"/>
      <point x="422" y="687"/>
      <point x="522" y="609"/>
      <point x="522" y="489" type="curve" smooth="yes"/>
      <point x="522" y="346"/>
      <point x="374" y="238"/>
      <point x="176" y="108" type="curve"/>
      <point x="460" y="108" type="line"/>
      <point x="479" y="196" type="line"/>
      <point x="543" y="196" type="line"/>
    </contour>
  </outline>
</glyph>
<glyph name="Q" format="1">
  <advance width="755"/>
  <unicode hex="0051"/>
  <outline>
    <contour>
      <point x="687" y="-161" type="line"/>
      <point x="618" y="-177"/>
      <point x="564" y="-184"/>
      <point x="510" y="-184" type="curve" smooth="yes"/>
      <point x="366" y="-184"/>
      <point x="310" y="-115"/>
      <point x="309" y="-10" type="curve"/>
      <point x="148" y="19"/>
      <point x="37" y="142"/>
      <point x="37" y="340" type="curve" smooth="yes"/>
      <point x="37" y="537"/>
      <point x="162" y="687"/>
      <point x="375" y="687" type="curve" smooth="yes"/>
      <point x="583" y="687"/>
      <point x="720" y="526"/>
      <point x="720" y="332" type="curve" smooth="yes"/>
      <point x="720" y="166"/>
      <point x="617" y="25"/>
      <point x="458" y="-8" type="curve"/>
      <point x="456" y="-80"/>
      <point x="521" y="-120"/>
      <point x="594" y="-120" type="curve" smooth="yes"/>
      <point x="614" y="-120"/>
      <point x="643" y="-118"/>
      <point x="687" y="-108" type="curve"/>
    </contour>
    <contour>
      <point x="559" y="328" type="curve" smooth="yes"/>
      <point x="559" y="485"/>
      <point x="500" y="620"/>
      <point x="384" y="620" type="curve" smooth="yes"/>
      <point x="245" y="620"/>
      <point x="197" y="471"/>
      <point x="197" y="337" type="curve" smooth="yes"/>
      <point x="197" y="195"/>
      <point x="251" y="47"/>
      <point x="374" y="47" type="curve" smooth="yes"/>
      <point x="508" y="47"/>
      <point x="559" y="199"/>
    </contour>
  </outline>
</glyph>
<glyph name="asciicircum" format="1">
  <advance width="339"/>
  <unicode hex="005E"/>
  <outline>
    <contour>
      <point x="340" y="551" type="line"/>
      <point x="257" y="551" type="line"/>
      <point x="170" y="646" type="line"/>
      <point x="83" y="551" type="line"/>
      <point x="0" y="551" type="line"/>
      <point x="111" y="722" type="line"/>
      <point x="229" y="722" type="line"/>
    </contour>
  </outline>
</glyph>
<glyph name="grave" format="1">
  <advance width="374"/>
  <unicode hex="0060"/>
  <outline>
    <contour>
      <point x="257" y="551" type="line"/>
      <point x="187" y="551" type="line"/>
      <point x="25" y="639" type="line" smooth="yes"/>
      <point x="11" y="647"/>
      <point x="0" y="668"/>
      <point x="0" y="681" type="curve" smooth="yes"/>
      <point x="0" y="705"/>
      <point x="14" y="734"/>
      <point x="57" y="734" type="curve" smooth="yes"/>
      <point x="84" y="734"/>
      <point x="97" y="727"/>
      <point x="120" y="702" type="curve" smooth="yes"/>
    </contour>
  </outline>
</glyph>
<glyph name="h" format="1">
  <advance width="624"/>
  <unicode hex="0068"/>
  <outline>
    <contour>
      <point x="598" y="0" type="line"/>
      <point x="347" y="0" type="line"/>
      <point x="347" y="47" type="line"/>
      <point x="379" y="50" type="line" smooth="yes"/>
      <point x="391" y="51"/>
      <point x="401" y="61"/>
      <point x="401" y="73" type="curve" smooth="yes"/>
      <point x="401" y="309" type="line" smooth="yes"/>
      <point x="401" y="342"/>
      <point x="391" y="408"/>
      <point x="317" y="408" type="curve" smooth="yes"/>
      <point x="277" y="408"/>
      <point x="223" y="395"/>
      <point x="223" y="395" type="curve"/>
      <point x="223" y="73" type="line" smooth="yes"/>
      <point x="223" y="61"/>
      <point x="233" y="51"/>
      <point x="245" y="50" type="curve" smooth="yes"/>
      <point x="280" y="47" type="line"/>
      <point x="280" y="0" type="line"/>
      <point x="27" y="0" type="line"/>
      <point x="27" y="47" type="line"/>
      <point x="68" y="50" type="line" smooth="yes"/>
      <point x="80" y="51"/>
      <point x="90" y="61"/>
      <point x="90" y="73" type="curve" smooth="yes"/>
      <point x="90" y="649" type="line"/>
      <point x="19" y="649" type="line"/>
      <point x="19" y="690" type="line"/>
      <point x="171" y="740" type="line"/>
      <point x="223" y="740" type="line"/>
      <point x="223" y="438" type="line"/>
      <point x="223" y="438"/>
      <point x="320" y="500"/>
      <point x="398" y="500" type="curve" smooth="yes"/>
      <point x="516" y="500"/>
      <point x="534" y="402"/>
      <point x="534" y="343" type="curve" smooth="yes"/>
      <point x="534" y="73" type="line" smooth="yes"/>
      <point x="534" y="61"/>
      <point x="544" y="51"/>
      <point x="556" y="50" type="curve" smooth="yes"/>
      <point x="598" y="47" type="line"/>
    </contour>
  </outline>
</glyph>
<glyph name="m" format="1">
  <advance width="905"/>
  <unicode hex="006D"/>
  <outline>
    <contour>
      <point x="877" y="0" type="line"/>
      <point x="632" y="0" type="line"/>
      <point x="632" y="47" type="line"/>
      <point x="663" y="50" type="line" smooth="yes"/>
      <point x="675" y="51"/>
      <point x="686" y="61"/>
      <point x="686" y="73" type="curve" smooth="yes"/>
      <point x="686" y="314" type="line" smooth="yes"/>
      <point x="686" y="363"/>
      <point x="665" y="408"/>
      <point x="599" y="408" type="curve" smooth="yes"/>
      <point x="556" y="408"/>
      <point x="519" y="392"/>
      <point x="519" y="392" type="curve"/>
      <point x="519" y="73" type="line" smooth="yes"/>
      <point x="519" y="61"/>
      <point x="529" y="51"/>
      <point x="541" y="50" type="curve" smooth="yes"/>
      <point x="572" y="47" type="line"/>
      <point x="572" y="0" type="line"/>
      <point x="333" y="0" type="line"/>
      <point x="333" y="47" type="line"/>
      <point x="364" y="50" type="line" smooth="yes"/>
      <point x="376" y="51"/>
      <point x="386" y="61"/>
      <point x="386" y="73" type="curve" smooth="yes"/>
      <point x="386" y="314" type="line" smooth="yes"/>
      <point x="386" y="363"/>
      <point x="362" y="408"/>
      <point x="300" y="408" type="curve" smooth="yes"/>
      <point x="245" y="408"/>
      <point x="219" y="392"/>
      <point x="219" y="392" type="curve"/>
      <point x="219" y="73" type="line" smooth="yes"/>
      <point x="219" y="61"/>
      <point x="230" y="51"/>
      <point x="242" y="50" type="curve" smooth="yes"/>
      <point x="273" y="47" type="line"/>
      <point x="273" y="0" type="line"/>
      <point x="27" y="0" type="line"/>
      <point x="27" y="47" type="line"/>
      <point x="64" y="50" type="line" smooth="yes"/>
      <point x="76" y="51"/>
      <point x="86" y="61"/>
      <point x="86" y="73" type="curve" smooth="yes"/>
      <point x="86" y="396" type="line"/>
      <point x="22" y="396" type="line"/>
      <point x="22" y="437" type="line"/>
      <point x="169" y="488" type="line"/>
      <point x="219" y="488" type="line"/>
      <point x="219" y="439" type="line"/>
      <point x="219" y="439"/>
      <point x="305" y="500"/>
      <point x="383" y="500" type="curve" smooth="yes"/>
      <point x="459" y="500"/>
      <point x="485" y="454"/>
      <point x="503" y="432" type="curve"/>
      <point x="503" y="432"/>
      <point x="603" y="500"/>
      <point x="681" y="500" type="curve" smooth="yes"/>
      <point x="802" y="500"/>
      <point x="819" y="394"/>
      <point x="819" y="347" type="curve" smooth="yes"/>
      <point x="819" y="73" type="line" smooth="yes"/>
      <point x="819" y="61"/>
      <point x="829" y="51"/>
      <point x="841" y="50" type="curve" smooth="yes"/>
      <point x="877" y="47" type="line"/>
    </contour>
  </outline>
</glyph>
<glyph name="n" format="1">
  <advance width="625"/>
  <unicode hex="006E"/>
  <outline>
    <contour>
      <point x="588" y="0" type="line"/>
      <point x="342" y="0" type="line"/>
      <point x="342" y="47" type="line"/>
      <point x="379" y="50" type="line" smooth="yes"/>
      <point x="391" y="51"/>
      <point x="401" y="61"/>
      <point x="401" y="73" type="curve" smooth="yes"/>
      <point x="401" y="308" type="line" smooth="yes"/>
      <point x="401" y="359"/>
      <point x="379" y="408"/>
      <point x="319" y="408" type="curve" smooth="yes"/>
      <point x="264" y="408"/>
      <point x="223" y="395"/>
      <point x="223" y="395" type="curve"/>
      <point x="223" y="73" type="line" smooth="yes"/>
      <point x="223" y="61"/>
      <point x="234" y="51"/>
      <point x="246" y="50" type="curve" smooth="yes"/>
      <point x="276" y="47" type="line"/>
      <point x="276" y="0" type="line"/>
      <point x="32" y="0" type="line"/>
      <point x="32" y="47" type="line"/>
      <point x="68" y="50" type="line" smooth="yes"/>
      <point x="80" y="51"/>
      <point x="90" y="61"/>
      <point x="90" y="73" type="curve" smooth="yes"/>
      <point x="90" y="396" type="line"/>
      <point x="21" y="396" type="line"/>
      <point x="21" y="437" type="line"/>
      <point x="171" y="488" type="line"/>
      <point x="223" y="488" type="line"/>
      <point x="223" y="439" type="line"/>
      <point x="223" y="439"/>
      <point x="312" y="500"/>
      <point x="398" y="500" type="curve" smooth="yes"/>
      <point x="513" y="500"/>
      <point x="534" y="413"/>
      <point x="534" y="326" type="curve" smooth="yes"/>
      <point x="534" y="73" type="line" smooth="yes"/>
      <point x="534" y="61"/>
      <point x="545" y="51"/>
      <point x="557" y="50" type="curve" smooth="yes"/>
      <point x="588" y="47" type="line"/>
    </contour>
  </outline>
</glyph>
<glyph name="o" format="1">
  <advance width="582"/>
  <unicode hex="006F"/>
  <outline>
    <contour>
      <point x="552" y="241" type="curve" smooth="yes"/>
      <point x="552" y="92"/>
      <point x="453" y="-12"/>
      <point x="287" y="-12" type="curve" smooth="yes"/>
      <point x="135" y="-12"/>
      <point x="30" y="84"/>
      <point x="30" y="242" type="curve" smooth="yes"/>
      <point x="30" y="406"/>
      <point x="139" y="500"/>
      <point x="294" y="500" type="curve" smooth="yes"/>
      <point x="459" y="500"/>
      <point x="552" y="393"/>
    </contour>
    <contour>
      <point x="402" y="242" type="curve" smooth="yes"/>
      <point x="402" y="327"/>
      <point x="382" y="443"/>
      <point x="290" y="443" type="curve" smooth="yes"/>
      <point x="200" y="443"/>
      <point x="180" y="332"/>
      <point x="180" y="246" type="curve" smooth="yes"/>
      <point x="180" y="160"/>
      <point x="198" y="45"/>
      <point x="291" y="45" type="curve" smooth="yes"/>
      <point x="382" y="45"/>
      <point x="402" y="153"/>
    </contour>
  </outline>
</glyph>
<glyph name="braceleft" format="1">
  <advance width="495"/>
  <unicode hex="007B"/>
  <outline>
    <contour>
      <point x="422" y="-122" type="line"/>
      <point x="399" y="-122"/>
      <point x="274" y="-126"/>
      <point x="224" y="-81" type="curve" smooth="yes"/>
      <point x="133" y="0"/>
      <point x="209" y="175"/>
      <point x="151" y="234" type="curve" smooth="yes"/>
      <point x="112" y="273"/>
      <point x="41" y="262"/>
      <point x="41" y="262" type="curve"/>
      <point x="41" y="322" type="line"/>
      <point x="41" y="322"/>
      <point x="112" y="310"/>
      <point x="151" y="349" type="curve" smooth="yes"/>
      <point x="209" y="408"/>
      <point x="133" y="584"/>
      <point x="224" y="665" type="curve" smooth="yes"/>
      <point x="274" y="710"/>
      <point x="399" y="706"/>
      <point x="422" y="706" type="curve"/>
      <point x="422" y="651" type="line"/>
      <point x="422" y="651"/>
      <point x="358" y="654"/>
      <point x="327" y="624" type="curve" smooth="yes"/>
      <point x="267" y="565"/>
      <point x="338" y="413"/>
      <point x="256" y="336" type="curve" smooth="yes"/>
      <point x="214" y="295"/>
      <point x="161" y="292"/>
      <point x="150" y="292" type="curve"/>
      <point x="161" y="292"/>
      <point x="214" y="287"/>
      <point x="256" y="247" type="curve" smooth="yes"/>
      <point x="338" y="169"/>
      <point x="267" y="19"/>
      <point x="327" y="-40" type="curve" smooth="yes"/>
      <point x="358" y="-70"/>
      <point x="422" y="-67"/>
      <point x="422" y="-67" type="curve"/>
    </contour>
  </outline>
</glyph>
<glyph name="braceright" format="1">
  <advance width="495"/>
  <unicode hex="007D"/>
  <outline>
    <contour>
      <point x="454" y="262" type="line"/>
      <point x="454" y="262"/>
      <point x="383" y="273"/>
      <point x="344" y="234" type="curve" smooth="yes"/>
      <point x="285" y="174"/>
      <point x="361" y="0"/>
      <point x="271" y="-81" type="curve" smooth="yes"/>
      <point x="221" y="-126"/>
      <point x="96" y="-122"/>
      <point x="73" y="-122" type="curve"/>
      <point x="73" y="-67" type="line"/>
      <point x="73" y="-67"/>
      <point x="137" y="-70"/>
      <point x="168" y="-40" type="curve" smooth="yes"/>
      <point x="228" y="18"/>
      <point x="157" y="169"/>
      <point x="239" y="247" type="curve" smooth="yes"/>
      <point x="281" y="286"/>
      <point x="332" y="291"/>
      <point x="344" y="292" type="curve"/>
      <point x="335" y="292"/>
      <point x="282" y="295"/>
      <point x="239" y="336" type="curve" smooth="yes"/>
      <point x="157" y="414"/>
      <point x="228" y="566"/>
      <point x="168" y="624" type="curve" smooth="yes"/>
      <point x="137" y="654"/>
      <point x="73" y="651"/>
      <point x="73" y="651" type="curve"/>
      <point x="73" y="706" type="line"/>
      <point x="96" y="706"/>
      <point x="221" y="710"/>
      <point x="271" y="665" type="curve" smooth="yes"/>
      <point x="361" y="584"/>
      <point x="285" y="408"/>
      <point x="344" y="349" type="curve" smooth="yes"/>
      <point x="383" y="310"/>
      <point x="454" y="322"/>
      <point x="454" y="322" type="curve"/>
    </contour>
  </outline>
</glyph>
<glyph name="yen" format="1">
  <advance width="634"/>
  <unicode hex="00A5"/>
  <outline>
    <contour>
      <point x="628" y="620" type="line"/>
      <point x="571" y="609" type="line"/>
      <point x="472" y="431" type="line"/>
      <point x="602" y="431" type="line"/>
      <point x="602" y="379" type="line"/>
      <point x="441" y="379" type="line"/>
      <point x="389" y="285" type="line"/>
      <point x="602" y="285" type="line"/>
      <point x="602" y="234" type="line"/>
      <point x="392" y="234" type="line"/>
      <point x="392" y="79" type="line" smooth="yes"/>
      <point x="392" y="72"/>
      <point x="400" y="59"/>
      <point x="418" y="57" type="curve" smooth="yes"/>
      <point x="477" y="52" type="line"/>
      <point x="477" y="0" type="line"/>
      <point x="167" y="0" type="line"/>
      <point x="167" y="52" type="line"/>
      <point x="227" y="57" type="line" smooth="yes"/>
      <point x="245" y="59"/>
      <point x="252" y="72"/>
      <point x="252" y="79" type="curve" smooth="yes"/>
      <point x="252" y="234" type="line"/>
      <point x="38" y="234" type="line"/>
      <point x="38" y="285" type="line"/>
      <point x="240" y="285" type="line"/>
      <point x="192" y="379" type="line"/>
      <point x="38" y="379" type="line"/>
      <point x="38" y="431" type="line"/>
      <point x="160" y="431" type="line"/>
      <point x="68" y="610" type="line"/>
      <point x="7" y="620" type="line"/>
      <point x="7" y="671" type="line"/>
      <point x="282" y="671" type="line"/>
      <point x="282" y="620" type="line"/>
      <point x="236" y="616" type="line" smooth="yes"/>
      <point x="226" y="615"/>
      <point x="218" y="604"/>
      <point x="223" y="594" type="curve" smooth="yes"/>
      <point x="348" y="354" type="line"/>
      <point x="476" y="589" type="line" smooth="yes"/>
      <point x="480" y="595"/>
      <point x="481" y="607"/>
      <point x="463" y="611" type="curve" smooth="yes"/>
      <point x="414" y="621" type="line"/>
      <point x="414" y="671" type="line"/>
      <point x="628" y="671" type="line"/>
    </contour>
  </outline>
</glyph>
<glyph name="section" format="1">
  <advance width="500"/>
  <unicode hex="00A7"/>
  <outline>
    <contour>
      <point x="458" y="306" type="curve" smooth="yes"/>
      <point x="458" y="186"/>
      <point x="344" y="147"/>
      <point x="337" y="143" type="curve"/>
      <point x="359" y="129"/>
      <point x="438" y="95"/>
      <point x="438" y="13" type="curve" smooth="yes"/>
      <point x="438" y="-103"/>
      <point x="328" y="-143"/>
      <point x="230" y="-143" type="curve" smooth="yes"/>
      <point x="135" y="-143"/>
      <point x="65" y="-110"/>
      <point x="65" y="-110" type="curve"/>
      <point x="65" y="29" type="line"/>
      <point x="126" y="29" type="line"/>
      <point x="139" y="-64" type="line"/>
      <point x="165" y="-80"/>
      <point x="210" y="-87"/>
      <point x="232" y="-87" type="curve" smooth="yes"/>
      <point x="282" y="-87"/>
      <point x="326" y="-56"/>
      <point x="326" y="-10" type="curve" smooth="yes"/>
      <point x="326" y="107"/>
      <point x="42" y="95"/>
      <point x="42" y="286" type="curve" smooth="yes"/>
      <point x="42" y="395"/>
      <point x="139" y="434"/>
      <point x="159" y="443" type="curve"/>
      <point x="133" y="459"/>
      <point x="62" y="491"/>
      <point x="62" y="575" type="curve" smooth="yes"/>
      <point x="62" y="674"/>
      <point x="158" y="720"/>
      <point x="266" y="720" type="curve" smooth="yes"/>
      <point x="361" y="720"/>
      <point x="427" y="695"/>
      <point x="427" y="695" type="curve"/>
      <point x="427" y="557" type="line"/>
      <point x="372" y="557" type="line"/>
      <point x="361" y="639" type="line"/>
      <point x="361" y="639"/>
      <point x="326" y="666"/>
      <point x="269" y="666" type="curve" smooth="yes"/>
      <point x="224" y="666"/>
      <point x="178" y="639"/>
      <point x="178" y="589" type="curve" smooth="yes"/>
      <point x="178" y="484"/>
      <point x="458" y="485"/>
    </contour>
    <contour>
      <point x="366" y="272" type="curve" smooth="yes"/>
      <point x="366" y="363"/>
      <point x="236" y="398"/>
      <point x="214" y="413" type="curve" smooth="yes"/>
      <point x="211" y="411"/>
      <point x="131" y="391"/>
      <point x="131" y="318" type="curve" smooth="yes"/>
      <point x="131" y="235"/>
      <point x="227" y="202"/>
      <point x="285" y="173" type="curve"/>
      <point x="275" y="168"/>
      <point x="366" y="208"/>
    </contour>
  </outline>
</glyph>
<glyph name="ordfeminine" format="1">
  <advance width="358"/>
  <unicode hex="00AA"/>
  <outline>
    <contour>
      <point x="349" y="383" type="line"/>
      <point x="227" y="383" type="line"/>
      <point x="219" y="413" type="line"/>
      <point x="219" y="413"/>
      <point x="163" y="376"/>
      <point x="105" y="376" type="curve" smooth="yes"/>
      <point x="59" y="376"/>
      <point x="21" y="405"/>
      <point x="21" y="453" type="curve" smooth="yes"/>
      <point x="21" y="507"/>
      <point x="41" y="534"/>
      <point x="220" y="570" type="curve"/>
      <point x="220" y="593" type="line" smooth="yes"/>
      <point x="221" y="616"/>
      <point x="212" y="649"/>
      <point x="159" y="649" type="curve" smooth="yes"/>
      <point x="142" y="649"/>
      <point x="131" y="647"/>
      <point x="131" y="647" type="curve"/>
      <point x="131" y="590" type="line"/>
      <point x="64" y="590" type="line"/>
      <point x="64" y="590"/>
      <point x="35" y="587"/>
      <point x="35" y="612" type="curve" smooth="yes"/>
      <point x="35" y="656"/>
      <point x="111" y="683"/>
      <point x="180" y="683" type="curve" smooth="yes"/>
      <point x="255" y="683"/>
      <point x="306" y="667"/>
      <point x="306" y="581" type="curve" smooth="yes"/>
      <point x="306" y="427" type="line" smooth="yes"/>
      <point x="306" y="419"/>
      <point x="312" y="413"/>
      <point x="320" y="413" type="curve" smooth="yes"/>
      <point x="349" y="411" type="line"/>
    </contour>
    <contour>
      <point x="347" y="301" type="line"/>
      <point x="48" y="301" type="line"/>
      <point x="48" y="336" type="line"/>
      <point x="347" y="336" type="line"/>
    </contour>
    <contour>
      <point x="219" y="438" type="curve"/>
      <point x="219" y="538" type="line"/>
      <point x="135" y="522"/>
      <point x="113" y="506"/>
      <point x="113" y="470" type="curve" smooth="yes"/>
      <point x="113" y="445"/>
      <point x="132" y="426"/>
      <point x="159" y="426" type="curve" smooth="yes"/>
      <point x="187" y="426"/>
      <point x="219" y="438"/>
    </contour>
  </outline>
</glyph>
<glyph name="guillemotleft" format="1">
  <advance width="449"/>
  <unicode hex="00AB"/>
  <outline>
    <contour>
      <point x="186" y="0" type="line"/>
      <point x="24" y="215" type="line"/>
      <point x="24" y="266" type="line"/>
      <point x="186" y="482" type="line"/>
      <point x="259" y="482" type="line"/>
      <point x="134" y="241" type="line"/>
      <point x="259" y="0" type="line"/>
    </contour>
    <contour>
      <point x="371" y="0" type="line"/>
      <point x="210" y="215" type="line"/>
      <point x="210" y="266" type="line"/>
      <point x="371" y="482" type="line"/>
      <point x="444" y="482" type="line"/>
      <point x="320" y="241" type="line"/>
      <point x="444" y="0" type="line"/>
    </contour>
  </outline>
</glyph>
<glyph name="two.superior" format="1">
  <advance width="420"/>
  <unicode hex="00B2"/>
  <outline>
    <contour>
      <point x="392" y="439" type="line"/>
      <point x="29" y="439" type="line"/>
      <point x="29" y="501" type="line"/>
      <point x="86" y="544"/>
      <point x="266" y="644"/>
      <point x="266" y="757" type="curve" smooth="yes"/>
      <point x="266" y="808"/>
      <point x="232" y="847"/>
      <point x="180" y="847" type="curve" smooth="yes"/>
      <point x="161" y="847"/>
      <point x="156" y="843"/>
      <point x="141" y="839" type="curve"/>
      <point x="141" y="751" type="line"/>
      <point x="141" y="751"/>
      <point x="114" y="737"/>
      <point x="90" y="737" type="curve" smooth="yes"/>
      <point x="53" y="737"/>
      <point x="34" y="757"/>
      <point x="34" y="787" type="curve" smooth="yes"/>
      <point x="34" y="873"/>
      <point x="148" y="897"/>
      <point x="211" y="897" type="curve" smooth="yes"/>
      <point x="303" y="897"/>
      <point x="376" y="846"/>
      <point x="376" y="768" type="curve" smooth="yes"/>
      <point x="376" y="675"/>
      <point x="269" y="605"/>
      <point x="127" y="520" type="curve"/>
      <point x="329" y="520" type="line"/>
      <point x="344" y="572" type="line"/>
      <point x="392" y="572" type="line"/>
    </contour>
  </outline>
</glyph>
<glyph name="mu" format="1">
  <advance width="582"/>
  <unicode hex="00B5"/>
  <outline>
    <contour>
      <point x="587" y="118" type="line"/>
      <point x="581" y="31"/>
      <point x="544" y="-12"/>
      <point x="465" y="-12" type="curve" smooth="yes"/>
      <point x="430" y="-12"/>
      <point x="391" y="18"/>
      <point x="373" y="68" type="curve"/>
      <point x="333" y="8"/>
      <point x="296" y="-12"/>
      <point x="236" y="-12" type="curve" smooth="yes"/>
      <point x="217" y="-12"/>
      <point x="174" y="14"/>
      <point x="159" y="27" type="curve"/>
      <point x="159" y="5" type="line" smooth="yes"/>
      <point x="159" y="-68"/>
      <point x="192" y="-129"/>
      <point x="192" y="-160" type="curve" smooth="yes"/>
      <point x="192" y="-196"/>
      <point x="151" y="-222"/>
      <point x="123" y="-222" type="curve" smooth="yes"/>
      <point x="98" y="-222"/>
      <point x="58" y="-197"/>
      <point x="58" y="-162" type="curve" smooth="yes"/>
      <point x="58" y="-99"/>
      <point x="90" y="-126"/>
      <point x="90" y="66" type="curve" smooth="yes"/>
      <point x="90" y="488" type="line"/>
      <point x="216" y="488" type="line"/>
      <point x="216" y="163" type="line" smooth="yes"/>
      <point x="216" y="133"/>
      <point x="220" y="113"/>
      <point x="224" y="103" type="curve" smooth="yes"/>
      <point x="233" y="82"/>
      <point x="252" y="61"/>
      <point x="271" y="61" type="curve" smooth="yes"/>
      <point x="307" y="61"/>
      <point x="328" y="84"/>
      <point x="364" y="125" type="curve"/>
      <point x="364" y="488" type="line"/>
      <point x="492" y="488" type="line"/>
      <point x="492" y="108" type="line" smooth="yes"/>
      <point x="492" y="87"/>
      <point x="499" y="55"/>
      <point x="514" y="55" type="curve" smooth="yes"/>
      <point x="533" y="55"/>
      <point x="545" y="68"/>
      <point x="555" y="118" type="curve"/>
    </contour>
  </outline>
</glyph>
<glyph name="paragraph" format="1">
  <advance width="520"/>
  <unicode hex="00B6"/>
  <outline>
    <contour>
      <point x="431" y="605" type="line"/>
      <point x="431" y="-79" type="line"/>
      <point x="358" y="-79" type="line"/>
      <point x="358" y="608" type="line"/>
      <point x="296" y="608" type="line"/>
      <point x="296" y="269" type="line"/>
      <point x="138" y="269"/>
      <point x="27" y="309"/>
      <point x="27" y="469" type="curve" smooth="yes"/>
      <point x="27" y="621"/>
      <point x="121" y="671"/>
      <point x="273" y="671" type="curve" smooth="yes"/>
      <point x="493" y="671" type="line"/>
      <point x="493" y="614" type="line"/>
    </contour>
  </outline>
</glyph>
<glyph name="onequarter" format="1">
  <advance width="907"/>
  <unicode hex="00BC"/>
  <outline>
    <contour>
      <point x="864" y="107" type="line"/>
      <point x="791" y="107" type="line"/>
      <point x="791" y="-18" type="line"/>
      <point x="708" y="-18" type="line"/>
      <point x="708" y="107" type="line"/>
      <point x="507" y="107" type="line"/>
      <point x="507" y="158" type="line"/>
      <point x="721" y="406" type="line"/>
      <point x="791" y="406" type="line"/>
      <point x="791" y="156" type="line"/>
      <point x="864" y="156" type="line"/>
    </contour>
    <contour>
      <point x="719" y="695" type="line"/>
      <point x="277" y="0" type="line"/>
      <point x="204" y="0" type="line"/>
      <point x="646" y="695" type="line"/>
    </contour>
    <contour>
      <point x="297" y="295" type="line"/>
      <point x="70" y="295" type="line"/>
      <point x="70" y="326" type="line"/>
      <point x="126" y="328" type="line" smooth="yes"/>
      <point x="134" y="328"/>
      <point x="140" y="333"/>
      <point x="140" y="341" type="curve" smooth="yes"/>
      <point x="140" y="639" type="line"/>
      <point x="43" y="627" type="line"/>
      <point x="43" y="658" type="line"/>
      <point x="184" y="703" type="line"/>
      <point x="232" y="703" type="line"/>
      <point x="232" y="341" type="line" smooth="yes"/>
      <point x="232" y="333"/>
      <point x="238" y="328"/>
      <point x="246" y="328" type="curve" smooth="yes"/>
      <point x="297" y="326" type="line"/>
    </contour>
    <contour>
      <point x="708" y="156" type="line"/>
      <point x="708" y="319" type="line"/>
      <point x="570" y="156" type="line"/>
    </contour>
  </outline>
</glyph>
<glyph name="onehalf" format="1">
  <advance width="907"/>
  <unicode hex="00BD"/>
  <outline>
    <contour>
      <point x="862" y="0" type="line"/>
      <point x="544" y="0" type="line"/>
      <point x="544" y="50" type="line"/>
      <point x="596" y="90"/>
      <point x="752" y="182"/>
      <point x="752" y="288" type="curve" smooth="yes"/>
      <point x="752" y="335"/>
      <point x="724" y="370"/>
      <point x="675" y="370" type="curve" smooth="yes"/>
      <point x="657" y="370"/>
      <point x="656" y="368"/>
      <point x="641" y="364" type="curve"/>
      <point x="641" y="283" type="line"/>
      <point x="641" y="283"/>
      <point x="618" y="272"/>
      <point x="597" y="272" type="curve" smooth="yes"/>
      <point x="565" y="272"/>
      <point x="548" y="290"/>
      <point x="548" y="316" type="curve" smooth="yes"/>
      <point x="548" y="392"/>
      <point x="647" y="410"/>
      <point x="704" y="410" type="curve" smooth="yes"/>
      <point x="786" y="410"/>
      <point x="849" y="366"/>
      <point x="849" y="294" type="curve" smooth="yes"/>
      <point x="849" y="208"/>
      <point x="758" y="142"/>
      <point x="629" y="64" type="curve"/>
      <point x="808" y="64" type="line"/>
      <point x="819" y="118" type="line"/>
      <point x="862" y="118" type="line"/>
    </contour>
    <contour>
      <point x="697" y="695" type="line"/>
      <point x="255" y="0" type="line"/>
      <point x="182" y="0" type="line"/>
      <point x="624" y="695" type="line"/>
    </contour>
    <contour>
      <point x="300" y="295" type="line"/>
      <point x="73" y="295" type="line"/>
      <point x="73" y="326" type="line"/>
      <point x="129" y="328" type="line" smooth="yes"/>
      <point x="137" y="328"/>
      <point x="143" y="333"/>
      <point x="143" y="341" type="curve" smooth="yes"/>
      <point x="143" y="639" type="line"/>
      <point x="46" y="627" type="line"/>
      <point x="46" y="658" type="line"/>
      <point x="187" y="703" type="line"/>
      <point x="234" y="703" type="line"/>
      <point x="234" y="341" type="line" smooth="yes"/>
      <point x="234" y="333"/>
      <point x="241" y="328"/>
      <point x="249" y="328" type="curve" smooth="yes"/>
      <point x="300" y="326" type="line"/>
    </contour>
  </outline>
</glyph>
<glyph name="threequarters" format="1">
  <advance width="907"/>
  <unicode hex="00BE"/>
  <outline>
    <contour>
      <point x="872" y="107" type="line"/>
      <point x="799" y="107" type="line"/>
      <point x="799" y="-18" type="line"/>
      <point x="716" y="-18" type="line"/>
      <point x="716" y="107" type="line"/>
      <point x="516" y="107" type="line"/>
      <point x="516" y="158" type="line"/>
      <point x="729" y="406" type="line"/>
      <point x="799" y="406" type="line"/>
      <point x="799" y="156" type="line"/>
      <point x="872" y="156" type="line"/>
    </contour>
    <contour>
      <point x="727" y="695" type="line"/>
      <point x="285" y="0" type="line"/>
      <point x="212" y="0" type="line"/>
      <point x="654" y="695" type="line"/>
    </contour>
    <contour>
      <point x="353" y="411" type="curve" smooth="yes"/>
      <point x="353" y="333"/>
      <point x="266" y="289"/>
      <point x="170" y="289" type="curve" smooth="yes"/>
      <point x="85" y="289"/>
      <point x="36" y="327"/>
      <point x="36" y="366" type="curve" smooth="yes"/>
      <point x="36" y="400"/>
      <point x="63" y="408"/>
      <point x="83" y="408" type="curve" smooth="yes"/>
      <point x="95" y="408"/>
      <point x="104" y="405"/>
      <point x="111" y="402" type="curve"/>
      <point x="132" y="334" type="line"/>
      <point x="146" y="330"/>
      <point x="158" y="326"/>
      <point x="176" y="326" type="curve" smooth="yes"/>
      <point x="221" y="326"/>
      <point x="258" y="360"/>
      <point x="258" y="407" type="curve" smooth="yes"/>
      <point x="258" y="445"/>
      <point x="230" y="480"/>
      <point x="170" y="480" type="curve" smooth="yes"/>
      <point x="150" y="480"/>
      <point x="128" y="477"/>
      <point x="128" y="477" type="curve"/>
      <point x="128" y="522" type="line"/>
      <point x="135" y="521"/>
      <point x="140" y="522"/>
      <point x="146" y="522" type="curve" smooth="yes"/>
      <point x="194" y="522"/>
      <point x="242" y="539"/>
      <point x="242" y="596" type="curve" smooth="yes"/>
      <point x="242" y="634"/>
      <point x="210" y="665"/>
      <point x="162" y="665" type="curve" smooth="yes"/>
      <point x="150" y="665"/>
      <point x="132" y="660"/>
      <point x="132" y="660" type="curve"/>
      <point x="132" y="586" type="line"/>
      <point x="120" y="579"/>
      <point x="108" y="578"/>
      <point x="97" y="578" type="curve" smooth="yes"/>
      <point x="70" y="578"/>
      <point x="46" y="592"/>
      <point x="46" y="621" type="curve" smooth="yes"/>
      <point x="46" y="671"/>
      <point x="110" y="705"/>
      <point x="192" y="705" type="curve" smooth="yes"/>
      <point x="263" y="705"/>
      <point x="337" y="675"/>
      <point x="337" y="603" type="curve" smooth="yes"/>
      <point x="337" y="527"/>
      <point x="244" y="509"/>
      <point x="226" y="507" type="curve"/>
      <point x="243" y="508"/>
      <point x="353" y="500"/>
    </contour>
    <contour>
      <point x="716" y="156" type="line"/>
      <point x="716" y="319" type="line"/>
      <point x="578" y="156" type="line"/>
    </contour>
  </outline>
</glyph>
<glyph name="Aacute" format="1">
  <advance width="686"/>
  <unicode hex="00C1"/>
  <outline>
    <contour>
      <point x="681" y="0" type="line"/>
      <point x="405" y="0" type="line"/>
      <point x="405" y="51" type="line"/>
      <point x="464" y="58" type="line" smooth="yes"/>
      <point x="470" y="59"/>
      <point x="476" y="68"/>
      <point x="473" y="75" type="curve" smooth="yes"/>
      <point x="419" y="234" type="line"/>
      <point x="205" y="234" type="line"/>
      <point x="150" y="79" type="line" smooth="yes"/>
      <point x="146" y="69"/>
      <point x="157" y="59"/>
      <point x="164" y="58" type="curve" smooth="yes"/>
      <point x="220" y="51" type="line"/>
      <point x="220" y="0" type="line"/>
      <point x="5" y="0" type="line"/>
      <point x="5" y="51" type="line"/>
      <point x="61" y="59" type="line"/>
      <point x="285" y="687" type="line"/>
      <point x="399" y="687" type="line"/>
      <point x="621" y="77" type="line" smooth="yes"/>
      <point x="626" y="65"/>
      <point x="629" y="61"/>
      <point x="643" y="58" type="curve" smooth="yes"/>
      <point x="681" y="51" type="line"/>
    </contour>
    <contour>
      <point x="394" y="293" type="line"/>
      <point x="308" y="533" type="line"/>
      <point x="224" y="293" type="line"/>
    </contour>
    <contour>
      <point x="500" y="876" type="curve" smooth="yes"/>
      <point x="500" y="863"/>
      <point x="489" y="842"/>
      <point x="475" y="834" type="curve" smooth="yes"/>
      <point x="312" y="746" type="line"/>
      <point x="243" y="746" type="line"/>
      <point x="379" y="897" type="line" smooth="yes"/>
      <point x="402" y="922"/>
      <point x="415" y="929"/>
      <point x="442" y="929" type="curve" smooth="yes"/>
      <point x="485" y="929"/>
      <point x="500" y="900"/>
    </contour>
  </outline>
</glyph>
<glyph name="Aring" format="1">
  <advance width="686"/>
  <unicode hex="00C5"/>
  <outline>
    <contour>
      <point x="681" y="0" type="line"/>
      <point x="405" y="0" type="line"/>
      <point x="405" y="51" type="line"/>
      <point x="464" y="58" type="line" smooth="yes"/>
      <point x="470" y="59"/>
      <point x="476" y="68"/>
      <point x="473" y="75" type="curve" smooth="yes"/>
      <point x="419" y="234" type="line"/>
      <point x="205" y="234" type="line"/>
      <point x="150" y="79" type="line" smooth="yes"/>
      <point x="146" y="69"/>
      <point x="157" y="59"/>
      <point x="164" y="58" type="curve" smooth="yes"/>
      <point x="220" y="51" type="line"/>
      <point x="220" y="0" type="line"/>
      <point x="5" y="0" type="line"/>
      <point x="5" y="51" type="line"/>
      <point x="61" y="59" type="line"/>
      <point x="285" y="687" type="line"/>
      <point x="399" y="687" type="line"/>
      <point x="621" y="77" type="line" smooth="yes"/>
      <point x="626" y="65"/>
      <point x="629" y="61"/>
      <point x="643" y="58" type="curve" smooth="yes"/>
      <point x="681" y="51" type="line"/>
    </contour>
    <contour>
      <point x="394" y="293" type="line"/>
      <point x="308" y="533" type="line"/>
      <point x="224" y="293" type="line"/>
    </contour>
    <contour>
      <point x="466" y="872" type="curve" smooth="yes"/>
      <point x="466" y="802"/>
      <point x="409" y="746"/>
      <point x="339" y="746" type="curve" smooth="yes"/>
      <point x="270" y="746"/>
      <point x="213" y="802"/>
      <point x="213" y="872" type="curve" smooth="yes"/>
      <point x="213" y="942"/>
      <point x="270" y="999"/>
      <point x="339" y="999" type="curve" smooth="yes"/>
      <point x="409" y="999"/>
      <point x="466" y="942"/>
    </contour>
    <contour>
      <point x="402" y="872" type="curve" smooth="yes"/>
      <point x="402" y="907"/>
      <point x="374" y="936"/>
      <point x="339" y="936" type="curve" smooth="yes"/>
      <point x="305" y="936"/>
      <point x="276" y="907"/>
      <point x="276" y="872" type="curve" smooth="yes"/>
      <point x="276" y="837"/>
      <point x="305" y="809"/>
      <point x="339" y="809" type="curve" smooth="yes"/>
      <point x="374" y="809"/>
      <point x="402" y="837"/>
    </contour>
  </outline>
</glyph>
<glyph name="Iacute" format="1">
  <advance width="358"/>
  <unicode hex="00CD"/>
  <outline>
    <contour>
      <point x="335" y="0" type="line"/>
      <point x="23" y="0" type="line"/>
      <point x="23" y="51" type="line"/>
      <point x="85" y="56" type="line" smooth="yes"/>
      <point x="97" y="57"/>
      <point x="107" y="65"/>
      <point x="107" y="78" type="curve" smooth="yes"/>
      <point x="107" y="593" type="line" smooth="yes"/>
      <point x="107" y="606"/>
      <point x="97" y="614"/>
      <point x="85" y="615" type="curve" smooth="yes"/>
      <point x="23" y="620" type="line"/>
      <point x="23" y="671" type="line"/>
      <point x="335" y="671" type="line"/>
      <point x="335" y="620" type="line"/>
      <point x="273" y="615" type="line" smooth="yes"/>
      <point x="262" y="614"/>
      <point x="250" y="606"/>
      <point x="250" y="593" type="curve" smooth="yes"/>
      <point x="250" y="78" type="line" smooth="yes"/>
      <point x="250" y="65"/>
      <point x="262" y="57"/>
      <point x="273" y="56" type="curve" smooth="yes"/>
      <point x="335" y="51" type="line"/>
    </contour>
    <contour>
      <point x="340" y="876" type="curve" smooth="yes"/>
      <point x="340" y="863"/>
      <point x="328" y="842"/>
      <point x="314" y="834" type="curve" smooth="yes"/>
      <point x="152" y="746" type="line"/>
      <point x="82" y="746" type="line"/>
      <point x="219" y="897" type="line" smooth="yes"/>
      <point x="242" y="922"/>
      <point x="255" y="929"/>
      <point x="282" y="929" type="curve" smooth="yes"/>
      <point x="325" y="929"/>
      <point x="340" y="900"/>
    </contour>
  </outline>
</glyph>
<glyph name="Icircumflex" format="1">
  <advance width="358"/>
  <unicode hex="00CE"/>
  <outline>
    <contour>
      <point x="335" y="0" type="line"/>
      <point x="23" y="0" type="line"/>
      <point x="23" y="51" type="line"/>
      <point x="85" y="56" type="line" smooth="yes"/>
      <point x="97" y="57"/>
      <point x="107" y="65"/>
      <point x="107" y="78" type="curve" smooth="yes"/>
      <point x="107" y="593" type="line" smooth="yes"/>
      <point x="107" y="606"/>
      <point x="97" y="614"/>
      <point x="85" y="615" type="curve" smooth="yes"/>
      <point x="23" y="620" type="line"/>
      <point x="23" y="671" type="line"/>
      <point x="335" y="671" type="line"/>
      <point x="335" y="620" type="line"/>
      <point x="273" y="615" type="line" smooth="yes"/>
      <point x="262" y="614"/>
      <point x="250" y="606"/>
      <point x="250" y="593" type="curve" smooth="yes"/>
      <point x="250" y="78" type="line" smooth="yes"/>
      <point x="250" y="65"/>
      <point x="262" y="57"/>
      <point x="273" y="56" type="curve" smooth="yes"/>
      <point x="335" y="51" type="line"/>
    </contour>
    <contour>
      <point x="349" y="746" type="line"/>
      <point x="266" y="746" type="line"/>
      <point x="179" y="841" type="line"/>
      <point x="92" y="746" type="line"/>
      <point x="9" y="746" type="line"/>
      <point x="120" y="917" type="line"/>
      <point x="238" y="917" type="line"/>
    </contour>
  </outline>
</glyph>
<glyph name="Ograve" format="1">
  <advance width="755"/>
  <unicode hex="00D2"/>
  <outline>
    <contour>
      <point x="720" y="332" type="curve" smooth="yes"/>
      <point x="720" y="141"/>
      <point x="585" y="-16"/>
      <point x="384" y="-16" type="curve" smooth="yes"/>
      <point x="184" y="-16"/>
      <point x="37" y="113"/>
      <point x="37" y="340" type="curve" smooth="yes"/>
      <point x="37" y="537"/>
      <point x="162" y="687"/>
      <point x="375" y="687" type="curve" smooth="yes"/>
      <point x="583" y="687"/>
      <point x="720" y="526"/>
    </contour>
    <contour>
      <point x="559" y="328" type="curve" smooth="yes"/>
      <point x="559" y="485"/>
      <point x="500" y="620"/>
      <point x="384" y="620" type="curve" smooth="yes"/>
      <point x="245" y="620"/>
      <point x="197" y="471"/>
      <point x="197" y="337" type="curve" smooth="yes"/>
      <point x="197" y="195"/>
      <point x="251" y="47"/>
      <point x="374" y="47" type="curve" smooth="yes"/>
      <point x="508" y="47"/>
      <point x="559" y="199"/>
    </contour>
    <contour>
      <point x="477" y="746" type="line"/>
      <point x="407" y="746" type="line"/>
      <point x="245" y="834" type="line" smooth="yes"/>
      <point x="231" y="842"/>
      <point x="220" y="863"/>
      <point x="220" y="876" type="curve" smooth="yes"/>
      <point x="220" y="900"/>
      <point x="234" y="929"/>
      <point x="277" y="929" type="curve" smooth="yes"/>
      <point x="304" y="929"/>
      <point x="317" y="922"/>
      <point x="340" y="897" type="curve" smooth="yes"/>
    </contour>
  </outline>
</glyph>
<glyph name="Oacute" format="1">
  <advance width="755"/>
  <unicode hex="00D3"/>
  <outline>
    <contour>
      <point x="720" y="332" type="curve" smooth="yes"/>
      <point x="720" y="141"/>
      <point x="585" y="-16"/>
      <point x="384" y="-16" type="curve" smooth="yes"/>
      <point x="184" y="-16"/>
      <point x="37" y="113"/>
      <point x="37" y="340" type="curve" smooth="yes"/>
      <point x="37" y="537"/>
      <point x="162" y="687"/>
      <point x="375" y="687" type="curve" smooth="yes"/>
      <point x="583" y="687"/>
      <point x="720" y="526"/>
    </contour>
    <contour>
      <point x="559" y="328" type="curve" smooth="yes"/>
      <point x="559" y="485"/>
      <point x="500" y="620"/>
      <point x="384" y="620" type="curve" smooth="yes"/>
      <point x="245" y="620"/>
      <point x="197" y="471"/>
      <point x="197" y="337" type="curve" smooth="yes"/>
      <point x="197" y="195"/>
      <point x="251" y="47"/>
      <point x="374" y="47" type="curve" smooth="yes"/>
      <point x="508" y="47"/>
      <point x="559" y="199"/>
    </contour>
    <contour>
      <point x="540" y="876" type="curve" smooth="yes"/>
      <point x="540" y="863"/>
      <point x="528" y="842"/>
      <point x="514" y="834" type="curve" smooth="yes"/>
      <point x="352" y="746" type="line"/>
      <point x="282" y="746" type="line"/>
      <point x="418" y="897" type="line" smooth="yes"/>
      <point x="441" y="922"/>
      <point x="454" y="929"/>
      <point x="481" y="929" type="curve" smooth="yes"/>
      <point x="524" y="929"/>
      <point x="540" y="900"/>
    </contour>
  </outline>
</glyph>
<glyph name="Ugrave" format="1">
  <advance width="729"/>
  <unicode hex="00D9"/>
  <outline>
    <contour>
      <point x="703" y="620" type="line"/>
      <point x="650" y="615" type="line" smooth="yes"/>
      <point x="639" y="614"/>
      <point x="628" y="606"/>
      <point x="628" y="593" type="curve" smooth="yes"/>
      <point x="628" y="254" type="line" smooth="yes"/>
      <point x="628" y="57"/>
      <point x="541" y="-16"/>
      <point x="354" y="-16" type="curve" smooth="yes"/>
      <point x="182" y="-16"/>
      <point x="99" y="78"/>
      <point x="99" y="254" type="curve" smooth="yes"/>
      <point x="99" y="593" type="line" smooth="yes"/>
      <point x="99" y="606"/>
      <point x="88" y="614"/>
      <point x="76" y="615" type="curve" smooth="yes"/>
      <point x="22" y="620" type="line"/>
      <point x="22" y="671" type="line"/>
      <point x="318" y="671" type="line"/>
      <point x="318" y="620" type="line"/>
      <point x="264" y="615" type="line" smooth="yes"/>
      <point x="253" y="614"/>
      <point x="242" y="606"/>
      <point x="242" y="593" type="curve" smooth="yes"/>
      <point x="242" y="246" type="line" smooth="yes"/>
      <point x="242" y="121"/>
      <point x="294" y="67"/>
      <point x="404" y="67" type="curve" smooth="yes"/>
      <point x="509" y="67"/>
      <point x="552" y="138"/>
      <point x="552" y="246" type="curve" smooth="yes"/>
      <point x="552" y="593" type="line" smooth="yes"/>
      <point x="552" y="606"/>
      <point x="542" y="614"/>
      <point x="530" y="615" type="curve" smooth="yes"/>
      <point x="473" y="620" type="line"/>
      <point x="473" y="671" type="line"/>
      <point x="703" y="671" type="line"/>
    </contour>
    <contour>
      <point x="469" y="746" type="line"/>
      <point x="399" y="746" type="line"/>
      <point x="237" y="834" type="line" smooth="yes"/>
      <point x="223" y="842"/>
      <point x="212" y="863"/>
      <point x="212" y="876" type="curve" smooth="yes"/>
      <point x="212" y="900"/>
      <point x="227" y="929"/>
      <point x="270" y="929" type="curve" smooth="yes"/>
      <point x="297" y="929"/>
      <point x="310" y="922"/>
      <point x="333" y="897" type="curve" smooth="yes"/>
    </contour>
  </outline>
</glyph>
<glyph name="Ucircumflex" format="1">
  <advance width="729"/>
  <unicode hex="00DB"/>
  <outline>
    <contour>
      <point x="703" y="620" type="line"/>
      <point x="650" y="615" type="line" smooth="yes"/>
      <point x="639" y="614"/>
      <point x="628" y="606"/>
      <point x="628" y="593" type="curve" smooth="yes"/>
      <point x="628" y="254" type="line" smooth="yes"/>
      <point x="628" y="57"/>
      <point x="541" y="-16"/>
      <point x="354" y="-16" type="curve" smooth="yes"/>
      <point x="182" y="-16"/>
      <point x="99" y="78"/>
      <point x="99" y="254" type="curve" smooth="yes"/>
      <point x="99" y="593" type="line" smooth="yes"/>
      <point x="99" y="606"/>
      <point x="88" y="614"/>
      <point x="76" y="615" type="curve" smooth="yes"/>
      <point x="22" y="620" type="line"/>
      <point x="22" y="671" type="line"/>
      <point x="318" y="671" type="line"/>
      <point x="318" y="620" type="line"/>
      <point x="264" y="615" type="line" smooth="yes"/>
      <point x="253" y="614"/>
      <point x="242" y="606"/>
      <point x="242" y="593" type="curve" smooth="yes"/>
      <point x="242" y="246" type="line" smooth="yes"/>
      <point x="242" y="121"/>
      <point x="294" y="67"/>
      <point x="404" y="67" type="curve" smooth="yes"/>
      <point x="509" y="67"/>
      <point x="552" y="138"/>
      <point x="552" y="246" type="curve" smooth="yes"/>
      <point x="552" y="593" type="line" smooth="yes"/>
      <point x="552" y="606"/>
      <point x="542" y="614"/>
      <point x="530" y="615" type="curve" smooth="yes"/>
      <point x="473" y="620" type="line"/>
      <point x="473" y="671" type="line"/>
      <point x="703" y="671" type="line"/>
    </contour>
    <contour>
      <point x="541" y="746" type="line"/>
      <point x="458" y="746" type="line"/>
      <point x="371" y="841" type="line"/>
      <point x="284" y="746" type="line"/>
      <point x="201" y="746" type="line"/>
      <point x="312" y="917" type="line"/>
      <point x="430" y="917" type="line"/>
    </contour>
  </outline>
</glyph>
<glyph name="Yacute" format="1">
  <advance width="663"/>
  <unicode hex="00DD"/>
  <outline>
    <contour>
      <point x="653" y="620" type="line"/>
      <point x="595" y="611" type="line"/>
      <point x="410" y="290" type="line"/>
      <point x="410" y="78" type="line" smooth="yes"/>
      <point x="410" y="65"/>
      <point x="420" y="57"/>
      <point x="432" y="56" type="curve" smooth="yes"/>
      <point x="493" y="51" type="line"/>
      <point x="493" y="0" type="line"/>
      <point x="183" y="0" type="line"/>
      <point x="183" y="51" type="line"/>
      <point x="244" y="56" type="line" smooth="yes"/>
      <point x="255" y="57"/>
      <point x="267" y="65"/>
      <point x="267" y="78" type="curve" smooth="yes"/>
      <point x="267" y="262" type="line"/>
      <point x="74" y="611" type="line"/>
      <point x="10" y="620" type="line"/>
      <point x="10" y="671" type="line"/>
      <point x="294" y="671" type="line"/>
      <point x="294" y="620" type="line"/>
      <point x="241" y="615" type="line" smooth="yes"/>
      <point x="234" y="615"/>
      <point x="229" y="604"/>
      <point x="236" y="591" type="curve" smooth="yes"/>
      <point x="362" y="354" type="line"/>
      <point x="498" y="592" type="line" smooth="yes"/>
      <point x="505" y="604"/>
      <point x="502" y="616"/>
      <point x="493" y="616" type="curve" smooth="yes"/>
      <point x="432" y="620" type="line"/>
      <point x="432" y="671" type="line"/>
      <point x="653" y="671" type="line"/>
    </contour>
    <contour>
      <point x="492" y="876" type="curve" smooth="yes"/>
      <point x="492" y="863"/>
      <point x="480" y="842"/>
      <point x="466" y="834" type="curve" smooth="yes"/>
      <point x="304" y="746" type="line"/>
      <point x="234" y="746" type="line"/>
      <point x="371" y="897" type="line" smooth="yes"/>
      <point x="394" y="922"/>
      <point x="407" y="929"/>
      <point x="434" y="929" type="curve" smooth="yes"/>
      <point x="477" y="929"/>
      <point x="492" y="900"/>
    </contour>
  </outline>
</glyph>
<glyph name="atilde" format="1">
  <advance width="553"/>
  <unicode hex="00E3"/>
  <outline>
    <contour>
      <point x="536" y="0" type="line"/>
      <point x="350" y="0" type="line"/>
      <point x="337" y="50" type="line"/>
      <point x="337" y="50"/>
      <point x="251" y="-12"/>
      <point x="163" y="-12" type="curve" smooth="yes"/>
      <point x="91" y="-12"/>
      <point x="32" y="38"/>
      <point x="32" y="117" type="curve" smooth="yes"/>
      <point x="32" y="207"/>
      <point x="63" y="251"/>
      <point x="338" y="312" type="curve"/>
      <point x="338" y="327"/>
      <point x="339" y="351"/>
      <point x="339" y="351" type="curve" smooth="yes"/>
      <point x="340" y="389"/>
      <point x="325" y="444"/>
      <point x="245" y="444" type="curve" smooth="yes"/>
      <point x="218" y="444"/>
      <point x="202" y="440"/>
      <point x="202" y="440" type="curve"/>
      <point x="202" y="345" type="line"/>
      <point x="99" y="345" type="line"/>
      <point x="99" y="345"/>
      <point x="54" y="340"/>
      <point x="54" y="381" type="curve" smooth="yes"/>
      <point x="54" y="455"/>
      <point x="171" y="500"/>
      <point x="277" y="500" type="curve" smooth="yes"/>
      <point x="392" y="500"/>
      <point x="470" y="474"/>
      <point x="470" y="330" type="curve" smooth="yes"/>
      <point x="470" y="73" type="line" smooth="yes"/>
      <point x="470" y="61"/>
      <point x="480" y="51"/>
      <point x="492" y="50" type="curve" smooth="yes"/>
      <point x="536" y="47" type="line"/>
    </contour>
    <contour>
      <point x="337" y="93" type="curve"/>
      <point x="337" y="258" type="line"/>
      <point x="208" y="232"/>
      <point x="174" y="205"/>
      <point x="174" y="145" type="curve" smooth="yes"/>
      <point x="174" y="104"/>
      <point x="203" y="71"/>
      <point x="245" y="71" type="curve" smooth="yes"/>
      <point x="288" y="71"/>
      <point x="337" y="93"/>
    </contour>
    <contour>
      <point x="444" y="709" type="line"/>
      <point x="427" y="640"/>
      <point x="391" y="585"/>
      <point x="323" y="585" type="curve" smooth="yes"/>
      <point x="271" y="585"/>
      <point x="250" y="633"/>
      <point x="191" y="633" type="curve" smooth="yes"/>
      <point x="169" y="633"/>
      <point x="150" y="612"/>
      <point x="147" y="585" type="curve"/>
      <point x="93" y="585" type="line"/>
      <point x="110" y="654"/>
      <point x="146" y="709"/>
      <point x="213" y="709" type="curve" smooth="yes"/>
      <point x="266" y="709"/>
      <point x="287" y="662"/>
      <point x="346" y="662" type="curve" smooth="yes"/>
      <point x="367" y="662"/>
      <point x="387" y="683"/>
      <point x="390" y="709" type="curve"/>
    </contour>
  </outline>
</glyph>
<glyph name="ae" format="1">
  <advance width="770"/>
  <unicode hex="00E6"/>
  <outline>
    <contour>
      <point x="739" y="270" type="curve" smooth="yes"/>
      <point x="739" y="263"/>
      <point x="738" y="250"/>
      <point x="738" y="250" type="curve"/>
      <point x="448" y="250" type="line"/>
      <point x="448" y="135" type="line"/>
      <point x="448" y="135"/>
      <point x="493" y="75"/>
      <point x="596" y="75" type="curve" smooth="yes"/>
      <point x="675" y="75"/>
      <point x="738" y="129"/>
      <point x="738" y="129" type="curve"/>
      <point x="738" y="50" type="line"/>
      <point x="738" y="50"/>
      <point x="662" y="-8"/>
      <point x="552" y="-8" type="curve" smooth="yes"/>
      <point x="422" y="-8"/>
      <point x="353" y="65"/>
      <point x="353" y="65" type="curve"/>
      <point x="353" y="65"/>
      <point x="262" y="-8"/>
      <point x="160" y="-8" type="curve" smooth="yes"/>
      <point x="70" y="-8"/>
      <point x="32" y="56"/>
      <point x="32" y="123" type="curve" smooth="yes"/>
      <point x="32" y="232"/>
      <point x="109" y="264"/>
      <point x="320" y="314" type="curve"/>
      <point x="320" y="342" type="line" smooth="yes"/>
      <point x="320" y="413"/>
      <point x="291" y="446"/>
      <point x="227" y="446" type="curve" smooth="yes"/>
      <point x="215" y="446"/>
      <point x="192" y="442"/>
      <point x="192" y="442" type="curve"/>
      <point x="192" y="346" type="line"/>
      <point x="102" y="346" type="line" smooth="yes"/>
      <point x="63" y="346"/>
      <point x="53" y="355"/>
      <point x="53" y="384" type="curve" smooth="yes"/>
      <point x="53" y="458"/>
      <point x="166" y="501"/>
      <point x="264" y="501" type="curve" smooth="yes"/>
      <point x="369" y="501"/>
      <point x="413" y="447"/>
      <point x="413" y="447" type="curve"/>
      <point x="413" y="447"/>
      <point x="463" y="501"/>
      <point x="553" y="501" type="curve" smooth="yes"/>
      <point x="689" y="501"/>
      <point x="739" y="390"/>
    </contour>
    <contour>
      <point x="320" y="100" type="curve"/>
      <point x="320" y="260" type="line"/>
      <point x="192" y="226"/>
      <point x="170" y="196"/>
      <point x="170" y="148" type="curve" smooth="yes"/>
      <point x="170" y="108"/>
      <point x="192" y="73"/>
      <point x="234" y="73" type="curve" smooth="yes"/>
      <point x="273" y="73"/>
      <point x="320" y="100"/>
    </contour>
    <contour>
      <point x="602" y="306" type="line"/>
      <point x="602" y="327" type="line" smooth="yes"/>
      <point x="602" y="367"/>
      <point x="597" y="446"/>
      <point x="530" y="446" type="curve" smooth="yes"/>
      <point x="446" y="446"/>
      <point x="445" y="339"/>
      <point x="445" y="306" type="curve"/>
    </contour>
  </outline>
</glyph>
<glyph name="eth" format="1">
  <advance width="578"/>
  <unicode hex="00F0"/>
  <outline>
    <contour>
      <point x="546" y="262" type="curve" smooth="yes"/>
      <point x="546" y="85"/>
      <point x="441" y="-12"/>
      <point x="299" y="-12" type="curve" smooth="yes"/>
      <point x="118" y="-12"/>
      <point x="32" y="101"/>
      <point x="32" y="239" type="curve" smooth="yes"/>
      <point x="32" y="373"/>
      <point x="119" y="500"/>
      <point x="271" y="500" type="curve" smooth="yes"/>
      <point x="299" y="500"/>
      <point x="338" y="488"/>
      <point x="344" y="488" type="curve"/>
      <point x="340" y="494"/>
      <point x="294" y="562"/>
      <point x="277" y="579" type="curve"/>
      <point x="157" y="515" type="line"/>
      <point x="133" y="561" type="line"/>
      <point x="241" y="618" type="line"/>
      <point x="208" y="653" type="line"/>
      <point x="119" y="656" type="line"/>
      <point x="119" y="700" type="line"/>
      <point x="276" y="752" type="line"/>
      <point x="353" y="677" type="line"/>
      <point x="467" y="738" type="line"/>
      <point x="492" y="692" type="line"/>
      <point x="385" y="635" type="line"/>
      <point x="385" y="635"/>
      <point x="546" y="464"/>
    </contour>
    <contour>
      <point x="404" y="256" type="curve" smooth="yes"/>
      <point x="404" y="358"/>
      <point x="378" y="413"/>
      <point x="370" y="429" type="curve"/>
      <point x="370" y="429"/>
      <point x="341" y="448"/>
      <point x="312" y="448" type="curve" smooth="yes"/>
      <point x="215" y="448"/>
      <point x="179" y="346"/>
      <point x="179" y="238" type="curve" smooth="yes"/>
      <point x="179" y="140"/>
      <point x="203" y="44"/>
      <point x="292" y="44" type="curve" smooth="yes"/>
      <point x="378" y="44"/>
      <point x="404" y="145"/>
    </contour>
  </outline>
</glyph>
<glyph name="ntilde" format="1">
  <advance width="625"/>
  <unicode hex="00F1"/>
  <outline>
    <contour>
      <point x="589" y="0" type="line"/>
      <point x="343" y="0" type="line"/>
      <point x="343" y="47" type="line"/>
      <point x="380" y="50" type="line" smooth="yes"/>
      <point x="392" y="51"/>
      <point x="402" y="61"/>
      <point x="402" y="73" type="curve" smooth="yes"/>
      <point x="402" y="308" type="line" smooth="yes"/>
      <point x="402" y="359"/>
      <point x="380" y="408"/>
      <point x="320" y="408" type="curve" smooth="yes"/>
      <point x="265" y="408"/>
      <point x="224" y="395"/>
      <point x="224" y="395" type="curve"/>
      <point x="224" y="73" type="line" smooth="yes"/>
      <point x="224" y="61"/>
      <point x="235" y="51"/>
      <point x="247" y="50" type="curve" smooth="yes"/>
      <point x="277" y="47" type="line"/>
      <point x="277" y="0" type="line"/>
      <point x="32" y="0" type="line"/>
      <point x="32" y="47" type="line"/>
      <point x="68" y="50" type="line" smooth="yes"/>
      <point x="80" y="51"/>
      <point x="90" y="61"/>
      <point x="90" y="73" type="curve" smooth="yes"/>
      <point x="90" y="408" type="line"/>
      <point x="21" y="408" type="line"/>
      <point x="21" y="449" type="line"/>
      <point x="172" y="500" type="line"/>
      <point x="224" y="500" type="line"/>
      <point x="224" y="439" type="line"/>
      <point x="224" y="439"/>
      <point x="313" y="500"/>
      <point x="399" y="500" type="curve" smooth="yes"/>
      <point x="514" y="500"/>
      <point x="535" y="413"/>
      <point x="535" y="326" type="curve" smooth="yes"/>
      <point x="535" y="73" type="line" smooth="yes"/>
      <point x="535" y="61"/>
      <point x="546" y="51"/>
      <point x="558" y="50" type="curve" smooth="yes"/>
      <point x="589" y="47" type="line"/>
    </contour>
    <contour>
      <point x="480" y="709" type="line"/>
      <point x="463" y="640"/>
      <point x="427" y="585"/>
      <point x="359" y="585" type="curve" smooth="yes"/>
      <point x="307" y="585"/>
      <point x="286" y="633"/>
      <point x="227" y="633" type="curve" smooth="yes"/>
      <point x="205" y="633"/>
      <point x="186" y="612"/>
      <point x="183" y="585" type="curve"/>
      <point x="129" y="585" type="line"/>
      <point x="146" y="654"/>
      <point x="182" y="709"/>
      <point x="249" y="709" type="curve" smooth="yes"/>
      <point x="302" y="709"/>
      <point x="323" y="662"/>
      <point x="382" y="662" type="curve" smooth="yes"/>
      <point x="403" y="662"/>
      <point x="423" y="683"/>
      <point x="426" y="709" type="curve"/>
    </contour>
  </outline>
</glyph>
<glyph name="odieresis" format="1">
  <advance width="583"/>
  <unicode hex="00F6"/>
  <outline>
    <contour>
      <point x="553" y="241" type="curve" smooth="yes"/>
      <point x="553" y="92"/>
      <point x="455" y="-12"/>
      <point x="289" y="-12" type="curve" smooth="yes"/>
      <point x="137" y="-12"/>
      <point x="32" y="84"/>
      <point x="32" y="242" type="curve" smooth="yes"/>
      <point x="32" y="406"/>
      <point x="141" y="500"/>
      <point x="296" y="500" type="curve" smooth="yes"/>
      <point x="461" y="500"/>
      <point x="553" y="393"/>
    </contour>
    <contour>
      <point x="404" y="242" type="curve" smooth="yes"/>
      <point x="404" y="327"/>
      <point x="384" y="443"/>
      <point x="292" y="443" type="curve" smooth="yes"/>
      <point x="202" y="443"/>
      <point x="182" y="332"/>
      <point x="182" y="246" type="curve" smooth="yes"/>
      <point x="182" y="160"/>
      <point x="200" y="44"/>
      <point x="293" y="44" type="curve" smooth="yes"/>
      <point x="384" y="44"/>
      <point x="404" y="153"/>
    </contour>
    <contour>
      <point x="467" y="654" type="curve" smooth="yes"/>
      <point x="467" y="616"/>
      <point x="435" y="585"/>
      <point x="397" y="585" type="curve" smooth="yes"/>
      <point x="359" y="585"/>
      <point x="329" y="616"/>
      <point x="329" y="654" type="curve" smooth="yes"/>
      <point x="329" y="692"/>
      <point x="359" y="723"/>
      <point x="397" y="723" type="curve" smooth="yes"/>
      <point x="435" y="723"/>
      <point x="467" y="692"/>
    </contour>
    <contour>
      <point x="257" y="654" type="curve" smooth="yes"/>
      <point x="257" y="616"/>
      <point x="226" y="585"/>
      <point x="188" y="585" type="curve" smooth="yes"/>
      <point x="150" y="585"/>
      <point x="119" y="616"/>
      <point x="119" y="654" type="curve" smooth="yes"/>
      <point x="119" y="692"/>
      <point x="150" y="723"/>
      <point x="188" y="723" type="curve" smooth="yes"/>
      <point x="226" y="723"/>
      <point x="257" y="692"/>
    </contour>
  </outline>
</glyph>
<glyph name="ucircumflex" format="1">
  <advance width="620"/>
  <unicode hex="00FB"/>
  <outline>
    <contour>
      <point x="597" y="0" type="line"/>
      <point x="396" y="0" type="line"/>
      <point x="396" y="55" type="line"/>
      <point x="396" y="55"/>
      <point x="311" y="-12"/>
      <point x="238" y="-12" type="curve" smooth="yes"/>
      <point x="124" y="-12"/>
      <point x="90" y="49"/>
      <point x="90" y="151" type="curve" smooth="yes"/>
      <point x="90" y="409" type="line"/>
      <point x="25" y="409" type="line"/>
      <point x="25" y="450" type="line"/>
      <point x="172" y="500" type="line"/>
      <point x="224" y="500" type="line"/>
      <point x="224" y="190" type="line" smooth="yes"/>
      <point x="224" y="141"/>
      <point x="231" y="79"/>
      <point x="316" y="79" type="curve" smooth="yes"/>
      <point x="358" y="79"/>
      <point x="396" y="96"/>
      <point x="396" y="96" type="curve"/>
      <point x="396" y="409" type="line"/>
      <point x="333" y="409" type="line"/>
      <point x="333" y="450" type="line"/>
      <point x="479" y="500" type="line"/>
      <point x="530" y="500" type="line"/>
      <point x="530" y="73" type="line" smooth="yes"/>
      <point x="530" y="61"/>
      <point x="541" y="51"/>
      <point x="553" y="50" type="curve" smooth="yes"/>
      <point x="597" y="47" type="line"/>
    </contour>
    <contour>
      <point x="481" y="551" type="line"/>
      <point x="398" y="551" type="line"/>
      <point x="311" y="646" type="line"/>
      <point x="224" y="551" type="line"/>
      <point x="141" y="551" type="line"/>
      <point x="252" y="722" type="line"/>
      <point x="370" y="722" type="line"/>
    </contour>
  </outline>
</glyph>
<glyph name="Dcroat" format="1">
  <advance width="724"/>
  <unicode hex="0110"/>
  <outline>
    <contour>
      <point x="14" y="319" type="line"/>
      <point x="14" y="384" type="line"/>
      <point x="396" y="384" type="line"/>
      <point x="396" y="319" type="line"/>
    </contour>
    <contour>
      <point x="687" y="343" type="curve" smooth="yes"/>
      <point x="687" y="114"/>
      <point x="550" y="0"/>
      <point x="338" y="0" type="curve" smooth="yes"/>
      <point x="26" y="0" type="line"/>
      <point x="26" y="51" type="line"/>
      <point x="81" y="56" type="line" smooth="yes"/>
      <point x="93" y="57"/>
      <point x="104" y="65"/>
      <point x="104" y="78" type="curve" smooth="yes"/>
      <point x="104" y="593" type="line" smooth="yes"/>
      <point x="104" y="606"/>
      <point x="93" y="614"/>
      <point x="81" y="615" type="curve" smooth="yes"/>
      <point x="26" y="620" type="line"/>
      <point x="26" y="671" type="line"/>
      <point x="332" y="671" type="line" smooth="yes"/>
      <point x="560" y="671"/>
      <point x="687" y="538"/>
    </contour>
    <contour>
      <point x="526" y="332" type="curve" smooth="yes"/>
      <point x="526" y="562"/>
      <point x="413" y="613"/>
      <point x="310" y="613" type="curve" smooth="yes"/>
      <point x="247" y="613" type="line"/>
      <point x="247" y="59" type="line"/>
      <point x="330" y="61" type="line" smooth="yes"/>
      <point x="416" y="63"/>
      <point x="526" y="118"/>
    </contour>
  </outline>
</glyph>
<glyph name="Gbreve" format="1">
  <advance width="715"/>
  <unicode hex="011E"/>
  <outline>
    <contour>
      <point x="693" y="281" type="line"/>
      <point x="642" y="276" type="line" smooth="yes"/>
      <point x="630" y="275"/>
      <point x="619" y="267"/>
      <point x="619" y="254" type="curve" smooth="yes"/>
      <point x="619" y="31" type="line"/>
      <point x="619" y="31"/>
      <point x="521" y="-16"/>
      <point x="387" y="-16" type="curve" smooth="yes"/>
      <point x="187" y="-16"/>
      <point x="37" y="124"/>
      <point x="37" y="337" type="curve" smooth="yes"/>
      <point x="37" y="553"/>
      <point x="188" y="687"/>
      <point x="395" y="687" type="curve" smooth="yes"/>
      <point x="526" y="687"/>
      <point x="620" y="648"/>
      <point x="620" y="648" type="curve"/>
      <point x="620" y="475" type="line"/>
      <point x="542" y="475" type="line"/>
      <point x="522" y="583" type="line" smooth="yes"/>
      <point x="521" y="590"/>
      <point x="512" y="601"/>
      <point x="504" y="604" type="curve" smooth="yes"/>
      <point x="473" y="616"/>
      <point x="443" y="621"/>
      <point x="432" y="621" type="curve" smooth="yes"/>
      <point x="258" y="621"/>
      <point x="192" y="483"/>
      <point x="192" y="341" type="curve" smooth="yes"/>
      <point x="192" y="169"/>
      <point x="279" y="59"/>
      <point x="436" y="59" type="curve" smooth="yes"/>
      <point x="445" y="59"/>
      <point x="457" y="57"/>
      <point x="481" y="59" type="curve"/>
      <point x="481" y="254" type="line" smooth="yes"/>
      <point x="481" y="267"/>
      <point x="470" y="276"/>
      <point x="458" y="276" type="curve" smooth="yes"/>
      <point x="391" y="281" type="line"/>
      <point x="391" y="332" type="line"/>
      <point x="693" y="332" type="line"/>
    </contour>
    <contour>
      <point x="542" y="909" type="line"/>
      <point x="542" y="819"/>
      <point x="490" y="746"/>
      <point x="385" y="746" type="curve" smooth="yes"/>
      <point x="280" y="746"/>
      <point x="229" y="819"/>
      <point x="229" y="909" type="curve"/>
      <point x="281" y="909" type="line"/>
      <point x="294" y="849"/>
      <point x="341" y="827"/>
      <point x="385" y="827" type="curve" smooth="yes"/>
      <point x="430" y="827"/>
      <point x="476" y="849"/>
      <point x="489" y="909" type="curve"/>
    </contour>
  </outline>
</glyph>
<glyph name="gdotaccent" format="1">
  <advance width="555"/>
  <unicode hex="0121"/>
  <outline>
    <contour>
      <point x="546" y="410" type="line"/>
      <point x="458" y="410" type="line"/>
      <point x="458" y="410"/>
      <point x="478" y="375"/>
      <point x="478" y="334" type="curve" smooth="yes"/>
      <point x="478" y="200"/>
      <point x="333" y="162"/>
      <point x="239" y="168" type="curve"/>
      <point x="215" y="152"/>
      <point x="200" y="136"/>
      <point x="212" y="108" type="curve"/>
      <point x="431" y="90"/>
      <point x="516" y="44"/>
      <point x="516" y="-40" type="curve" smooth="yes"/>
      <point x="516" y="-156"/>
      <point x="377" y="-231"/>
      <point x="246" y="-231" type="curve" smooth="yes"/>
      <point x="141" y="-231"/>
      <point x="32" y="-183"/>
      <point x="32" y="-76" type="curve" smooth="yes"/>
      <point x="32" y="7"/>
      <point x="105" y="33"/>
      <point x="132" y="29" type="curve"/>
      <point x="123" y="47"/>
      <point x="119" y="69"/>
      <point x="119" y="82" type="curve" smooth="yes"/>
      <point x="119" y="116"/>
      <point x="137" y="141"/>
      <point x="175" y="175" type="curve"/>
      <point x="140" y="183"/>
      <point x="52" y="221"/>
      <point x="52" y="325" type="curve" smooth="yes"/>
      <point x="52" y="445"/>
      <point x="151" y="500"/>
      <point x="273" y="500" type="curve" smooth="yes"/>
      <point x="336" y="500"/>
      <point x="383" y="480"/>
      <point x="416" y="469" type="curve"/>
      <point x="546" y="469" type="line"/>
    </contour>
    <contour>
      <point x="346" y="336" type="curve" smooth="yes"/>
      <point x="346" y="391"/>
      <point x="321" y="451"/>
      <point x="271" y="451" type="curve" smooth="yes"/>
      <point x="211" y="451"/>
      <point x="190" y="392"/>
      <point x="190" y="335" type="curve" smooth="yes"/>
      <point x="190" y="276"/>
      <point x="214" y="215"/>
      <point x="269" y="215" type="curve" smooth="yes"/>
      <point x="323" y="215"/>
      <point x="346" y="277"/>
    </contour>
    <contour>
      <point x="387" y="-69" type="curve" smooth="yes"/>
      <point x="387" y="1"/>
      <point x="245" y="11"/>
      <point x="195" y="16" type="curve"/>
      <point x="182" y="-3"/>
      <point x="164" y="-25"/>
      <point x="164" y="-62" type="curve" smooth="yes"/>
      <point x="163" y="-126"/>
      <point x="221" y="-176"/>
      <point x="274" y="-176" type="curve" smooth="yes"/>
      <point x="327" y="-176"/>
      <point x="387" y="-134"/>
    </contour>
    <contour>
      <point x="338" y="653" type="curve" smooth="yes"/>
      <point x="338" y="616"/>
      <point x="309" y="585"/>
      <point x="270" y="585" type="curve" smooth="yes"/>
      <point x="231" y="585"/>
      <point x="202" y="614"/>
      <point x="202" y="653" type="curve" smooth="yes"/>
      <point x="202" y="693"/>
      <point x="230" y="726"/>
      <point x="270" y="726" type="curve" smooth="yes"/>
      <point x="308" y="726"/>
      <point x="338" y="694"/>
    </contour>
  </outline>
</glyph>
<glyph name="itilde" format="1">
  <advance width="333"/>
  <unicode hex="0129"/>
  <outline>
    <contour>
      <point x="304" y="0" type="line"/>
      <point x="32" y="0" type="line"/>
      <point x="32" y="47" type="line"/>
      <point x="78" y="50" type="line" smooth="yes"/>
      <point x="90" y="51"/>
      <point x="100" y="61"/>
      <point x="100" y="73" type="curve" smooth="yes"/>
      <point x="100" y="409" type="line"/>
      <point x="36" y="409" type="line"/>
      <point x="36" y="450" type="line"/>
      <point x="182" y="500" type="line"/>
      <point x="233" y="500" type="line"/>
      <point x="233" y="73" type="line" smooth="yes"/>
      <point x="233" y="61"/>
      <point x="244" y="51"/>
      <point x="256" y="50" type="curve" smooth="yes"/>
      <point x="304" y="47" type="line"/>
    </contour>
    <contour>
      <point x="344" y="709" type="line"/>
      <point x="327" y="640"/>
      <point x="291" y="585"/>
      <point x="223" y="585" type="curve" smooth="yes"/>
      <point x="171" y="585"/>
      <point x="150" y="633"/>
      <point x="91" y="633" type="curve" smooth="yes"/>
      <point x="69" y="633"/>
      <point x="50" y="612"/>
      <point x="47" y="585" type="curve"/>
      <point x="-7" y="585" type="line"/>
      <point x="10" y="654"/>
      <point x="46" y="709"/>
      <point x="113" y="709" type="curve" smooth="yes"/>
      <point x="166" y="709"/>
      <point x="187" y="662"/>
      <point x="246" y="662" type="curve" smooth="yes"/>
      <point x="267" y="662"/>
      <point x="287" y="683"/>
      <point x="290" y="709" type="curve"/>
    </contour>
  </outline>
</glyph>
<glyph name="ibreve" format="1">
  <advance width="333"/>
  <unicode hex="012D"/>
  <outline>
    <contour>
      <point x="304" y="0" type="line"/>
      <point x="32" y="0" type="line"/>
      <point x="32" y="47" type="line"/>
      <point x="78" y="50" type="line" smooth="yes"/>
      <point x="90" y="51"/>
      <point x="100" y="61"/>
      <point x="100" y="73" type="curve" smooth="yes"/>
      <point x="100" y="409" type="line"/>
      <point x="36" y="409" type="line"/>
      <point x="36" y="450" type="line"/>
      <point x="182" y="500" type="line"/>
      <point x="233" y="500" type="line"/>
      <point x="233" y="73" type="line" smooth="yes"/>
      <point x="233" y="61"/>
      <point x="244" y="51"/>
      <point x="256" y="50" type="curve" smooth="yes"/>
      <point x="304" y="47" type="line"/>
    </contour>
    <contour>
      <point x="325" y="714" type="line"/>
      <point x="325" y="624"/>
      <point x="272" y="551"/>
      <point x="167" y="551" type="curve" smooth="yes"/>
      <point x="62" y="551"/>
      <point x="12" y="624"/>
      <point x="12" y="714" type="curve"/>
      <point x="63" y="714" type="line"/>
      <point x="76" y="654"/>
      <point x="123" y="632"/>
      <point x="167" y="632" type="curve" smooth="yes"/>
      <point x="212" y="632"/>
      <point x="258" y="654"/>
      <point x="271" y="714" type="curve"/>
    </contour>
  </outline>
</glyph>
<glyph name="IJ" format="1">
  <advance width="871"/>
  <unicode hex="0132"/>
  <outline>
    <contour>
      <point x="335" y="0" type="line"/>
      <point x="23" y="0" type="line"/>
      <point x="23" y="51" type="line"/>
      <point x="85" y="56" type="line" smooth="yes"/>
      <point x="97" y="57"/>
      <point x="107" y="65"/>
      <point x="107" y="78" type="curve" smooth="yes"/>
      <point x="107" y="593" type="line" smooth="yes"/>
      <point x="107" y="606"/>
      <point x="97" y="614"/>
      <point x="85" y="615" type="curve" smooth="yes"/>
      <point x="23" y="620" type="line"/>
      <point x="23" y="671" type="line"/>
      <point x="335" y="671" type="line"/>
      <point x="335" y="620" type="line"/>
      <point x="273" y="615" type="line" smooth="yes"/>
      <point x="262" y="614"/>
      <point x="250" y="606"/>
      <point x="250" y="593" type="curve" smooth="yes"/>
      <point x="250" y="78" type="line" smooth="yes"/>
      <point x="250" y="65"/>
      <point x="262" y="57"/>
      <point x="273" y="56" type="curve" smooth="yes"/>
      <point x="335" y="51" type="line"/>
    </contour>
    <contour>
      <point x="849" y="620" type="line"/>
      <point x="788" y="615" type="line" smooth="yes"/>
      <point x="776" y="614"/>
      <point x="766" y="606"/>
      <point x="766" y="593" type="curve" smooth="yes"/>
      <point x="766" y="242" type="line" smooth="yes"/>
      <point x="766" y="88"/>
      <point x="696" y="-16"/>
      <point x="532" y="-16" type="curve" smooth="yes"/>
      <point x="477" y="-16"/>
      <point x="414" y="1"/>
      <point x="383" y="12" type="curve"/>
      <point x="383" y="195" type="line"/>
      <point x="461" y="195" type="line"/>
      <point x="484" y="61" type="line"/>
      <point x="484" y="61"/>
      <point x="489" y="44"/>
      <point x="510" y="44" type="curve" smooth="yes"/>
      <point x="584" y="44"/>
      <point x="624" y="94"/>
      <point x="624" y="245" type="curve" smooth="yes"/>
      <point x="624" y="593" type="line" smooth="yes"/>
      <point x="624" y="606"/>
      <point x="613" y="614"/>
      <point x="602" y="615" type="curve" smooth="yes"/>
      <point x="540" y="620" type="line"/>
      <point x="540" y="671" type="line"/>
      <point x="849" y="671" type="line"/>
    </contour>
  </outline>
</glyph>
<glyph name="lacute" format="1">
  <advance width="333"/>
  <unicode hex="013A"/>
  <outline>
    <contour>
      <point x="305" y="0" type="line"/>
      <point x="29" y="0" type="line"/>
      <point x="29" y="47" type="line"/>
      <point x="78" y="50" type="line" smooth="yes"/>
      <point x="91" y="51"/>
      <point x="100" y="60"/>
      <point x="100" y="73" type="curve" smooth="yes"/>
      <point x="100" y="649" type="line"/>
      <point x="29" y="649" type="line"/>
      <point x="29" y="690" type="line"/>
      <point x="182" y="740" type="line"/>
      <point x="233" y="740" type="line"/>
      <point x="233" y="73" type="line" smooth="yes"/>
      <point x="233" y="60"/>
      <point x="242" y="51"/>
      <point x="255" y="50" type="curve" smooth="yes"/>
      <point x="305" y="47" type="line"/>
    </contour>
    <contour>
      <point x="328" y="916" type="curve" smooth="yes"/>
      <point x="328" y="903"/>
      <point x="316" y="882"/>
      <point x="302" y="874" type="curve" smooth="yes"/>
      <point x="140" y="785" type="line"/>
      <point x="70" y="785" type="line"/>
      <point x="207" y="937" type="line" smooth="yes"/>
      <point x="230" y="962"/>
      <point x="243" y="968"/>
      <point x="270" y="968" type="curve" smooth="yes"/>
      <point x="313" y="968"/>
      <point x="328" y="940"/>
    </contour>
  </outline>
</glyph>
<glyph name="Lcedilla" format="1">
  <advance width="554"/>
  <unicode hex="013B"/>
  <outline>
    <contour>
      <point x="538" y="0" type="line"/>
      <point x="27" y="0" type="line"/>
      <point x="27" y="51" type="line"/>
      <point x="82" y="56" type="line" smooth="yes"/>
      <point x="94" y="57"/>
      <point x="104" y="65"/>
      <point x="104" y="78" type="curve" smooth="yes"/>
      <point x="104" y="593" type="line" smooth="yes"/>
      <point x="104" y="606"/>
      <point x="94" y="614"/>
      <point x="82" y="615" type="curve" smooth="yes"/>
      <point x="27" y="620" type="line"/>
      <point x="27" y="671" type="line"/>
      <point x="325" y="671" type="line"/>
      <point x="325" y="620" type="line"/>
      <point x="269" y="615" type="line" smooth="yes"/>
      <point x="257" y="614"/>
      <point x="247" y="606"/>
      <point x="247" y="593" type="curve" smooth="yes"/>
      <point x="247" y="61" type="line"/>
      <point x="421" y="61" type="line" smooth="yes"/>
      <point x="435" y="61"/>
      <point x="444" y="76"/>
      <point x="445" y="84" type="curve" smooth="yes"/>
      <point x="458" y="199" type="line"/>
      <point x="538" y="199" type="line"/>
    </contour>
    <contour>
      <point x="359" y="-146" type="curve" smooth="yes"/>
      <point x="359" y="-214"/>
      <point x="295" y="-262"/>
      <point x="218" y="-277" type="curve"/>
      <point x="218" y="-237" type="line"/>
      <point x="257" y="-226"/>
      <point x="289" y="-195"/>
      <point x="289" y="-163" type="curve"/>
      <point x="226" y="-163" type="line"/>
      <point x="213" y="-151"/>
      <point x="206" y="-135"/>
      <point x="206" y="-119" type="curve" smooth="yes"/>
      <point x="206" y="-80"/>
      <point x="238" y="-61"/>
      <point x="273" y="-61" type="curve" smooth="yes"/>
      <point x="324" y="-61"/>
      <point x="359" y="-99"/>
    </contour>
  </outline>
</glyph>
<glyph name="lcedilla" format="1">
  <advance width="333"/>
  <unicode hex="013C"/>
  <outline>
    <contour>
      <point x="305" y="0" type="line"/>
      <point x="29" y="0" type="line"/>
      <point x="29" y="47" type="line"/>
      <point x="78" y="50" type="line" smooth="yes"/>
      <point x="91" y="51"/>
      <point x="100" y="60"/>
      <point x="100" y="73" type="curve" smooth="yes"/>
      <point x="100" y="649" type="line"/>
      <point x="29" y="649" type="line"/>
      <point x="29" y="690" type="line"/>
      <point x="182" y="740" type="line"/>
      <point x="233" y="740" type="line"/>
      <point x="233" y="73" type="line" smooth="yes"/>
      <point x="233" y="60"/>
      <point x="242" y="51"/>
      <point x="255" y="50" type="curve" smooth="yes"/>
      <point x="305" y="47" type="line"/>
    </contour>
    <contour>
      <point x="244" y="-146" type="curve" smooth="yes"/>
      <point x="244" y="-214"/>
      <point x="180" y="-262"/>
      <point x="103" y="-277" type="curve"/>
      <point x="103" y="-237" type="line"/>
      <point x="142" y="-226"/>
      <point x="173" y="-195"/>
      <point x="173" y="-163" type="curve"/>
      <point x="110" y="-163" type="line"/>
      <point x="97" y="-151"/>
      <point x="90" y="-135"/>
      <point x="90" y="-119" type="curve" smooth="yes"/>
      <point x="90" y="-80"/>
      <point x="123" y="-61"/>
      <point x="158" y="-61" type="curve" smooth="yes"/>
      <point x="209" y="-61"/>
      <point x="244" y="-99"/>
    </contour>
  </outline>
</glyph>
<glyph name="Lcaron" format="1">
  <advance width="554"/>
  <unicode hex="013D"/>
  <outline>
    <contour>
      <point x="538" y="0" type="line"/>
      <point x="27" y="0" type="line"/>
      <point x="27" y="51" type="line"/>
      <point x="82" y="56" type="line" smooth="yes"/>
      <point x="94" y="57"/>
      <point x="104" y="65"/>
      <point x="104" y="78" type="curve" smooth="yes"/>
      <point x="104" y="593" type="line" smooth="yes"/>
      <point x="104" y="606"/>
      <point x="94" y="614"/>
      <point x="82" y="615" type="curve" smooth="yes"/>
      <point x="27" y="620" type="line"/>
      <point x="27" y="671" type="line"/>
      <point x="325" y="671" type="line"/>
      <point x="325" y="620" type="line"/>
      <point x="269" y="615" type="line" smooth="yes"/>
      <point x="257" y="614"/>
      <point x="247" y="606"/>
      <point x="247" y="593" type="curve" smooth="yes"/>
      <point x="247" y="61" type="line"/>
      <point x="421" y="61" type="line" smooth="yes"/>
      <point x="435" y="61"/>
      <point x="444" y="76"/>
      <point x="445" y="84" type="curve" smooth="yes"/>
      <point x="458" y="199" type="line"/>
      <point x="538" y="199" type="line"/>
    </contour>
    <contour>
      <point x="518" y="634" type="curve" smooth="yes"/>
      <point x="518" y="565"/>
      <point x="453" y="517"/>
      <point x="376" y="502" type="curve"/>
      <point x="376" y="542" type="line"/>
      <point x="415" y="553"/>
      <point x="447" y="584"/>
      <point x="447" y="616" type="curve"/>
      <point x="384" y="616" type="line"/>
      <point x="371" y="628"/>
      <point x="364" y="644"/>
      <point x="364" y="660" type="curve" smooth="yes"/>
      <point x="364" y="700"/>
      <point x="397" y="718"/>
      <point x="432" y="718" type="curve" smooth="yes"/>
      <point x="483" y="718"/>
      <point x="518" y="681"/>
    </contour>
  </outline>
</glyph>
<glyph name="lcaron" format="1">
  <advance width="462"/>
  <unicode hex="013E"/>
  <outline>
    <contour>
      <point x="305" y="0" type="line"/>
      <point x="29" y="0" type="line"/>
      <point x="29" y="47" type="line"/>
      <point x="78" y="50" type="line" smooth="yes"/>
      <point x="91" y="51"/>
      <point x="100" y="60"/>
      <point x="100" y="73" type="curve" smooth="yes"/>
      <point x="100" y="649" type="line"/>
      <point x="29" y="649" type="line"/>
      <point x="29" y="690" type="line"/>
      <point x="182" y="740" type="line"/>
      <point x="233" y="740" type="line"/>
      <point x="233" y="73" type="line" smooth="yes"/>
      <point x="233" y="60"/>
      <point x="242" y="51"/>
      <point x="255" y="50" type="curve" smooth="yes"/>
      <point x="305" y="47" type="line"/>
    </contour>
    <contour>
      <point x="431" y="678" type="curve" smooth="yes"/>
      <point x="431" y="609"/>
      <point x="366" y="561"/>
      <point x="289" y="546" type="curve"/>
      <point x="289" y="586" type="line"/>
      <point x="328" y="597"/>
      <point x="360" y="628"/>
      <point x="360" y="660" type="curve"/>
      <point x="297" y="660" type="line"/>
      <point x="284" y="672"/>
      <point x="277" y="688"/>
      <point x="277" y="704" type="curve" smooth="yes"/>
      <point x="277" y="744"/>
      <point x="310" y="762"/>
      <point x="345" y="762" type="curve" smooth="yes"/>
      <point x="396" y="762"/>
      <point x="431" y="725"/>
    </contour>
  </outline>
</glyph>
<glyph name="Ldot" format="1">
  <advance width="692"/>
  <unicode hex="013F"/>
  <outline>
    <contour>
      <point x="538" y="0" type="line"/>
      <point x="27" y="0" type="line"/>
      <point x="27" y="51" type="line"/>
      <point x="82" y="56" type="line" smooth="yes"/>
      <point x="94" y="57"/>
      <point x="104" y="65"/>
      <point x="104" y="78" type="curve" smooth="yes"/>
      <point x="104" y="593" type="line" smooth="yes"/>
      <point x="104" y="606"/>
      <point x="94" y="614"/>
      <point x="82" y="615" type="curve" smooth="yes"/>
      <point x="27" y="620" type="line"/>
      <point x="27" y="671" type="line"/>
      <point x="325" y="671" type="line"/>
      <point x="325" y="620" type="line"/>
      <point x="269" y="615" type="line" smooth="yes"/>
      <point x="257" y="614"/>
      <point x="247" y="606"/>
      <point x="247" y="593" type="curve" smooth="yes"/>
      <point x="247" y="61" type="line"/>
      <point x="421" y="61" type="line" smooth="yes"/>
      <point x="435" y="61"/>
      <point x="444" y="76"/>
      <point x="445" y="84" type="curve" smooth="yes"/>
      <point x="458" y="199" type="line"/>
      <point x="538" y="199" type="line"/>
    </contour>
    <contour>
      <point x="683" y="340" type="curve" smooth="yes"/>
      <point x="683" y="307"/>
      <point x="657" y="281"/>
      <point x="624" y="281" type="curve" smooth="yes"/>
      <point x="591" y="281"/>
      <point x="565" y="307"/>
      <point x="565" y="340" type="curve" smooth="yes"/>
      <point x="565" y="373"/>
      <point x="591" y="399"/>
      <point x="624" y="399" type="curve" smooth="yes"/>
      <point x="657" y="399"/>
      <point x="683" y="373"/>
    </contour>
  </outline>
</glyph>
<glyph name="Nacute" format="1">
  <advance width="744"/>
  <unicode hex="0143"/>
  <outline>
    <contour>
      <point x="715" y="620" type="line"/>
      <point x="661" y="615" type="line" smooth="yes"/>
      <point x="650" y="614"/>
      <point x="639" y="606"/>
      <point x="639" y="593" type="curve" smooth="yes"/>
      <point x="639" y="0" type="line"/>
      <point x="517" y="0" type="line"/>
      <point x="180" y="529" type="line"/>
      <point x="180" y="78" type="line" smooth="yes"/>
      <point x="180" y="65"/>
      <point x="191" y="57"/>
      <point x="202" y="56" type="curve" smooth="yes"/>
      <point x="258" y="51" type="line"/>
      <point x="258" y="0" type="line"/>
      <point x="27" y="0" type="line"/>
      <point x="27" y="51" type="line"/>
      <point x="82" y="56" type="line" smooth="yes"/>
      <point x="94" y="57"/>
      <point x="104" y="65"/>
      <point x="104" y="78" type="curve" smooth="yes"/>
      <point x="104" y="593" type="line" smooth="yes"/>
      <point x="104" y="606"/>
      <point x="94" y="614"/>
      <point x="82" y="615" type="curve" smooth="yes"/>
      <point x="28" y="620" type="line"/>
      <point x="28" y="671" type="line"/>
      <point x="275" y="671" type="line"/>
      <point x="275" y="644" type="line"/>
      <point x="563" y="193" type="line"/>
      <point x="563" y="593" type="line" smooth="yes"/>
      <point x="563" y="606"/>
      <point x="552" y="614"/>
      <point x="540" y="615" type="curve" smooth="yes"/>
      <point x="483" y="620" type="line"/>
      <point x="483" y="671" type="line"/>
      <point x="715" y="671" type="line"/>
    </contour>
    <contour>
      <point x="532" y="876" type="curve" smooth="yes"/>
      <point x="532" y="863"/>
      <point x="520" y="842"/>
      <point x="506" y="834" type="curve" smooth="yes"/>
      <point x="344" y="746" type="line"/>
      <point x="274" y="746" type="line"/>
      <point x="411" y="897" type="line" smooth="yes"/>
      <point x="434" y="922"/>
      <point x="447" y="929"/>
      <point x="474" y="929" type="curve" smooth="yes"/>
      <point x="517" y="929"/>
      <point x="532" y="900"/>
    </contour>
  </outline>
</glyph>
<glyph name="Ncedilla" format="1">
  <advance width="744"/>
  <unicode hex="0145"/>
  <outline>
    <contour>
      <point x="715" y="620" type="line"/>
      <point x="661" y="615" type="line" smooth="yes"/>
      <point x="650" y="614"/>
      <point x="639" y="606"/>
      <point x="639" y="593" type="curve" smooth="yes"/>
      <point x="639" y="0" type="line"/>
      <point x="517" y="0" type="line"/>
      <point x="180" y="529" type="line"/>
      <point x="180" y="78" type="line" smooth="yes"/>
      <point x="180" y="65"/>
      <point x="191" y="57"/>
      <point x="202" y="56" type="curve" smooth="yes"/>
      <point x="258" y="51" type="line"/>
      <point x="258" y="0" type="line"/>
      <point x="27" y="0" type="line"/>
      <point x="27" y="51" type="line"/>
      <point x="82" y="56" type="line" smooth="yes"/>
      <point x="94" y="57"/>
      <point x="104" y="65"/>
      <point x="104" y="78" type="curve" smooth="yes"/>
      <point x="104" y="593" type="line" smooth="yes"/>
      <point x="104" y="606"/>
      <point x="94" y="614"/>
      <point x="82" y="615" type="curve" smooth="yes"/>
      <point x="28" y="620" type="line"/>
      <point x="28" y="671" type="line"/>
      <point x="275" y="671" type="line"/>
      <point x="275" y="644" type="line"/>
      <point x="563" y="193" type="line"/>
      <point x="563" y="593" type="line" smooth="yes"/>
      <point x="563" y="606"/>
      <point x="552" y="614"/>
      <point x="540" y="615" type="curve" smooth="yes"/>
      <point x="483" y="620" type="line"/>
      <point x="483" y="671" type="line"/>
      <point x="715" y="671" type="line"/>
    </contour>
    <contour>
      <point x="448" y="-146" type="curve" smooth="yes"/>
      <point x="448" y="-214"/>
      <point x="383" y="-262"/>
      <point x="306" y="-277" type="curve"/>
      <point x="306" y="-237" type="line"/>
      <point x="345" y="-226"/>
      <point x="377" y="-195"/>
      <point x="377" y="-163" type="curve"/>
      <point x="314" y="-163" type="line"/>
      <point x="301" y="-151"/>
      <point x="294" y="-135"/>
      <point x="294" y="-119" type="curve" smooth="yes"/>
      <point x="294" y="-80"/>
      <point x="327" y="-61"/>
      <point x="362" y="-61" type="curve" smooth="yes"/>
      <point x="413" y="-61"/>
      <point x="448" y="-99"/>
    </contour>
  </outline>
</glyph>
<glyph name="Ncaron" format="1">
  <advance width="744"/>
  <unicode hex="0147"/>
  <outline>
    <contour>
      <point x="715" y="620" type="line"/>
      <point x="661" y="615" type="line" smooth="yes"/>
      <point x="650" y="614"/>
      <point x="639" y="606"/>
      <point x="639" y="593" type="curve" smooth="yes"/>
      <point x="639" y="0" type="line"/>
      <point x="517" y="0" type="line"/>
      <point x="180" y="529" type="line"/>
      <point x="180" y="78" type="line" smooth="yes"/>
      <point x="180" y="65"/>
      <point x="191" y="57"/>
      <point x="202" y="56" type="curve" smooth="yes"/>
      <point x="258" y="51" type="line"/>
      <point x="258" y="0" type="line"/>
      <point x="27" y="0" type="line"/>
      <point x="27" y="51" type="line"/>
      <point x="82" y="56" type="line" smooth="yes"/>
      <point x="94" y="57"/>
      <point x="104" y="65"/>
      <point x="104" y="78" type="curve" smooth="yes"/>
      <point x="104" y="593" type="line" smooth="yes"/>
      <point x="104" y="606"/>
      <point x="94" y="614"/>
      <point x="82" y="615" type="curve" smooth="yes"/>
      <point x="28" y="620" type="line"/>
      <point x="28" y="671" type="line"/>
      <point x="275" y="671" type="line"/>
      <point x="275" y="644" type="line"/>
      <point x="563" y="193" type="line"/>
      <point x="563" y="593" type="line" smooth="yes"/>
      <point x="563" y="606"/>
      <point x="552" y="614"/>
      <point x="540" y="615" type="curve" smooth="yes"/>
      <point x="483" y="620" type="line"/>
      <point x="483" y="671" type="line"/>
      <point x="715" y="671" type="line"/>
    </contour>
    <contour>
      <point x="541" y="917" type="line"/>
      <point x="430" y="746" type="line"/>
      <point x="312" y="746" type="line"/>
      <point x="201" y="917" type="line"/>
      <point x="284" y="917" type="line"/>
      <point x="371" y="823" type="line"/>
      <point x="458" y="917" type="line"/>
    </contour>
  </outline>
</glyph>
<glyph name="eng" format="1">
  <advance width="625"/>
  <unicode hex="014B"/>
  <outline>
    <contour>
      <point x="545" y="-11" type="line" smooth="yes"/>
      <point x="545" y="-133"/>
      <point x="460" y="-231"/>
      <point x="302" y="-231" type="curve" smooth="yes"/>
      <point x="257" y="-231"/>
      <point x="194" y="-204"/>
      <point x="194" y="-153" type="curve" smooth="yes"/>
      <point x="194" y="-121"/>
      <point x="218" y="-81"/>
      <point x="257" y="-81" type="curve"/>
      <point x="361" y="-181" type="line"/>
      <point x="383" y="-181"/>
      <point x="412" y="-160"/>
      <point x="412" y="-42" type="curve" smooth="yes"/>
      <point x="412" y="308" type="line" smooth="yes"/>
      <point x="412" y="359"/>
      <point x="380" y="408"/>
      <point x="320" y="408" type="curve" smooth="yes"/>
      <point x="265" y="408"/>
      <point x="224" y="395"/>
      <point x="224" y="395" type="curve"/>
      <point x="224" y="73" type="line" smooth="yes"/>
      <point x="224" y="61"/>
      <point x="235" y="51"/>
      <point x="247" y="50" type="curve" smooth="yes"/>
      <point x="277" y="47" type="line"/>
      <point x="277" y="0" type="line"/>
      <point x="32" y="0" type="line"/>
      <point x="32" y="47" type="line"/>
      <point x="68" y="50" type="line" smooth="yes"/>
      <point x="80" y="51"/>
      <point x="90" y="61"/>
      <point x="90" y="73" type="curve" smooth="yes"/>
      <point x="90" y="408" type="line"/>
      <point x="21" y="408" type="line"/>
      <point x="21" y="449" type="line"/>
      <point x="172" y="500" type="line"/>
      <point x="224" y="500" type="line"/>
      <point x="224" y="439" type="line"/>
      <point x="224" y="439"/>
      <point x="313" y="500"/>
      <point x="399" y="500" type="curve" smooth="yes"/>
      <point x="514" y="500"/>
      <point x="545" y="413"/>
      <point x="545" y="326" type="curve" smooth="yes"/>
    </contour>
  </outline>
</glyph>
<glyph name="omacron" format="1">
  <advance width="583"/>
  <unicode hex="014D"/>
  <outline>
    <contour>
      <point x="553" y="241" type="curve" smooth="yes"/>
      <point x="553" y="92"/>
      <point x="455" y="-12"/>
      <point x="289" y="-12" type="curve" smooth="yes"/>
      <point x="137" y="-12"/>
      <point x="32" y="84"/>
      <point x="32" y="242" type="curve" smooth="yes"/>
      <point x="32" y="406"/>
      <point x="141" y="500"/>
      <point x="296" y="500" type="curve" smooth="yes"/>
      <point x="461" y="500"/>
      <point x="553" y="393"/>
    </contour>
    <contour>
      <point x="404" y="242" type="curve" smooth="yes"/>
      <point x="404" y="327"/>
      <point x="384" y="443"/>
      <point x="292" y="443" type="curve" smooth="yes"/>
      <point x="202" y="443"/>
      <point x="182" y="332"/>
      <point x="182" y="246" type="curve" smooth="yes"/>
      <point x="182" y="160"/>
      <point x="200" y="44"/>
      <point x="293" y="44" type="curve" smooth="yes"/>
      <point x="384" y="44"/>
      <point x="404" y="153"/>
    </contour>
    <contour>
      <point x="462" y="586" type="line"/>
      <point x="123" y="586" type="line"/>
      <point x="123" y="667" type="line"/>
      <point x="462" y="667" type="line"/>
    </contour>
  </outline>
</glyph>
<glyph name="OE" format="1">
  <advance width="1012"/>
  <unicode hex="0152"/>
  <outline>
    <contour>
      <point x="981" y="0" type="line"/>
      <point x="535" y="0" type="line"/>
      <point x="535" y="92" type="line" smooth="yes"/>
      <point x="532" y="87"/>
      <point x="469" y="-12"/>
      <point x="333" y="-12" type="curve" smooth="yes"/>
      <point x="140" y="-12"/>
      <point x="37" y="160"/>
      <point x="37" y="335" type="curve" smooth="yes"/>
      <point x="37" y="469"/>
      <point x="93" y="682"/>
      <point x="354" y="682" type="curve" smooth="yes"/>
      <point x="483" y="682"/>
      <point x="533" y="591"/>
      <point x="535" y="586" type="curve" smooth="yes"/>
      <point x="535" y="671" type="line"/>
      <point x="950" y="671" type="line"/>
      <point x="950" y="511" type="line"/>
      <point x="876" y="511" type="line"/>
      <point x="863" y="594" type="line" smooth="yes"/>
      <point x="861" y="604"/>
      <point x="855" y="613"/>
      <point x="846" y="613" type="curve" smooth="yes"/>
      <point x="666" y="613" type="line"/>
      <point x="666" y="378" type="line"/>
      <point x="776" y="378" type="line" smooth="yes"/>
      <point x="785" y="378"/>
      <point x="793" y="389"/>
      <point x="793" y="396" type="curve" smooth="yes"/>
      <point x="801" y="464" type="line"/>
      <point x="863" y="464" type="line"/>
      <point x="863" y="229" type="line"/>
      <point x="802" y="229" type="line"/>
      <point x="793" y="297" type="line" smooth="yes"/>
      <point x="793" y="304"/>
      <point x="784" y="315"/>
      <point x="775" y="315" type="curve" smooth="yes"/>
      <point x="666" y="315" type="line"/>
      <point x="666" y="60" type="line"/>
      <point x="875" y="60" type="line" smooth="yes"/>
      <point x="883" y="60"/>
      <point x="892" y="72"/>
      <point x="894" y="79" type="curve" smooth="yes"/>
      <point x="909" y="183" type="line"/>
      <point x="981" y="183" type="line"/>
    </contour>
    <contour>
      <point x="537" y="330" type="curve" smooth="yes"/>
      <point x="537" y="479"/>
      <point x="482" y="614"/>
      <point x="372" y="614" type="curve" smooth="yes"/>
      <point x="233" y="614"/>
      <point x="194" y="459"/>
      <point x="194" y="337" type="curve" smooth="yes"/>
      <point x="194" y="205"/>
      <point x="244" y="58"/>
      <point x="365" y="58" type="curve" smooth="yes"/>
      <point x="473" y="58"/>
      <point x="537" y="172"/>
    </contour>
  </outline>
</glyph>
<glyph name="Scedilla" format="1">
  <advance width="536"/>
  <unicode hex="015E"/>
  <outline>
    <contour>
      <point x="499" y="196" type="curve" smooth="yes"/>
      <point x="499" y="55"/>
      <point x="373" y="-16"/>
      <point x="232" y="-16" type="curve" smooth="yes"/>
      <point x="128" y="-16"/>
      <point x="37" y="22"/>
      <point x="37" y="22" type="curve"/>
      <point x="37" y="205" type="line"/>
      <point x="116" y="205" type="line"/>
      <point x="133" y="84" type="line" smooth="yes"/>
      <point x="134" y="76"/>
      <point x="143" y="69"/>
      <point x="146" y="69" type="curve" smooth="yes"/>
      <point x="146" y="69"/>
      <point x="185" y="52"/>
      <point x="223" y="52" type="curve" smooth="yes"/>
      <point x="282" y="52"/>
      <point x="352" y="79"/>
      <point x="352" y="146" type="curve" smooth="yes"/>
      <point x="352" y="229"/>
      <point x="266" y="263"/>
      <point x="187" y="306" type="curve" smooth="yes"/>
      <point x="116" y="344"/>
      <point x="51" y="390"/>
      <point x="51" y="484" type="curve" smooth="yes"/>
      <point x="51" y="614"/>
      <point x="163" y="687"/>
      <point x="292" y="687" type="curve" smooth="yes"/>
      <point x="394" y="687"/>
      <point x="481" y="647"/>
      <point x="481" y="647" type="curve"/>
      <point x="481" y="483" type="line"/>
      <point x="404" y="483" type="line"/>
      <point x="387" y="590" type="line" smooth="yes"/>
      <point x="386" y="595"/>
      <point x="373" y="604"/>
      <point x="373" y="604" type="curve"/>
      <point x="373" y="604"/>
      <point x="356" y="620"/>
      <point x="313" y="620" type="curve" smooth="yes"/>
      <point x="247" y="620"/>
      <point x="190" y="589"/>
      <point x="190" y="530" type="curve" smooth="yes"/>
      <point x="190" y="459"/>
      <point x="255" y="426"/>
      <point x="325" y="391" type="curve" smooth="yes"/>
      <point x="408" y="349"/>
      <point x="499" y="306"/>
    </contour>
    <contour>
      <point x="396" y="-131" type="curve" smooth="yes"/>
      <point x="396" y="-196"/>
      <point x="344" y="-231"/>
      <point x="273" y="-231" type="curve" smooth="yes"/>
      <point x="232" y="-231"/>
      <point x="192" y="-220"/>
      <point x="192" y="-220" type="curve"/>
      <point x="192" y="-170" type="line"/>
      <point x="192" y="-170"/>
      <point x="231" y="-178"/>
      <point x="255" y="-178" type="curve" smooth="yes"/>
      <point x="281" y="-178"/>
      <point x="314" y="-172"/>
      <point x="314" y="-144" type="curve" smooth="yes"/>
      <point x="314" y="-120"/>
      <point x="294" y="-110"/>
      <point x="271" y="-110" type="curve" smooth="yes"/>
      <point x="264" y="-110"/>
      <point x="249" y="-112"/>
      <point x="249" y="-112" type="curve"/>
      <point x="249" y="25" type="line"/>
      <point x="298" y="25" type="line"/>
      <point x="298" y="-54" type="line"/>
      <point x="298" y="-54"/>
      <point x="302" y="-55"/>
      <point x="312" y="-55" type="curve" smooth="yes"/>
      <point x="358" y="-55"/>
      <point x="396" y="-78"/>
    </contour>
  </outline>
</glyph>
<glyph name="uni0163" format="1">
  <advance width="375"/>
  <unicode hex="0163"/>
  <outline>
    <contour>
      <point x="371" y="22" type="line"/>
      <point x="371" y="22"/>
      <point x="292" y="-12"/>
      <point x="211" y="-12" type="curve" smooth="yes"/>
      <point x="122" y="-12"/>
      <point x="90" y="27"/>
      <point x="90" y="111" type="curve" smooth="yes"/>
      <point x="90" y="424" type="line"/>
      <point x="24" y="424" type="line"/>
      <point x="24" y="464" type="line"/>
      <point x="101" y="510" type="line"/>
      <point x="155" y="616" type="line"/>
      <point x="224" y="616" type="line"/>
      <point x="224" y="488" type="line"/>
      <point x="363" y="488" type="line"/>
      <point x="363" y="424" type="line"/>
      <point x="224" y="424" type="line"/>
      <point x="224" y="152" type="line" smooth="yes"/>
      <point x="224" y="88"/>
      <point x="253" y="65"/>
      <point x="306" y="65" type="curve" smooth="yes"/>
      <point x="338" y="65"/>
      <point x="371" y="72"/>
      <point x="371" y="72" type="curve"/>
    </contour>
    <contour>
      <point x="321" y="-131" type="curve" smooth="yes"/>
      <point x="321" y="-196"/>
      <point x="269" y="-231"/>
      <point x="198" y="-231" type="curve" smooth="yes"/>
      <point x="157" y="-231"/>
      <point x="117" y="-220"/>
      <point x="117" y="-220" type="curve"/>
      <point x="117" y="-170" type="line"/>
      <point x="117" y="-170"/>
      <point x="156" y="-178"/>
      <point x="180" y="-178" type="curve" smooth="yes"/>
      <point x="206" y="-178"/>
      <point x="239" y="-172"/>
      <point x="239" y="-144" type="curve" smooth="yes"/>
      <point x="239" y="-120"/>
      <point x="218" y="-110"/>
      <point x="195" y="-110" type="curve" smooth="yes"/>
      <point x="188" y="-110"/>
      <point x="173" y="-112"/>
      <point x="173" y="-112" type="curve"/>
      <point x="173" y="25" type="line"/>
      <point x="223" y="25" type="line"/>
      <point x="223" y="-54" type="line"/>
      <point x="223" y="-54"/>
      <point x="227" y="-55"/>
      <point x="237" y="-55" type="curve" smooth="yes"/>
      <point x="283" y="-55"/>
      <point x="321" y="-78"/>
    </contour>
  </outline>
</glyph>
<glyph name="Ubreve" format="1">
  <advance width="729"/>
  <unicode hex="016C"/>
  <outline>
    <contour>
      <point x="703" y="620" type="line"/>
      <point x="650" y="615" type="line" smooth="yes"/>
      <point x="639" y="614"/>
      <point x="628" y="606"/>
      <point x="628" y="593" type="curve" smooth="yes"/>
      <point x="628" y="254" type="line" smooth="yes"/>
      <point x="628" y="57"/>
      <point x="541" y="-16"/>
      <point x="354" y="-16" type="curve" smooth="yes"/>
      <point x="182" y="-16"/>
      <point x="99" y="78"/>
      <point x="99" y="254" type="curve" smooth="yes"/>
      <point x="99" y="593" type="line" smooth="yes"/>
      <point x="99" y="606"/>
      <point x="88" y="614"/>
      <point x="76" y="615" type="curve" smooth="yes"/>
      <point x="22" y="620" type="line"/>
      <point x="22" y="671" type="line"/>
      <point x="318" y="671" type="line"/>
      <point x="318" y="620" type="line"/>
      <point x="264" y="615" type="line" smooth="yes"/>
      <point x="253" y="614"/>
      <point x="242" y="606"/>
      <point x="242" y="593" type="curve" smooth="yes"/>
      <point x="242" y="246" type="line" smooth="yes"/>
      <point x="242" y="121"/>
      <point x="294" y="67"/>
      <point x="404" y="67" type="curve" smooth="yes"/>
      <point x="509" y="67"/>
      <point x="552" y="138"/>
      <point x="552" y="246" type="curve" smooth="yes"/>
      <point x="552" y="593" type="line" smooth="yes"/>
      <point x="552" y="606"/>
      <point x="542" y="614"/>
      <point x="530" y="615" type="curve" smooth="yes"/>
      <point x="473" y="620" type="line"/>
      <point x="473" y="671" type="line"/>
      <point x="703" y="671" type="line"/>
    </contour>
    <contour>
      <point x="528" y="909" type="line"/>
      <point x="528" y="819"/>
      <point x="476" y="746"/>
      <point x="371" y="746" type="curve" smooth="yes"/>
      <point x="266" y="746"/>
      <point x="215" y="819"/>
      <point x="215" y="909" type="curve"/>
      <point x="267" y="909" type="line"/>
      <point x="280" y="849"/>
      <point x="327" y="827"/>
      <point x="371" y="827" type="curve" smooth="yes"/>
      <point x="416" y="827"/>
      <point x="462" y="849"/>
      <point x="475" y="909" type="curve"/>
    </contour>
  </outline>
</glyph>
<glyph name="uring" format="1">
  <advance width="620"/>
  <unicode hex="016F"/>
  <outline>
    <contour>
      <point x="597" y="0" type="line"/>
      <point x="396" y="0" type="line"/>
      <point x="396" y="55" type="line"/>
      <point x="396" y="55"/>
      <point x="311" y="-12"/>
      <point x="238" y="-12" type="curve" smooth="yes"/>
      <point x="124" y="-12"/>
      <point x="90" y="49"/>
      <point x="90" y="151" type="curve" smooth="yes"/>
      <point x="90" y="409" type="line"/>
      <point x="25" y="409" type="line"/>
      <point x="25" y="450" type="line"/>
      <point x="172" y="500" type="line"/>
      <point x="224" y="500" type="line"/>
      <point x="224" y="190" type="line" smooth="yes"/>
      <point x="224" y="141"/>
      <point x="231" y="79"/>
      <point x="316" y="79" type="curve" smooth="yes"/>
      <point x="358" y="79"/>
      <point x="396" y="96"/>
      <point x="396" y="96" type="curve"/>
      <point x="396" y="409" type="line"/>
      <point x="333" y="409" type="line"/>
      <point x="333" y="450" type="line"/>
      <point x="479" y="500" type="line"/>
      <point x="530" y="500" type="line"/>
      <point x="530" y="73" type="line" smooth="yes"/>
      <point x="530" y="61"/>
      <point x="541" y="51"/>
      <point x="553" y="50" type="curve" smooth="yes"/>
      <point x="597" y="47" type="line"/>
    </contour>
    <contour>
      <point x="438" y="677" type="curve" smooth="yes"/>
      <point x="438" y="607"/>
      <point x="381" y="551"/>
      <point x="311" y="551" type="curve" smooth="yes"/>
      <point x="242" y="551"/>
      <point x="185" y="607"/>
      <point x="185" y="677" type="curve" smooth="yes"/>
      <point x="185" y="747"/>
      <point x="242" y="803"/>
      <point x="311" y="803" type="curve" smooth="yes"/>
      <point x="381" y="803"/>
      <point x="438" y="747"/>
    </contour>
    <contour>
      <point x="374" y="677" type="curve" smooth="yes"/>
      <point x="374" y="712"/>
      <point x="346" y="740"/>
      <point x="311" y="740" type="curve" smooth="yes"/>
      <point x="277" y="740"/>
      <point x="248" y="712"/>
      <point x="248" y="677" type="curve" smooth="yes"/>
      <point x="248" y="642"/>
      <point x="277" y="614"/>
      <point x="311" y="614" type="curve" smooth="yes"/>
      <point x="346" y="614"/>
      <point x="374" y="642"/>
    </contour>
  </outline>
</glyph>
<glyph name="Uhungarumlaut" format="1">
  <advance width="729"/>
  <unicode hex="0170"/>
  <outline>
    <contour>
      <point x="703" y="620" type="line"/>
      <point x="650" y="615" type="line" smooth="yes"/>
      <point x="639" y="614"/>
      <point x="628" y="606"/>
      <point x="628" y="593" type="curve" smooth="yes"/>
      <point x="628" y="254" type="line" smooth="yes"/>
      <point x="628" y="57"/>
      <point x="541" y="-16"/>
      <point x="354" y="-16" type="curve" smooth="yes"/>
      <point x="182" y="-16"/>
      <point x="99" y="78"/>
      <point x="99" y="254" type="curve" smooth="yes"/>
      <point x="99" y="593" type="line" smooth="yes"/>
      <point x="99" y="606"/>
      <point x="88" y="614"/>
      <point x="76" y="615" type="curve" smooth="yes"/>
      <point x="22" y="620" type="line"/>
      <point x="22" y="671" type="line"/>
      <point x="318" y="671" type="line"/>
      <point x="318" y="620" type="line"/>
      <point x="264" y="615" type="line" smooth="yes"/>
      <point x="253" y="614"/>
      <point x="242" y="606"/>
      <point x="242" y="593" type="curve" smooth="yes"/>
      <point x="242" y="246" type="line" smooth="yes"/>
      <point x="242" y="121"/>
      <point x="294" y="67"/>
      <point x="404" y="67" type="curve" smooth="yes"/>
      <point x="509" y="67"/>
      <point x="552" y="138"/>
      <point x="552" y="246" type="curve" smooth="yes"/>
      <point x="552" y="593" type="line" smooth="yes"/>
      <point x="552" y="606"/>
      <point x="542" y="614"/>
      <point x="530" y="615" type="curve" smooth="yes"/>
      <point x="473" y="620" type="line"/>
      <point x="473" y="671" type="line"/>
      <point x="703" y="671" type="line"/>
    </contour>
    <contour>
      <point x="650" y="876" type="curve" smooth="yes"/>
      <point x="650" y="863"/>
      <point x="639" y="842"/>
      <point x="624" y="834" type="curve" smooth="yes"/>
      <point x="463" y="746" type="line"/>
      <point x="393" y="746" type="line"/>
      <point x="530" y="897" type="line" smooth="yes"/>
      <point x="552" y="922"/>
      <point x="566" y="929"/>
      <point x="593" y="929" type="curve" smooth="yes"/>
      <point x="636" y="929"/>
      <point x="650" y="900"/>
    </contour>
    <contour>
      <point x="435" y="876" type="curve" smooth="yes"/>
      <point x="435" y="863"/>
      <point x="424" y="842"/>
      <point x="409" y="834" type="curve" smooth="yes"/>
      <point x="248" y="746" type="line"/>
      <point x="178" y="746" type="line"/>
      <point x="315" y="897" type="line" smooth="yes"/>
      <point x="337" y="922"/>
      <point x="351" y="929"/>
      <point x="378" y="929" type="curve" smooth="yes"/>
      <point x="421" y="929"/>
      <point x="435" y="900"/>
    </contour>
  </outline>
</glyph>
<glyph name="Ydieresis" format="1">
  <advance width="663"/>
  <unicode hex="0178"/>
  <outline>
    <contour>
      <point x="653" y="620" type="line"/>
      <point x="595" y="611" type="line"/>
      <point x="410" y="290" type="line"/>
      <point x="410" y="78" type="line" smooth="yes"/>
      <point x="410" y="65"/>
      <point x="420" y="57"/>
      <point x="432" y="56" type="curve" smooth="yes"/>
      <point x="493" y="51" type="line"/>
      <point x="493" y="0" type="line"/>
      <point x="183" y="0" type="line"/>
      <point x="183" y="51" type="line"/>
      <point x="244" y="56" type="line" smooth="yes"/>
      <point x="255" y="57"/>
      <point x="267" y="65"/>
      <point x="267" y="78" type="curve" smooth="yes"/>
      <point x="267" y="262" type="line"/>
      <point x="74" y="611" type="line"/>
      <point x="10" y="620" type="line"/>
      <point x="10" y="671" type="line"/>
      <point x="294" y="671" type="line"/>
      <point x="294" y="620" type="line"/>
      <point x="241" y="615" type="line" smooth="yes"/>
      <point x="234" y="615"/>
      <point x="229" y="604"/>
      <point x="236" y="591" type="curve" smooth="yes"/>
      <point x="362" y="354" type="line"/>
      <point x="498" y="592" type="line" smooth="yes"/>
      <point x="505" y="604"/>
      <point x="502" y="616"/>
      <point x="493" y="616" type="curve" smooth="yes"/>
      <point x="432" y="620" type="line"/>
      <point x="432" y="671" type="line"/>
      <point x="653" y="671" type="line"/>
    </contour>
    <contour>
      <point x="505" y="849" type="curve" smooth="yes"/>
      <point x="505" y="811"/>
      <point x="474" y="780"/>
      <point x="436" y="780" type="curve" smooth="yes"/>
      <point x="398" y="780"/>
      <point x="367" y="811"/>
      <point x="367" y="849" type="curve" smooth="yes"/>
      <point x="367" y="887"/>
      <point x="398" y="918"/>
      <point x="436" y="918" type="curve" smooth="yes"/>
      <point x="474" y="918"/>
      <point x="505" y="887"/>
    </contour>
    <contour>
      <point x="295" y="849" type="curve" smooth="yes"/>
      <point x="295" y="811"/>
      <point x="264" y="780"/>
      <point x="226" y="780" type="curve" smooth="yes"/>
      <point x="188" y="780"/>
      <point x="157" y="811"/>
      <point x="157" y="849" type="curve" smooth="yes"/>
      <point x="157" y="887"/>
      <point x="188" y="918"/>
      <point x="226" y="918" type="curve" smooth="yes"/>
      <point x="264" y="918"/>
      <point x="295" y="887"/>
    </contour>
  </outline>
</glyph>
<glyph name="zacute" format="1">
  <advance width="491"/>
  <unicode hex="017A"/>
  <outline>
    <contour>
      <point x="459" y="0" type="line"/>
      <point x="32" y="0" type="line"/>
      <point x="32" y="65" type="line"/>
      <point x="288" y="431" type="line"/>
      <point x="137" y="431" type="line" smooth="yes"/>
      <point x="127" y="431"/>
      <point x="118" y="419"/>
      <point x="118" y="410" type="curve" smooth="yes"/>
      <point x="111" y="333" type="line"/>
      <point x="40" y="333" type="line"/>
      <point x="40" y="488" type="line"/>
      <point x="445" y="488" type="line"/>
      <point x="445" y="432" type="line"/>
      <point x="183" y="59" type="line"/>
      <point x="355" y="59" type="line" smooth="yes"/>
      <point x="364" y="59"/>
      <point x="375" y="73"/>
      <point x="377" y="83" type="curve" smooth="yes"/>
      <point x="390" y="168" type="line"/>
      <point x="459" y="168" type="line"/>
    </contour>
    <contour>
      <point x="412" y="681" type="curve" smooth="yes"/>
      <point x="412" y="668"/>
      <point x="400" y="647"/>
      <point x="386" y="639" type="curve" smooth="yes"/>
      <point x="224" y="551" type="line"/>
      <point x="154" y="551" type="line"/>
      <point x="291" y="702" type="line" smooth="yes"/>
      <point x="314" y="727"/>
      <point x="327" y="734"/>
      <point x="354" y="734" type="curve" smooth="yes"/>
      <point x="397" y="734"/>
      <point x="412" y="705"/>
    </contour>
  </outline>
</glyph>
<glyph name="uni0180" format="1">
  <advance width="598"/>
  <unicode hex="0180"/>
  <outline>
    <contour>
      <point x="566" y="274" type="curve" smooth="yes"/>
      <point x="566" y="120"/>
      <point x="460" y="0"/>
      <point x="273" y="0" type="curve" smooth="yes"/>
      <point x="90" y="0" type="line"/>
      <point x="90" y="533" type="line"/>
      <point x="5" y="533" type="line"/>
      <point x="5" y="596" type="line"/>
      <point x="90" y="596" type="line"/>
      <point x="90" y="649" type="line"/>
      <point x="20" y="649" type="line"/>
      <point x="20" y="690" type="line"/>
      <point x="173" y="740" type="line"/>
      <point x="224" y="740" type="line"/>
      <point x="224" y="596" type="line"/>
      <point x="328" y="596" type="line"/>
      <point x="328" y="533" type="line"/>
      <point x="224" y="533" type="line"/>
      <point x="224" y="454" type="line"/>
      <point x="224" y="454"/>
      <point x="294" y="500"/>
      <point x="369" y="500" type="curve" smooth="yes"/>
      <point x="476" y="500"/>
      <point x="566" y="417"/>
    </contour>
    <contour>
      <point x="421" y="244" type="curve" smooth="yes"/>
      <point x="421" y="352"/>
      <point x="371" y="417"/>
      <point x="277" y="417" type="curve" smooth="yes"/>
      <point x="253" y="417"/>
      <point x="224" y="411"/>
      <point x="224" y="411" type="curve"/>
      <point x="224" y="56" type="line"/>
      <point x="236" y="56"/>
      <point x="239" y="55"/>
      <point x="245" y="55" type="curve" smooth="yes"/>
      <point x="356" y="55"/>
      <point x="421" y="102"/>
    </contour>
  </outline>
</glyph>
<glyph name="uni018F" format="1">
  <advance width="679"/>
  <unicode hex="018F"/>
  <outline>
    <contour>
      <point x="642" y="332" type="curve" smooth="yes"/>
      <point x="642" y="137"/>
      <point x="512" y="-16"/>
      <point x="314" y="-16" type="curve" smooth="yes"/>
      <point x="110" y="-16"/>
      <point x="37" y="149"/>
      <point x="37" y="301" type="curve" smooth="yes"/>
      <point x="37" y="332" type="line"/>
      <point x="481" y="332" type="line"/>
      <point x="481" y="474"/>
      <point x="434" y="615"/>
      <point x="308" y="615" type="curve" smooth="yes"/>
      <point x="176" y="615"/>
      <point x="86" y="521"/>
      <point x="51" y="477" type="curve"/>
      <point x="51" y="581" type="line"/>
      <point x="51" y="581"/>
      <point x="130" y="686"/>
      <point x="296" y="686" type="curve" smooth="yes"/>
      <point x="517" y="686"/>
      <point x="642" y="513"/>
    </contour>
    <contour>
      <point x="475" y="259" type="curve"/>
      <point x="202" y="259" type="line"/>
      <point x="202" y="218" type="line" smooth="yes"/>
      <point x="202" y="134"/>
      <point x="252" y="59"/>
      <point x="328" y="59" type="curve" smooth="yes"/>
      <point x="425" y="59"/>
      <point x="474" y="178"/>
    </contour>
  </outline>
</glyph>
<glyph name="uni0190" format="1">
  <advance width="618"/>
  <unicode hex="0190"/>
  <outline>
    <contour>
      <point x="584" y="130" type="curve" smooth="yes"/>
      <point x="584" y="39"/>
      <point x="408" y="-16"/>
      <point x="287" y="-16" type="curve" smooth="yes"/>
      <point x="111" y="-16"/>
      <point x="37" y="76"/>
      <point x="37" y="189" type="curve" smooth="yes"/>
      <point x="37" y="306"/>
      <point x="114" y="353"/>
      <point x="220" y="357" type="curve"/>
      <point x="142" y="381"/>
      <point x="76" y="422"/>
      <point x="76" y="518" type="curve" smooth="yes"/>
      <point x="76" y="652"/>
      <point x="181" y="687"/>
      <point x="336" y="687" type="curve" smooth="yes"/>
      <point x="489" y="687"/>
      <point x="556" y="639"/>
      <point x="556" y="568" type="curve" smooth="yes"/>
      <point x="556" y="517"/>
      <point x="520" y="501"/>
      <point x="483" y="501" type="curve" smooth="yes"/>
      <point x="471" y="501"/>
      <point x="430" y="510"/>
      <point x="430" y="510" type="curve"/>
      <point x="430" y="609" type="line"/>
      <point x="402" y="629"/>
      <point x="373" y="632"/>
      <point x="353" y="632" type="curve" smooth="yes"/>
      <point x="258" y="632"/>
      <point x="223" y="584"/>
      <point x="223" y="508" type="curve" smooth="yes"/>
      <point x="223" y="440"/>
      <point x="252" y="372"/>
      <point x="371" y="372" type="curve"/>
      <point x="408" y="374" type="line"/>
      <point x="408" y="314" type="line"/>
      <point x="408" y="314"/>
      <point x="348" y="316"/>
      <point x="343" y="316" type="curve" smooth="yes"/>
      <point x="233" y="316"/>
      <point x="188" y="264"/>
      <point x="188" y="175" type="curve" smooth="yes"/>
      <point x="188" y="111"/>
      <point x="206" y="48"/>
      <point x="360" y="46" type="curve" smooth="yes"/>
      <point x="401" y="45"/>
      <point x="415" y="53"/>
      <point x="430" y="69" type="curve"/>
      <point x="477" y="197" type="line"/>
      <point x="477" y="197"/>
      <point x="495" y="202"/>
      <point x="518" y="202" type="curve" smooth="yes"/>
      <point x="552" y="202"/>
      <point x="584" y="182"/>
    </contour>
  </outline>
</glyph>
<glyph name="uni0194" format="1">
  <advance width="695"/>
  <unicode hex="0194"/>
  <outline>
    <contour>
      <point x="686" y="620" type="line"/>
      <point x="623" y="612" type="line"/>
      <point x="406" y="271" type="line"/>
      <point x="472" y="152" type="line" smooth="yes"/>
      <point x="483" y="133"/>
      <point x="487" y="119"/>
      <point x="487" y="88" type="curve" smooth="yes"/>
      <point x="487" y="33"/>
      <point x="432" y="-16"/>
      <point x="345" y="-16" type="curve" smooth="yes"/>
      <point x="282" y="-16"/>
      <point x="209" y="0"/>
      <point x="209" y="73" type="curve" smooth="yes"/>
      <point x="209" y="104"/>
      <point x="221" y="131"/>
      <point x="229" y="143" type="curve" smooth="yes"/>
      <point x="284" y="224" type="line"/>
      <point x="74" y="611" type="line"/>
      <point x="10" y="620" type="line"/>
      <point x="10" y="671" type="line"/>
      <point x="295" y="671" type="line"/>
      <point x="295" y="620" type="line"/>
      <point x="239" y="613" type="line" smooth="yes"/>
      <point x="227" y="611"/>
      <point x="225" y="599"/>
      <point x="229" y="591" type="curve" smooth="yes"/>
      <point x="365" y="346" type="line"/>
      <point x="530" y="592" type="line" smooth="yes"/>
      <point x="534" y="599"/>
      <point x="531" y="611"/>
      <point x="516" y="613" type="curve" smooth="yes"/>
      <point x="462" y="620" type="line"/>
      <point x="462" y="671" type="line"/>
      <point x="686" y="671" type="line"/>
    </contour>
    <contour>
      <point x="355" y="79" type="curve" smooth="yes"/>
      <point x="355" y="89"/>
      <point x="352" y="98"/>
      <point x="345" y="111" type="curve" smooth="yes"/>
      <point x="326" y="145" type="line"/>
      <point x="304" y="111" type="line" smooth="yes"/>
      <point x="299" y="103"/>
      <point x="294" y="94"/>
      <point x="294" y="81" type="curve" smooth="yes"/>
      <point x="294" y="52"/>
      <point x="303" y="44"/>
      <point x="329" y="44" type="curve" smooth="yes"/>
      <point x="355" y="44"/>
      <point x="355" y="59"/>
    </contour>
  </outline>
</glyph>
<glyph name="uni0195" format="1">
  <advance width="922"/>
  <unicode hex="0195"/>
  <outline>
    <contour>
      <point x="402" y="144" type="curve" smooth="yes"/>
      <point x="402" y="309" type="line" smooth="yes"/>
      <point x="402" y="342"/>
      <point x="392" y="408"/>
      <point x="318" y="408" type="curve" smooth="yes"/>
      <point x="278" y="408"/>
      <point x="224" y="395"/>
      <point x="224" y="395" type="curve"/>
      <point x="224" y="73" type="line" smooth="yes"/>
      <point x="224" y="61"/>
      <point x="234" y="51"/>
      <point x="246" y="50" type="curve" smooth="yes"/>
      <point x="281" y="47" type="line"/>
      <point x="281" y="0" type="line"/>
      <point x="27" y="0" type="line"/>
      <point x="27" y="47" type="line"/>
      <point x="68" y="50" type="line" smooth="yes"/>
      <point x="80" y="51"/>
      <point x="90" y="61"/>
      <point x="90" y="73" type="curve" smooth="yes"/>
      <point x="90" y="649" type="line"/>
      <point x="19" y="649" type="line"/>
      <point x="19" y="690" type="line"/>
      <point x="172" y="740" type="line"/>
      <point x="224" y="740" type="line"/>
      <point x="224" y="438" type="line"/>
      <point x="224" y="438"/>
      <point x="321" y="500"/>
      <point x="399" y="500" type="curve" smooth="yes"/>
      <point x="517" y="500"/>
      <point x="536" y="402"/>
      <point x="536" y="343" type="curve" smooth="yes"/>
      <point x="536" y="137" type="line" smooth="yes"/>
      <point x="536" y="90"/>
      <point x="577" y="56"/>
      <point x="628" y="56" type="curve" smooth="yes"/>
      <point x="669" y="56"/>
      <point x="708" y="87"/>
      <point x="708" y="137" type="curve" smooth="yes"/>
      <point x="708" y="409" type="line"/>
      <point x="645" y="409" type="line"/>
      <point x="645" y="450" type="line"/>
      <point x="791" y="500" type="line"/>
      <point x="842" y="500" type="line"/>
      <point x="842" y="144" type="line" smooth="yes"/>
      <point x="842" y="43"/>
      <point x="727" y="-16"/>
      <point x="618" y="-16" type="curve" smooth="yes"/>
      <point x="497" y="-16"/>
      <point x="402" y="43"/>
    </contour>
  </outline>
</glyph>
<glyph name="Ohorn" format="1">
  <advance width="826"/>
  <unicode hex="01A0"/>
  <outline>
    <contour>
      <point x="812" y="698" type="curve" smooth="yes"/>
      <point x="812" y="616"/>
      <point x="758" y="546"/>
      <point x="675" y="512" type="curve"/>
      <point x="704" y="459"/>
      <point x="720" y="398"/>
      <point x="720" y="332" type="curve" smooth="yes"/>
      <point x="720" y="141"/>
      <point x="585" y="-16"/>
      <point x="384" y="-16" type="curve" smooth="yes"/>
      <point x="184" y="-16"/>
      <point x="37" y="113"/>
      <point x="37" y="340" type="curve" smooth="yes"/>
      <point x="37" y="537"/>
      <point x="162" y="687"/>
      <point x="375" y="687" type="curve" smooth="yes"/>
      <point x="491" y="687"/>
      <point x="585" y="637"/>
      <point x="645" y="559" type="curve"/>
      <point x="709" y="588"/>
      <point x="734" y="639"/>
      <point x="734" y="694" type="curve"/>
      <point x="644" y="694" type="line"/>
      <point x="644" y="694"/>
      <point x="604" y="725"/>
      <point x="604" y="761" type="curve" smooth="yes"/>
      <point x="604" y="813"/>
      <point x="654" y="848"/>
      <point x="697" y="848" type="curve" smooth="yes"/>
      <point x="789" y="848"/>
      <point x="812" y="796"/>
    </contour>
    <contour>
      <point x="559" y="328" type="curve" smooth="yes"/>
      <point x="559" y="485"/>
      <point x="500" y="620"/>
      <point x="384" y="620" type="curve" smooth="yes"/>
      <point x="245" y="620"/>
      <point x="197" y="471"/>
      <point x="197" y="337" type="curve" smooth="yes"/>
      <point x="197" y="195"/>
      <point x="251" y="47"/>
      <point x="374" y="47" type="curve" smooth="yes"/>
      <point x="508" y="47"/>
      <point x="559" y="199"/>
    </contour>
  </outline>
</glyph>
<glyph name="uni01A2" format="1">
  <advance width="1062"/>
  <unicode hex="01A2"/>
  <outline>
    <contour>
      <point x="1031" y="-166" type="line"/>
      <point x="1031" y="-218" type="line"/>
      <point x="682" y="-218" type="line"/>
      <point x="682" y="-166" type="line"/>
      <point x="767" y="-163" type="line" smooth="yes"/>
      <point x="778" y="-162"/>
      <point x="789" y="-154"/>
      <point x="789" y="-141" type="curve" smooth="yes"/>
      <point x="789" y="555" type="line"/>
      <point x="756" y="548"/>
      <point x="683" y="551"/>
      <point x="650" y="557" type="curve"/>
      <point x="650" y="166" type="line" smooth="yes"/>
      <point x="650" y="58"/>
      <point x="511" y="-16"/>
      <point x="383" y="-16" type="curve" smooth="yes"/>
      <point x="155" y="-16"/>
      <point x="36" y="143"/>
      <point x="36" y="336" type="curve" smooth="yes"/>
      <point x="36" y="538"/>
      <point x="156" y="687"/>
      <point x="378" y="687" type="curve" smooth="yes"/>
      <point x="561" y="687"/>
      <point x="611" y="650"/>
      <point x="711" y="650" type="curve" smooth="yes"/>
      <point x="763" y="650"/>
      <point x="799" y="659"/>
      <point x="856" y="687" type="curve"/>
      <point x="932" y="687" type="line"/>
      <point x="932" y="-141" type="line" smooth="yes"/>
      <point x="932" y="-152"/>
      <point x="941" y="-162"/>
      <point x="954" y="-163" type="curve" smooth="yes"/>
    </contour>
    <contour>
      <point x="507" y="188" type="curve" smooth="yes"/>
      <point x="507" y="590" type="line"/>
      <point x="455" y="614"/>
      <point x="441" y="620"/>
      <point x="383" y="620" type="curve" smooth="yes"/>
      <point x="254" y="620"/>
      <point x="196" y="486"/>
      <point x="196" y="337" type="curve" smooth="yes"/>
      <point x="196" y="167"/>
      <point x="264" y="47"/>
      <point x="373" y="47" type="curve" smooth="yes"/>
      <point x="426" y="47"/>
      <point x="507" y="80"/>
    </contour>
  </outline>
</glyph>
<glyph name="uni01A3" format="1">
  <advance width="858"/>
  <unicode hex="01A3"/>
  <outline>
    <contour>
      <point x="182" y="246" type="curve" smooth="yes"/>
      <point x="182" y="138"/>
      <point x="210" y="44"/>
      <point x="293" y="44" type="curve" smooth="yes"/>
      <point x="339" y="44"/>
      <point x="386" y="81"/>
      <point x="386" y="135" type="curve" smooth="yes"/>
      <point x="386" y="410" type="line"/>
      <point x="345" y="431"/>
      <point x="334" y="443"/>
      <point x="292" y="443" type="curve" smooth="yes"/>
      <point x="212" y="443"/>
      <point x="182" y="355"/>
    </contour>
    <contour>
      <point x="626" y="-145" type="curve" smooth="yes"/>
      <point x="626" y="384" type="line"/>
      <point x="600" y="379"/>
      <point x="538" y="379"/>
      <point x="512" y="384" type="curve"/>
      <point x="512" y="126" type="line" smooth="yes"/>
      <point x="512" y="47"/>
      <point x="403" y="-12"/>
      <point x="289" y="-12" type="curve" smooth="yes"/>
      <point x="132" y="-12"/>
      <point x="32" y="88"/>
      <point x="32" y="240" type="curve" smooth="yes"/>
      <point x="32" y="400"/>
      <point x="133" y="500"/>
      <point x="296" y="500" type="curve" smooth="yes"/>
      <point x="404" y="500"/>
      <point x="505" y="463"/>
      <point x="566" y="463" type="curve" smooth="yes"/>
      <point x="626" y="463"/>
      <point x="665" y="480"/>
      <point x="708" y="500" type="curve"/>
      <point x="759" y="500" type="line"/>
      <point x="759" y="-145" type="line" smooth="yes"/>
      <point x="759" y="-157"/>
      <point x="768" y="-168"/>
      <point x="780" y="-168" type="curve" smooth="yes"/>
      <point x="832" y="-171" type="line"/>
      <point x="832" y="-218" type="line"/>
      <point x="555" y="-218" type="line"/>
      <point x="555" y="-171" type="line"/>
      <point x="605" y="-168" type="line" smooth="yes"/>
      <point x="617" y="-168"/>
      <point x="626" y="-157"/>
    </contour>
  </outline>
</glyph>
<glyph name="uni01A5" format="1">
  <advance width="604"/>
  <unicode hex="01A5"/>
  <outline>
    <contour>
      <point x="572" y="258" type="curve" smooth="yes"/>
      <point x="572" y="96"/>
      <point x="467" y="-12"/>
      <point x="302" y="-12" type="curve" smooth="yes"/>
      <point x="262" y="-12"/>
      <point x="224" y="-2"/>
      <point x="224" y="-2" type="curve"/>
      <point x="224" y="-146" type="line" smooth="yes"/>
      <point x="224" y="-159"/>
      <point x="234" y="-169"/>
      <point x="246" y="-169" type="curve" smooth="yes"/>
      <point x="299" y="-172" type="line"/>
      <point x="299" y="-219" type="line"/>
      <point x="24" y="-219" type="line"/>
      <point x="24" y="-172" type="line"/>
      <point x="68" y="-169" type="line" smooth="yes"/>
      <point x="80" y="-169"/>
      <point x="90" y="-159"/>
      <point x="90" y="-146" type="curve" smooth="yes"/>
      <point x="90" y="500" type="line" smooth="yes"/>
      <point x="90" y="615"/>
      <point x="154" y="740"/>
      <point x="319" y="740" type="curve" smooth="yes"/>
      <point x="406" y="740"/>
      <point x="505" y="696"/>
      <point x="505" y="635" type="curve" smooth="yes"/>
      <point x="505" y="602"/>
      <point x="482" y="565"/>
      <point x="453" y="565" type="curve" smooth="yes"/>
      <point x="436" y="565"/>
      <point x="420" y="576"/>
      <point x="420" y="576" type="curve"/>
      <point x="380" y="671" type="line"/>
      <point x="380" y="671"/>
      <point x="357" y="678"/>
      <point x="341" y="678" type="curve" smooth="yes"/>
      <point x="286" y="678"/>
      <point x="224" y="625"/>
      <point x="224" y="500" type="curve" smooth="yes"/>
      <point x="224" y="437" type="line"/>
      <point x="224" y="437"/>
      <point x="304" y="500"/>
      <point x="385" y="500" type="curve" smooth="yes"/>
      <point x="507" y="500"/>
      <point x="572" y="377"/>
    </contour>
    <contour>
      <point x="424" y="243" type="curve" smooth="yes"/>
      <point x="424" y="331"/>
      <point x="385" y="409"/>
      <point x="298" y="409" type="curve" smooth="yes"/>
      <point x="263" y="409"/>
      <point x="224" y="394"/>
      <point x="224" y="394" type="curve"/>
      <point x="224" y="54" type="line"/>
      <point x="224" y="54"/>
      <point x="258" y="42"/>
      <point x="279" y="42" type="curve" smooth="yes"/>
      <point x="375" y="42"/>
      <point x="424" y="131"/>
    </contour>
  </outline>
</glyph>
<glyph name="uni01A6" format="1">
  <advance width="648"/>
  <unicode hex="01A6"/>
  <outline>
    <contour>
      <point x="280" y="505" type="curve" smooth="yes"/>
      <point x="250" y="505" type="line"/>
      <point x="250" y="334" type="line"/>
      <point x="262" y="333"/>
      <point x="279" y="332"/>
      <point x="305" y="332" type="curve" smooth="yes"/>
      <point x="361" y="332"/>
      <point x="412" y="367"/>
      <point x="412" y="422" type="curve" smooth="yes"/>
      <point x="412" y="492"/>
      <point x="356" y="505"/>
    </contour>
    <contour>
      <point x="335" y="51" type="line"/>
      <point x="335" y="0" type="line"/>
      <point x="23" y="0" type="line"/>
      <point x="23" y="51" type="line"/>
      <point x="85" y="56" type="line" smooth="yes"/>
      <point x="97" y="57"/>
      <point x="107" y="64"/>
      <point x="107" y="78" type="curve" smooth="yes"/>
      <point x="107" y="590" type="line" smooth="yes"/>
      <point x="107" y="609"/>
      <point x="97" y="615"/>
      <point x="82" y="616" type="curve" smooth="yes"/>
      <point x="23" y="620" type="line"/>
      <point x="23" y="671" type="line"/>
      <point x="335" y="671" type="line"/>
      <point x="335" y="620" type="line"/>
      <point x="273" y="615" type="line" smooth="yes"/>
      <point x="262" y="614"/>
      <point x="250" y="606"/>
      <point x="250" y="593" type="curve" smooth="yes"/>
      <point x="250" y="565" type="line"/>
      <point x="296" y="565" type="line" smooth="yes"/>
      <point x="452" y="565"/>
      <point x="559" y="539"/>
      <point x="559" y="429" type="curve" smooth="yes"/>
      <point x="559" y="342"/>
      <point x="499" y="297"/>
      <point x="404" y="279" type="curve"/>
      <point x="454" y="260"/>
      <point x="487" y="213"/>
      <point x="512" y="163" type="curve" smooth="yes"/>
      <point x="554" y="80"/>
      <point x="578" y="-13"/>
      <point x="642" y="-13" type="curve" smooth="yes"/>
      <point x="649" y="-13"/>
      <point x="665" y="-13"/>
      <point x="675" y="-11" type="curve"/>
      <point x="675" y="-64" type="line"/>
      <point x="653" y="-72"/>
      <point x="625" y="-78"/>
      <point x="590" y="-78" type="curve" smooth="yes"/>
      <point x="484" y="-78"/>
      <point x="432" y="21"/>
      <point x="389" y="114" type="curve" smooth="yes"/>
      <point x="350" y="196"/>
      <point x="318" y="272"/>
      <point x="258" y="272" type="curve" smooth="yes"/>
      <point x="250" y="272" type="line"/>
      <point x="250" y="77" type="line" smooth="yes"/>
      <point x="250" y="67"/>
      <point x="258" y="57"/>
      <point x="273" y="56" type="curve" smooth="yes"/>
    </contour>
  </outline>
</glyph>
<glyph name="uni01A7" format="1">
  <advance width="544"/>
  <unicode hex="01A7"/>
  <outline>
    <contour>
      <point x="501" y="205" type="line"/>
      <point x="495" y="22" type="line"/>
      <point x="495" y="22"/>
      <point x="403" y="-16"/>
      <point x="299" y="-16" type="curve" smooth="yes"/>
      <point x="160" y="-16"/>
      <point x="38" y="25"/>
      <point x="38" y="159" type="curve" smooth="yes"/>
      <point x="38" y="278"/>
      <point x="136" y="344"/>
      <point x="219" y="391" type="curve" smooth="yes"/>
      <point x="294" y="433"/>
      <point x="369" y="460"/>
      <point x="369" y="535" type="curve" smooth="yes"/>
      <point x="369" y="591"/>
      <point x="319" y="620"/>
      <point x="255" y="620" type="curve" smooth="yes"/>
      <point x="212" y="620"/>
      <point x="194" y="604"/>
      <point x="194" y="604" type="curve"/>
      <point x="194" y="604"/>
      <point x="181" y="595"/>
      <point x="180" y="590" type="curve" smooth="yes"/>
      <point x="159" y="483" type="line"/>
      <point x="82" y="483" type="line"/>
      <point x="88" y="647" type="line"/>
      <point x="88" y="647"/>
      <point x="176" y="687"/>
      <point x="278" y="687" type="curve" smooth="yes"/>
      <point x="404" y="687"/>
      <point x="507" y="636"/>
      <point x="507" y="512" type="curve" smooth="yes"/>
      <point x="507" y="413"/>
      <point x="430" y="357"/>
      <point x="354" y="306" type="curve" smooth="yes"/>
      <point x="277" y="255"/>
      <point x="185" y="233"/>
      <point x="185" y="153" type="curve" smooth="yes"/>
      <point x="185" y="88"/>
      <point x="252" y="52"/>
      <point x="310" y="52" type="curve" smooth="yes"/>
      <point x="348" y="52"/>
      <point x="388" y="69"/>
      <point x="388" y="69" type="curve" smooth="yes"/>
      <point x="391" y="69"/>
      <point x="400" y="76"/>
      <point x="402" y="84" type="curve" smooth="yes"/>
      <point x="422" y="205" type="line"/>
    </contour>
  </outline>
</glyph>
<glyph name="uni01AB" format="1">
  <advance width="375"/>
  <unicode hex="01AB"/>
  <outline>
    <contour>
      <point x="371" y="-107" type="line" smooth="yes"/>
      <point x="371" y="-196"/>
      <point x="281" y="-231"/>
      <point x="219" y="-231" type="curve" smooth="yes"/>
      <point x="169" y="-231"/>
      <point x="95" y="-210"/>
      <point x="95" y="-162" type="curve" smooth="yes"/>
      <point x="95" y="-109"/>
      <point x="120" y="-88"/>
      <point x="152" y="-70" type="curve"/>
      <point x="248" y="-161" type="line"/>
      <point x="287" y="-161"/>
      <point x="308" y="-152"/>
      <point x="308" y="-109" type="curve" smooth="yes"/>
      <point x="308" y="3" type="line"/>
      <point x="287" y="-1"/>
      <point x="234" y="-12"/>
      <point x="211" y="-12" type="curve" smooth="yes"/>
      <point x="122" y="-12"/>
      <point x="90" y="27"/>
      <point x="90" y="111" type="curve" smooth="yes"/>
      <point x="90" y="424" type="line"/>
      <point x="24" y="424" type="line"/>
      <point x="24" y="464" type="line"/>
      <point x="101" y="510" type="line"/>
      <point x="155" y="616" type="line"/>
      <point x="224" y="616" type="line"/>
      <point x="224" y="488" type="line"/>
      <point x="363" y="488" type="line"/>
      <point x="363" y="424" type="line"/>
      <point x="224" y="424" type="line"/>
      <point x="224" y="152" type="line" smooth="yes"/>
      <point x="224" y="88"/>
      <point x="253" y="65"/>
      <point x="306" y="65" type="curve" smooth="yes"/>
      <point x="338" y="65"/>
      <point x="371" y="72"/>
      <point x="371" y="72" type="curve"/>
    </contour>
  </outline>
</glyph>
<glyph name="uni01AE" format="1">
  <advance width="608"/>
  <unicode hex="01AE"/>
  <outline>
    <contour>
      <point x="566" y="-140" type="curve" smooth="yes"/>
      <point x="566" y="-202"/>
      <point x="499" y="-231"/>
      <point x="423" y="-231" type="curve" smooth="yes"/>
      <point x="319" y="-231"/>
      <point x="233" y="-174"/>
      <point x="233" y="-24" type="curve" smooth="yes"/>
      <point x="233" y="611" type="line"/>
      <point x="121" y="611" type="line" smooth="yes"/>
      <point x="113" y="611"/>
      <point x="107" y="607"/>
      <point x="106" y="599" type="curve" smooth="yes"/>
      <point x="88" y="488" type="line"/>
      <point x="16" y="488" type="line"/>
      <point x="16" y="671" type="line"/>
      <point x="593" y="671" type="line"/>
      <point x="593" y="488" type="line"/>
      <point x="520" y="488" type="line"/>
      <point x="502" y="599" type="line" smooth="yes"/>
      <point x="501" y="607"/>
      <point x="496" y="611"/>
      <point x="488" y="611" type="curve" smooth="yes"/>
      <point x="376" y="611" type="line"/>
      <point x="376" y="-77" type="line" smooth="yes"/>
      <point x="376" y="-128"/>
      <point x="394" y="-166"/>
      <point x="441" y="-166" type="curve"/>
      <point x="503" y="-59" type="line"/>
      <point x="541" y="-59"/>
      <point x="566" y="-94"/>
    </contour>
  </outline>
</glyph>
<glyph name="uni01B5" format="1">
  <advance width="581"/>
  <unicode hex="01B5"/>
  <outline>
    <contour>
      <point x="468" y="321" type="line"/>
      <point x="358" y="321" type="line"/>
      <point x="197" y="62" type="line"/>
      <point x="436" y="62" type="line" smooth="yes"/>
      <point x="444" y="62"/>
      <point x="449" y="66"/>
      <point x="451" y="73" type="curve" smooth="yes"/>
      <point x="471" y="197" type="line"/>
      <point x="544" y="197" type="line"/>
      <point x="544" y="0" type="line"/>
      <point x="37" y="0" type="line"/>
      <point x="37" y="59" type="line"/>
      <point x="200" y="321" type="line"/>
      <point x="125" y="321" type="line"/>
      <point x="125" y="385" type="line"/>
      <point x="240" y="385" type="line"/>
      <point x="380" y="610" type="line"/>
      <point x="159" y="610" type="line" smooth="yes"/>
      <point x="151" y="610"/>
      <point x="146" y="606"/>
      <point x="145" y="598" type="curve" smooth="yes"/>
      <point x="127" y="489" type="line"/>
      <point x="54" y="489" type="line"/>
      <point x="54" y="671" type="line"/>
      <point x="539" y="671" type="line"/>
      <point x="539" y="612" type="line"/>
      <point x="397" y="385" type="line"/>
      <point x="468" y="385" type="line"/>
    </contour>
  </outline>
</glyph>
<glyph name="uni01B8" format="1">
  <advance width="645"/>
  <unicode hex="01B8"/>
  <outline>
    <contour>
      <point x="576" y="671" type="line"/>
      <point x="576" y="391" type="line"/>
      <point x="504" y="391" type="line"/>
      <point x="496" y="517" type="line" smooth="yes"/>
      <point x="496" y="528"/>
      <point x="484" y="544"/>
      <point x="473" y="544" type="curve" smooth="yes"/>
      <point x="220" y="544" type="line"/>
      <point x="401" y="276" type="line"/>
      <point x="372" y="244" type="line"/>
      <point x="367" y="248"/>
      <point x="354" y="253"/>
      <point x="325" y="253" type="curve" smooth="yes"/>
      <point x="236" y="253"/>
      <point x="189" y="166"/>
      <point x="189" y="69" type="curve" smooth="yes"/>
      <point x="189" y="-30"/>
      <point x="269" y="-163"/>
      <point x="356" y="-163" type="curve" smooth="yes"/>
      <point x="387" y="-163"/>
      <point x="426" y="-144"/>
      <point x="450" y="-136" type="curve"/>
      <point x="487" y="7" type="line"/>
      <point x="499" y="14"/>
      <point x="515" y="22"/>
      <point x="536" y="22" type="curve" smooth="yes"/>
      <point x="573" y="22"/>
      <point x="620" y="3"/>
      <point x="620" y="-68" type="curve" smooth="yes"/>
      <point x="620" y="-152"/>
      <point x="505" y="-231"/>
      <point x="355" y="-231" type="curve" smooth="yes"/>
      <point x="178" y="-231"/>
      <point x="32" y="-99"/>
      <point x="32" y="64" type="curve" smooth="yes"/>
      <point x="32" y="173"/>
      <point x="131" y="316"/>
      <point x="273" y="316" type="curve"/>
      <point x="64" y="618" type="line"/>
      <point x="64" y="671" type="line"/>
    </contour>
  </outline>
</glyph>
<glyph name="uni01B9" format="1">
  <advance width="560"/>
  <unicode hex="01B9"/>
  <outline>
    <contour>
      <point x="506" y="488" type="line"/>
      <point x="506" y="264" type="line"/>
      <point x="435" y="264" type="line"/>
      <point x="428" y="353" type="line" smooth="yes"/>
      <point x="428" y="362"/>
      <point x="418" y="374"/>
      <point x="408" y="374" type="curve" smooth="yes"/>
      <point x="201" y="374" type="line"/>
      <point x="353" y="170" type="line"/>
      <point x="326" y="144" type="line"/>
      <point x="326" y="144"/>
      <point x="322" y="152"/>
      <point x="287" y="152" type="curve" smooth="yes"/>
      <point x="210" y="152"/>
      <point x="179" y="89"/>
      <point x="179" y="13" type="curve" smooth="yes"/>
      <point x="179" y="-65"/>
      <point x="229" y="-167"/>
      <point x="304" y="-167" type="curve" smooth="yes"/>
      <point x="331" y="-167"/>
      <point x="374" y="-150"/>
      <point x="395" y="-144" type="curve"/>
      <point x="428" y="-32" type="line"/>
      <point x="439" y="-27"/>
      <point x="453" y="-20"/>
      <point x="471" y="-20" type="curve" smooth="yes"/>
      <point x="502" y="-20"/>
      <point x="544" y="-35"/>
      <point x="544" y="-91" type="curve" smooth="yes"/>
      <point x="544" y="-157"/>
      <point x="443" y="-231"/>
      <point x="313" y="-231" type="curve" smooth="yes"/>
      <point x="159" y="-231"/>
      <point x="32" y="-125"/>
      <point x="32" y="3" type="curve" smooth="yes"/>
      <point x="32" y="89"/>
      <point x="119" y="201"/>
      <point x="242" y="201" type="curve"/>
      <point x="60" y="442" type="line"/>
      <point x="60" y="488" type="line"/>
    </contour>
  </outline>
</glyph>
<glyph name="uni01BB" format="1">
  <advance width="586"/>
  <unicode hex="01BB"/>
  <outline>
    <contour>
      <point x="570" y="268" type="line"/>
      <point x="396" y="268" type="line"/>
      <point x="337" y="216"/>
      <point x="261" y="164"/>
      <point x="176" y="108" type="curve"/>
      <point x="460" y="108" type="line"/>
      <point x="479" y="196" type="line"/>
      <point x="543" y="196" type="line"/>
      <point x="543" y="0" type="line"/>
      <point x="43" y="0" type="line"/>
      <point x="43" y="83" type="line"/>
      <point x="88" y="121"/>
      <point x="188" y="186"/>
      <point x="267" y="268" type="curve"/>
      <point x="63" y="268" type="line"/>
      <point x="63" y="332" type="line"/>
      <point x="320" y="332" type="line"/>
      <point x="353" y="378"/>
      <point x="375" y="428"/>
      <point x="375" y="480" type="curve" smooth="yes"/>
      <point x="375" y="559"/>
      <point x="327" y="616"/>
      <point x="251" y="616" type="curve" smooth="yes"/>
      <point x="224" y="616"/>
      <point x="216" y="614"/>
      <point x="194" y="607" type="curve"/>
      <point x="194" y="472" type="line"/>
      <point x="194" y="472"/>
      <point x="158" y="453"/>
      <point x="126" y="453" type="curve" smooth="yes"/>
      <point x="77" y="453"/>
      <point x="51" y="483"/>
      <point x="51" y="527" type="curve" smooth="yes"/>
      <point x="51" y="653"/>
      <point x="208" y="683"/>
      <point x="295" y="683" type="curve" smooth="yes"/>
      <point x="422" y="683"/>
      <point x="522" y="609"/>
      <point x="522" y="489" type="curve" smooth="yes"/>
      <point x="522" y="432"/>
      <point x="499" y="381"/>
      <point x="459" y="332" type="curve"/>
      <point x="570" y="332" type="line"/>
    </contour>
  </outline>
</glyph>
<glyph name="uni01BC" format="1">
  <advance width="583"/>
  <unicode hex="01BC"/>
  <outline>
    <contour>
      <point x="515" y="507" type="line"/>
      <point x="443" y="507" type="line"/>
      <point x="431" y="592" type="line" smooth="yes"/>
      <point x="430" y="602"/>
      <point x="418" y="614"/>
      <point x="409" y="614" type="curve" smooth="yes"/>
      <point x="269" y="614" type="line" smooth="yes"/>
      <point x="254" y="614"/>
      <point x="247" y="601"/>
      <point x="247" y="593" type="curve" smooth="yes"/>
      <point x="247" y="459" type="line"/>
      <point x="398" y="459"/>
      <point x="543" y="369"/>
      <point x="543" y="222" type="curve" smooth="yes"/>
      <point x="543" y="86"/>
      <point x="444" y="-16"/>
      <point x="251" y="-16" type="curve" smooth="yes"/>
      <point x="130" y="-16"/>
      <point x="37" y="31"/>
      <point x="37" y="102" type="curve" smooth="yes"/>
      <point x="37" y="141"/>
      <point x="66" y="170"/>
      <point x="109" y="170" type="curve" smooth="yes"/>
      <point x="122" y="170"/>
      <point x="148" y="164"/>
      <point x="155" y="160" type="curve"/>
      <point x="194" y="52" type="line"/>
      <point x="212" y="46"/>
      <point x="245" y="45"/>
      <point x="269" y="45" type="curve" smooth="yes"/>
      <point x="358" y="45"/>
      <point x="398" y="127"/>
      <point x="398" y="198" type="curve" smooth="yes"/>
      <point x="398" y="288"/>
      <point x="320" y="388"/>
      <point x="104" y="388" type="curve"/>
      <point x="104" y="594" type="line" smooth="yes"/>
      <point x="104" y="602"/>
      <point x="98" y="613"/>
      <point x="83" y="615" type="curve" smooth="yes"/>
      <point x="22" y="620" type="line"/>
      <point x="22" y="671" type="line"/>
      <point x="515" y="671" type="line"/>
    </contour>
  </outline>
</glyph>
<glyph name="uni01C0" format="1">
  <advance width="221"/>
  <unicode hex="01C0"/>
  <outline>
    <contour>
      <point x="151" y="-215" type="line"/>
      <point x="70" y="-215" type="line"/>
      <point x="70" y="736" type="line"/>
      <point x="151" y="736" type="line"/>
    </contour>
  </outline>
</glyph>
<glyph name="uni01C5" format="1">
  <advance width="1215"/>
  <unicode hex="01C5"/>
  <outline>
    <contour>
      <point x="687" y="343" type="curve" smooth="yes"/>
      <point x="687" y="114"/>
      <point x="550" y="0"/>
      <point x="338" y="0" type="curve" smooth="yes"/>
      <point x="26" y="0" type="line"/>
      <point x="26" y="51" type="line"/>
      <point x="81" y="56" type="line" smooth="yes"/>
      <point x="93" y="57"/>
      <point x="104" y="65"/>
      <point x="104" y="78" type="curve" smooth="yes"/>
      <point x="104" y="593" type="line" smooth="yes"/>
      <point x="104" y="606"/>
      <point x="93" y="614"/>
      <point x="81" y="615" type="curve" smooth="yes"/>
      <point x="26" y="620" type="line"/>
      <point x="26" y="671" type="line"/>
      <point x="332" y="671" type="line" smooth="yes"/>
      <point x="560" y="671"/>
      <point x="687" y="538"/>
    </contour>
    <contour>
      <point x="526" y="332" type="curve" smooth="yes"/>
      <point x="526" y="562"/>
      <point x="413" y="613"/>
      <point x="310" y="613" type="curve" smooth="yes"/>
      <point x="247" y="613" type="line"/>
      <point x="247" y="59" type="line"/>
      <point x="330" y="61" type="line" smooth="yes"/>
      <point x="416" y="63"/>
      <point x="526" y="118"/>
    </contour>
    <contour>
      <point x="1183" y="0" type="line"/>
      <point x="756" y="0" type="line"/>
      <point x="756" y="65" type="line"/>
      <point x="1012" y="431" type="line"/>
      <point x="861" y="431" type="line" smooth="yes"/>
      <point x="851" y="431"/>
      <point x="842" y="419"/>
      <point x="842" y="410" type="curve" smooth="yes"/>
      <point x="835" y="333" type="line"/>
      <point x="764" y="333" type="line"/>
      <point x="764" y="488" type="line"/>
      <point x="1169" y="488" type="line"/>
      <point x="1169" y="432" type="line"/>
      <point x="907" y="59" type="line"/>
      <point x="1079" y="59" type="line" smooth="yes"/>
      <point x="1088" y="59"/>
      <point x="1099" y="73"/>
      <point x="1101" y="83" type="curve" smooth="yes"/>
      <point x="1114" y="168" type="line"/>
      <point x="1183" y="168" type="line"/>
    </contour>
    <contour>
      <point x="1145" y="722" type="line"/>
      <point x="1034" y="551" type="line"/>
      <point x="916" y="551" type="line"/>
      <point x="805" y="722" type="line"/>
      <point x="888" y="722" type="line"/>
      <point x="975" y="628" type="line"/>
      <point x="1062" y="722" type="line"/>
    </contour>
  </outline>
</glyph>
<glyph name="uni01C7" format="1">
  <advance width="1066"/>
  <unicode hex="01C7"/>
  <outline>
    <contour>
      <point x="538" y="0" type="line"/>
      <point x="27" y="0" type="line"/>
      <point x="27" y="51" type="line"/>
      <point x="82" y="56" type="line" smooth="yes"/>
      <point x="94" y="57"/>
      <point x="104" y="65"/>
      <point x="104" y="78" type="curve" smooth="yes"/>
      <point x="104" y="593" type="line" smooth="yes"/>
      <point x="104" y="606"/>
      <point x="94" y="614"/>
      <point x="82" y="615" type="curve" smooth="yes"/>
      <point x="27" y="620" type="line"/>
      <point x="27" y="671" type="line"/>
      <point x="325" y="671" type="line"/>
      <point x="325" y="620" type="line"/>
      <point x="269" y="615" type="line" smooth="yes"/>
      <point x="257" y="614"/>
      <point x="247" y="606"/>
      <point x="247" y="593" type="curve" smooth="yes"/>
      <point x="247" y="61" type="line"/>
      <point x="421" y="61" type="line" smooth="yes"/>
      <point x="435" y="61"/>
      <point x="444" y="76"/>
      <point x="445" y="84" type="curve" smooth="yes"/>
      <point x="458" y="199" type="line"/>
      <point x="538" y="199" type="line"/>
    </contour>
    <contour>
      <point x="1044" y="620" type="line"/>
      <point x="983" y="615" type="line" smooth="yes"/>
      <point x="971" y="614"/>
      <point x="961" y="606"/>
      <point x="961" y="593" type="curve" smooth="yes"/>
      <point x="961" y="242" type="line" smooth="yes"/>
      <point x="961" y="88"/>
      <point x="891" y="-16"/>
      <point x="727" y="-16" type="curve" smooth="yes"/>
      <point x="672" y="-16"/>
      <point x="609" y="1"/>
      <point x="578" y="12" type="curve"/>
      <point x="578" y="195" type="line"/>
      <point x="656" y="195" type="line"/>
      <point x="679" y="61" type="line"/>
      <point x="679" y="61"/>
      <point x="684" y="44"/>
      <point x="705" y="44" type="curve" smooth="yes"/>
      <point x="779" y="44"/>
      <point x="819" y="94"/>
      <point x="819" y="245" type="curve" smooth="yes"/>
      <point x="819" y="593" type="line" smooth="yes"/>
      <point x="819" y="606"/>
      <point x="808" y="614"/>
      <point x="797" y="615" type="curve" smooth="yes"/>
      <point x="735" y="620" type="line"/>
      <point x="735" y="671" type="line"/>
      <point x="1044" y="671" type="line"/>
    </contour>
  </outline>
</glyph>
<glyph name="uni01C9" format="1">
  <advance width="657"/>
  <unicode hex="01C9"/>
  <outline>
    <contour>
      <point x="305" y="0" type="line"/>
      <point x="29" y="0" type="line"/>
      <point x="29" y="47" type="line"/>
      <point x="78" y="50" type="line" smooth="yes"/>
      <point x="91" y="51"/>
      <point x="100" y="60"/>
      <point x="100" y="73" type="curve" smooth="yes"/>
      <point x="100" y="649" type="line"/>
      <point x="29" y="649" type="line"/>
      <point x="29" y="690" type="line"/>
      <point x="182" y="740" type="line"/>
      <point x="233" y="740" type="line"/>
      <point x="233" y="73" type="line" smooth="yes"/>
      <point x="233" y="60"/>
      <point x="242" y="51"/>
      <point x="255" y="50" type="curve" smooth="yes"/>
      <point x="305" y="47" type="line"/>
    </contour>
    <contour>
      <point x="576" y="663" type="curve" smooth="yes"/>
      <point x="576" y="620"/>
      <point x="542" y="585"/>
      <point x="499" y="585" type="curve" smooth="yes"/>
      <point x="456" y="585"/>
      <point x="421" y="620"/>
      <point x="421" y="663" type="curve" smooth="yes"/>
      <point x="421" y="706"/>
      <point x="456" y="740"/>
      <point x="499" y="740" type="curve" smooth="yes"/>
      <point x="542" y="740"/>
      <point x="576" y="706"/>
    </contour>
    <contour>
      <point x="566" y="47" type="line" smooth="yes"/>
      <point x="566" y="-26"/>
      <point x="549" y="-97"/>
      <point x="511" y="-150" type="curve" smooth="yes"/>
      <point x="475" y="-199"/>
      <point x="420" y="-231"/>
      <point x="343" y="-231" type="curve" smooth="yes"/>
      <point x="289" y="-231"/>
      <point x="243" y="-204"/>
      <point x="243" y="-155" type="curve" smooth="yes"/>
      <point x="243" y="-119"/>
      <point x="273" y="-91"/>
      <point x="307" y="-88" type="curve"/>
      <point x="405" y="-187" type="line"/>
      <point x="436" y="-136"/>
      <point x="433" y="-5"/>
      <point x="433" y="-5" type="curve"/>
      <point x="433" y="409" type="line"/>
      <point x="362" y="409" type="line"/>
      <point x="362" y="450" type="line"/>
      <point x="515" y="500" type="line"/>
      <point x="566" y="500" type="line"/>
    </contour>
  </outline>
</glyph>
<glyph name="uni01CB" format="1">
  <advance width="1068"/>
  <unicode hex="01CB"/>
  <outline>
    <contour>
      <point x="715" y="620" type="line"/>
      <point x="661" y="615" type="line" smooth="yes"/>
      <point x="650" y="614"/>
      <point x="639" y="606"/>
      <point x="639" y="593" type="curve" smooth="yes"/>
      <point x="639" y="0" type="line"/>
      <point x="517" y="0" type="line"/>
      <point x="180" y="529" type="line"/>
      <point x="180" y="78" type="line" smooth="yes"/>
      <point x="180" y="65"/>
      <point x="191" y="57"/>
      <point x="202" y="56" type="curve" smooth="yes"/>
      <point x="258" y="51" type="line"/>
      <point x="258" y="0" type="line"/>
      <point x="27" y="0" type="line"/>
      <point x="27" y="51" type="line"/>
      <point x="82" y="56" type="line" smooth="yes"/>
      <point x="94" y="57"/>
      <point x="104" y="65"/>
      <point x="104" y="78" type="curve" smooth="yes"/>
      <point x="104" y="593" type="line" smooth="yes"/>
      <point x="104" y="606"/>
      <point x="94" y="614"/>
      <point x="82" y="615" type="curve" smooth="yes"/>
      <point x="28" y="620" type="line"/>
      <point x="28" y="671" type="line"/>
      <point x="275" y="671" type="line"/>
      <point x="275" y="644" type="line"/>
      <point x="563" y="193" type="line"/>
      <point x="563" y="593" type="line" smooth="yes"/>
      <point x="563" y="606"/>
      <point x="552" y="614"/>
      <point x="540" y="615" type="curve" smooth="yes"/>
      <point x="483" y="620" type="line"/>
      <point x="483" y="671" type="line"/>
      <point x="715" y="671" type="line"/>
    </contour>
    <contour>
      <point x="987" y="663" type="curve" smooth="yes"/>
      <point x="987" y="620"/>
      <point x="953" y="585"/>
      <point x="910" y="585" type="curve" smooth="yes"/>
      <point x="867" y="585"/>
      <point x="832" y="620"/>
      <point x="832" y="663" type="curve" smooth="yes"/>
      <point x="832" y="706"/>
      <point x="867" y="740"/>
      <point x="910" y="740" type="curve" smooth="yes"/>
      <point x="953" y="740"/>
      <point x="987" y="706"/>
    </contour>
    <contour>
      <point x="977" y="47" type="line" smooth="yes"/>
      <point x="977" y="-26"/>
      <point x="960" y="-97"/>
      <point x="922" y="-150" type="curve" smooth="yes"/>
      <point x="886" y="-199"/>
      <point x="831" y="-231"/>
      <point x="754" y="-231" type="curve" smooth="yes"/>
      <point x="700" y="-231"/>
      <point x="654" y="-204"/>
      <point x="654" y="-155" type="curve" smooth="yes"/>
      <point x="654" y="-119"/>
      <point x="684" y="-91"/>
      <point x="718" y="-88" type="curve"/>
      <point x="816" y="-187" type="line"/>
      <point x="847" y="-136"/>
      <point x="844" y="-5"/>
      <point x="844" y="-5" type="curve"/>
      <point x="844" y="409" type="line"/>
      <point x="773" y="409" type="line"/>
      <point x="773" y="450" type="line"/>
      <point x="926" y="500" type="line"/>
      <point x="977" y="500" type="line"/>
    </contour>
  </outline>
</glyph>
<glyph name="uni01CC" format="1">
  <advance width="949"/>
  <unicode hex="01CC"/>
  <outline>
    <contour>
      <point x="589" y="0" type="line"/>
      <point x="343" y="0" type="line"/>
      <point x="343" y="47" type="line"/>
      <point x="380" y="50" type="line" smooth="yes"/>
      <point x="392" y="51"/>
      <point x="402" y="61"/>
      <point x="402" y="73" type="curve" smooth="yes"/>
      <point x="402" y="308" type="line" smooth="yes"/>
      <point x="402" y="359"/>
      <point x="380" y="408"/>
      <point x="320" y="408" type="curve" smooth="yes"/>
      <point x="265" y="408"/>
      <point x="224" y="395"/>
      <point x="224" y="395" type="curve"/>
      <point x="224" y="73" type="line" smooth="yes"/>
      <point x="224" y="61"/>
      <point x="235" y="51"/>
      <point x="247" y="50" type="curve" smooth="yes"/>
      <point x="277" y="47" type="line"/>
      <point x="277" y="0" type="line"/>
      <point x="32" y="0" type="line"/>
      <point x="32" y="47" type="line"/>
      <point x="68" y="50" type="line" smooth="yes"/>
      <point x="80" y="51"/>
      <point x="90" y="61"/>
      <point x="90" y="73" type="curve" smooth="yes"/>
      <point x="90" y="408" type="line"/>
      <point x="21" y="408" type="line"/>
      <point x="21" y="449" type="line"/>
      <point x="172" y="500" type="line"/>
      <point x="224" y="500" type="line"/>
      <point x="224" y="439" type="line"/>
      <point x="224" y="439"/>
      <point x="313" y="500"/>
      <point x="399" y="500" type="curve" smooth="yes"/>
      <point x="514" y="500"/>
      <point x="535" y="413"/>
      <point x="535" y="326" type="curve" smooth="yes"/>
      <point x="535" y="73" type="line" smooth="yes"/>
      <point x="535" y="61"/>
      <point x="546" y="51"/>
      <point x="558" y="50" type="curve" smooth="yes"/>
      <point x="589" y="47" type="line"/>
    </contour>
    <contour>
      <point x="868" y="663" type="curve" smooth="yes"/>
      <point x="868" y="620"/>
      <point x="834" y="585"/>
      <point x="791" y="585" type="curve" smooth="yes"/>
      <point x="748" y="585"/>
      <point x="713" y="620"/>
      <point x="713" y="663" type="curve" smooth="yes"/>
      <point x="713" y="706"/>
      <point x="748" y="740"/>
      <point x="791" y="740" type="curve" smooth="yes"/>
      <point x="834" y="740"/>
      <point x="868" y="706"/>
    </contour>
    <contour>
      <point x="858" y="47" type="line" smooth="yes"/>
      <point x="858" y="-26"/>
      <point x="841" y="-97"/>
      <point x="803" y="-150" type="curve" smooth="yes"/>
      <point x="767" y="-199"/>
      <point x="712" y="-231"/>
      <point x="635" y="-231" type="curve" smooth="yes"/>
      <point x="581" y="-231"/>
      <point x="535" y="-204"/>
      <point x="535" y="-155" type="curve" smooth="yes"/>
      <point x="535" y="-119"/>
      <point x="565" y="-91"/>
      <point x="599" y="-88" type="curve"/>
      <point x="697" y="-187" type="line"/>
      <point x="728" y="-136"/>
      <point x="725" y="-5"/>
      <point x="725" y="-5" type="curve"/>
      <point x="725" y="409" type="line"/>
      <point x="654" y="409" type="line"/>
      <point x="654" y="450" type="line"/>
      <point x="807" y="500" type="line"/>
      <point x="858" y="500" type="line"/>
    </contour>
  </outline>
</glyph>
<glyph name="Ocaron" format="1">
  <advance width="755"/>
  <unicode hex="01D1"/>
  <outline>
    <contour>
      <point x="720" y="332" type="curve" smooth="yes"/>
      <point x="720" y="141"/>
      <point x="585" y="-16"/>
      <point x="384" y="-16" type="curve" smooth="yes"/>
      <point x="184" y="-16"/>
      <point x="37" y="113"/>
      <point x="37" y="340" type="curve" smooth="yes"/>
      <point x="37" y="537"/>
      <point x="162" y="687"/>
      <point x="375" y="687" type="curve" smooth="yes"/>
      <point x="583" y="687"/>
      <point x="720" y="526"/>
    </contour>
    <contour>
      <point x="559" y="328" type="curve" smooth="yes"/>
      <point x="559" y="485"/>
      <point x="500" y="620"/>
      <point x="384" y="620" type="curve" smooth="yes"/>
      <point x="245" y="620"/>
      <point x="197" y="471"/>
      <point x="197" y="337" type="curve" smooth="yes"/>
      <point x="197" y="195"/>
      <point x="251" y="47"/>
      <point x="374" y="47" type="curve" smooth="yes"/>
      <point x="508" y="47"/>
      <point x="559" y="199"/>
    </contour>
    <contour>
      <point x="548" y="917" type="line"/>
      <point x="438" y="746" type="line"/>
      <point x="319" y="746" type="line"/>
      <point x="208" y="917" type="line"/>
      <point x="292" y="917" type="line"/>
      <point x="378" y="823" type="line"/>
      <point x="465" y="917" type="line"/>
    </contour>
  </outline>
</glyph>
<glyph name="uni01D8" format="1">
  <advance width="620"/>
  <unicode hex="01D8"/>
  <outline>
    <contour>
      <point x="597" y="0" type="line"/>
      <point x="396" y="0" type="line"/>
      <point x="396" y="55" type="line"/>
      <point x="396" y="55"/>
      <point x="311" y="-12"/>
      <point x="238" y="-12" type="curve" smooth="yes"/>
      <point x="124" y="-12"/>
      <point x="90" y="49"/>
      <point x="90" y="151" type="curve" smooth="yes"/>
      <point x="90" y="409" type="line"/>
      <point x="25" y="409" type="line"/>
      <point x="25" y="450" type="line"/>
      <point x="172" y="500" type="line"/>
      <point x="224" y="500" type="line"/>
      <point x="224" y="190" type="line" smooth="yes"/>
      <point x="224" y="141"/>
      <point x="231" y="79"/>
      <point x="316" y="79" type="curve" smooth="yes"/>
      <point x="358" y="79"/>
      <point x="396" y="96"/>
      <point x="396" y="96" type="curve"/>
      <point x="396" y="409" type="line"/>
      <point x="333" y="409" type="line"/>
      <point x="333" y="450" type="line"/>
      <point x="479" y="500" type="line"/>
      <point x="530" y="500" type="line"/>
      <point x="530" y="73" type="line" smooth="yes"/>
      <point x="530" y="61"/>
      <point x="541" y="51"/>
      <point x="553" y="50" type="curve" smooth="yes"/>
      <point x="597" y="47" type="line"/>
    </contour>
    <contour>
      <point x="485" y="654" type="curve" smooth="yes"/>
      <point x="485" y="616"/>
      <point x="454" y="585"/>
      <point x="416" y="585" type="curve" smooth="yes"/>
      <point x="378" y="585"/>
      <point x="347" y="616"/>
      <point x="347" y="654" type="curve" smooth="yes"/>
      <point x="347" y="692"/>
      <point x="378" y="723"/>
      <point x="416" y="723" type="curve" smooth="yes"/>
      <point x="454" y="723"/>
      <point x="485" y="692"/>
    </contour>
    <contour>
      <point x="275" y="654" type="curve" smooth="yes"/>
      <point x="275" y="616"/>
      <point x="244" y="585"/>
      <point x="206" y="585" type="curve" smooth="yes"/>
      <point x="168" y="585"/>
      <point x="137" y="616"/>
      <point x="137" y="654" type="curve" smooth="yes"/>
      <point x="137" y="692"/>
      <point x="168" y="723"/>
      <point x="206" y="723" type="curve" smooth="yes"/>
      <point x="244" y="723"/>
      <point x="275" y="692"/>
    </contour>
    <contour>
      <point x="472" y="876" type="curve" smooth="yes"/>
      <point x="472" y="863"/>
      <point x="460" y="842"/>
      <point x="446" y="834" type="curve" smooth="yes"/>
      <point x="284" y="746" type="line"/>
      <point x="214" y="746" type="line"/>
      <point x="351" y="897" type="line" smooth="yes"/>
      <point x="374" y="922"/>
      <point x="387" y="929"/>
      <point x="414" y="929" type="curve" smooth="yes"/>
      <point x="457" y="929"/>
      <point x="472" y="900"/>
    </contour>
  </outline>
</glyph>
<glyph name="uni01DB" format="1">
  <advance width="729"/>
  <unicode hex="01DB"/>
  <outline>
    <contour>
      <point x="703" y="620" type="line"/>
      <point x="650" y="615" type="line" smooth="yes"/>
      <point x="639" y="614"/>
      <point x="628" y="606"/>
      <point x="628" y="593" type="curve" smooth="yes"/>
      <point x="628" y="254" type="line" smooth="yes"/>
      <point x="628" y="57"/>
      <point x="541" y="-16"/>
      <point x="354" y="-16" type="curve" smooth="yes"/>
      <point x="182" y="-16"/>
      <point x="99" y="78"/>
      <point x="99" y="254" type="curve" smooth="yes"/>
      <point x="99" y="593" type="line" smooth="yes"/>
      <point x="99" y="606"/>
      <point x="88" y="614"/>
      <point x="76" y="615" type="curve" smooth="yes"/>
      <point x="22" y="620" type="line"/>
      <point x="22" y="671" type="line"/>
      <point x="318" y="671" type="line"/>
      <point x="318" y="620" type="line"/>
      <point x="264" y="615" type="line" smooth="yes"/>
      <point x="253" y="614"/>
      <point x="242" y="606"/>
      <point x="242" y="593" type="curve" smooth="yes"/>
      <point x="242" y="246" type="line" smooth="yes"/>
      <point x="242" y="121"/>
      <point x="294" y="67"/>
      <point x="404" y="67" type="curve" smooth="yes"/>
      <point x="509" y="67"/>
      <point x="552" y="138"/>
      <point x="552" y="246" type="curve" smooth="yes"/>
      <point x="552" y="593" type="line" smooth="yes"/>
      <point x="552" y="606"/>
      <point x="542" y="614"/>
      <point x="530" y="615" type="curve" smooth="yes"/>
      <point x="473" y="620" type="line"/>
      <point x="473" y="671" type="line"/>
      <point x="703" y="671" type="line"/>
    </contour>
    <contour>
      <point x="545" y="849" type="curve" smooth="yes"/>
      <point x="545" y="811"/>
      <point x="514" y="780"/>
      <point x="476" y="780" type="curve" smooth="yes"/>
      <point x="438" y="780"/>
      <point x="407" y="811"/>
      <point x="407" y="849" type="curve" smooth="yes"/>
      <point x="407" y="887"/>
      <point x="438" y="918"/>
      <point x="476" y="918" type="curve" smooth="yes"/>
      <point x="514" y="918"/>
      <point x="545" y="887"/>
    </contour>
    <contour>
      <point x="335" y="849" type="curve" smooth="yes"/>
      <point x="335" y="811"/>
      <point x="304" y="780"/>
      <point x="266" y="780" type="curve" smooth="yes"/>
      <point x="228" y="780"/>
      <point x="197" y="811"/>
      <point x="197" y="849" type="curve" smooth="yes"/>
      <point x="197" y="887"/>
      <point x="228" y="918"/>
      <point x="266" y="918" type="curve" smooth="yes"/>
      <point x="304" y="918"/>
      <point x="335" y="887"/>
    </contour>
    <contour>
      <point x="469" y="941" type="line"/>
      <point x="399" y="941" type="line"/>
      <point x="237" y="1030" type="line" smooth="yes"/>
      <point x="223" y="1038"/>
      <point x="212" y="1059"/>
      <point x="212" y="1072" type="curve" smooth="yes"/>
      <point x="212" y="1096"/>
      <point x="227" y="1125"/>
      <point x="270" y="1125" type="curve" smooth="yes"/>
      <point x="297" y="1125"/>
      <point x="310" y="1118"/>
      <point x="333" y="1093" type="curve" smooth="yes"/>
    </contour>
  </outline>
</glyph>
<glyph name="Kcaron" format="1">
  <advance width="682"/>
  <unicode hex="01E8"/>
  <outline>
    <contour>
      <point x="682" y="0" type="line"/>
      <point x="465" y="0" type="line"/>
      <point x="465" y="37" type="line"/>
      <point x="302" y="293" type="line"/>
      <point x="247" y="293" type="line"/>
      <point x="247" y="78" type="line" smooth="yes"/>
      <point x="247" y="65"/>
      <point x="257" y="57"/>
      <point x="269" y="56" type="curve" smooth="yes"/>
      <point x="322" y="51" type="line"/>
      <point x="322" y="0" type="line"/>
      <point x="29" y="0" type="line"/>
      <point x="29" y="51" type="line"/>
      <point x="82" y="56" type="line" smooth="yes"/>
      <point x="94" y="57"/>
      <point x="104" y="65"/>
      <point x="104" y="78" type="curve" smooth="yes"/>
      <point x="104" y="593" type="line" smooth="yes"/>
      <point x="104" y="606"/>
      <point x="94" y="614"/>
      <point x="82" y="615" type="curve" smooth="yes"/>
      <point x="29" y="620" type="line"/>
      <point x="29" y="671" type="line"/>
      <point x="322" y="671" type="line"/>
      <point x="322" y="620" type="line"/>
      <point x="269" y="615" type="line" smooth="yes"/>
      <point x="257" y="614"/>
      <point x="247" y="606"/>
      <point x="247" y="593" type="curve" smooth="yes"/>
      <point x="247" y="341" type="line"/>
      <point x="275" y="341" type="line"/>
      <point x="490" y="603" type="line" smooth="yes"/>
      <point x="493" y="607"/>
      <point x="492" y="615"/>
      <point x="485" y="615" type="curve" smooth="yes"/>
      <point x="428" y="620" type="line"/>
      <point x="428" y="671" type="line"/>
      <point x="657" y="671" type="line"/>
      <point x="657" y="620" type="line"/>
      <point x="657" y="620"/>
      <point x="619" y="617"/>
      <point x="587" y="614" type="curve"/>
      <point x="401" y="392" type="line"/>
      <point x="611" y="57" type="line"/>
      <point x="682" y="51" type="line"/>
    </contour>
    <contour>
      <point x="525" y="917" type="line"/>
      <point x="415" y="746" type="line"/>
      <point x="296" y="746" type="line"/>
      <point x="186" y="917" type="line"/>
      <point x="269" y="917" type="line"/>
      <point x="355" y="823" type="line"/>
      <point x="442" y="917" type="line"/>
    </contour>
  </outline>
</glyph>
<glyph name="uni01EA" format="1">
  <advance width="755"/>
  <unicode hex="01EA"/>
  <outline>
    <contour>
      <point x="720" y="332" type="curve" smooth="yes"/>
      <point x="720" y="141"/>
      <point x="585" y="-16"/>
      <point x="384" y="-16" type="curve" smooth="yes"/>
      <point x="184" y="-16"/>
      <point x="37" y="113"/>
      <point x="37" y="340" type="curve" smooth="yes"/>
      <point x="37" y="537"/>
      <point x="162" y="687"/>
      <point x="375" y="687" type="curve" smooth="yes"/>
      <point x="583" y="687"/>
      <point x="720" y="526"/>
    </contour>
    <contour>
      <point x="559" y="328" type="curve" smooth="yes"/>
      <point x="559" y="485"/>
      <point x="500" y="620"/>
      <point x="384" y="620" type="curve" smooth="yes"/>
      <point x="245" y="620"/>
      <point x="197" y="471"/>
      <point x="197" y="337" type="curve" smooth="yes"/>
      <point x="197" y="195"/>
      <point x="251" y="47"/>
      <point x="374" y="47" type="curve" smooth="yes"/>
      <point x="508" y="47"/>
      <point x="559" y="199"/>
    </contour>
    <contour>
      <point x="534" y="-177" type="line"/>
      <point x="534" y="-177"/>
      <point x="469" y="-208"/>
      <point x="439" y="-208" type="curve" smooth="yes"/>
      <point x="376" y="-208"/>
      <point x="328" y="-177"/>
      <point x="328" y="-124" type="curve" smooth="yes"/>
      <point x="328" y="-65"/>
      <point x="379" y="-20"/>
      <point x="409" y="1" type="curve"/>
      <point x="472" y="1" type="line"/>
      <point x="435" y="-27"/>
      <point x="409" y="-59"/>
      <point x="409" y="-98" type="curve" smooth="yes"/>
      <point x="409" y="-127"/>
      <point x="426" y="-150"/>
      <point x="459" y="-150" type="curve" smooth="yes"/>
      <point x="472" y="-150"/>
      <point x="497" y="-129"/>
      <point x="503" y="-125" type="curve"/>
    </contour>
  </outline>
</glyph>
<glyph name="uni01F3" format="1">
  <advance width="1100"/>
  <unicode hex="01F3"/>
  <outline>
    <contour>
      <point x="583" y="0" type="line"/>
      <point x="386" y="0" type="line"/>
      <point x="386" y="58" type="line"/>
      <point x="371" y="50"/>
      <point x="301" y="-12"/>
      <point x="228" y="-12" type="curve" smooth="yes"/>
      <point x="106" y="-12"/>
      <point x="32" y="92"/>
      <point x="32" y="233" type="curve" smooth="yes"/>
      <point x="32" y="405"/>
      <point x="142" y="500"/>
      <point x="293" y="500" type="curve" smooth="yes"/>
      <point x="331" y="500"/>
      <point x="386" y="488"/>
      <point x="386" y="488" type="curve"/>
      <point x="386" y="649" type="line"/>
      <point x="312" y="649" type="line"/>
      <point x="312" y="690" type="line"/>
      <point x="468" y="740" type="line"/>
      <point x="519" y="740" type="line"/>
      <point x="519" y="73" type="line" smooth="yes"/>
      <point x="519" y="61"/>
      <point x="529" y="51"/>
      <point x="541" y="50" type="curve" smooth="yes"/>
      <point x="583" y="47" type="line"/>
    </contour>
    <contour>
      <point x="386" y="99" type="curve"/>
      <point x="386" y="422" type="line"/>
      <point x="386" y="422"/>
      <point x="345" y="440"/>
      <point x="315" y="440" type="curve" smooth="yes"/>
      <point x="222" y="440"/>
      <point x="178" y="359"/>
      <point x="178" y="256" type="curve" smooth="yes"/>
      <point x="178" y="151"/>
      <point x="221" y="80"/>
      <point x="308" y="80" type="curve" smooth="yes"/>
      <point x="344" y="80"/>
      <point x="386" y="99"/>
    </contour>
    <contour>
      <point x="1068" y="0" type="line"/>
      <point x="641" y="0" type="line"/>
      <point x="641" y="65" type="line"/>
      <point x="897" y="431" type="line"/>
      <point x="746" y="431" type="line" smooth="yes"/>
      <point x="736" y="431"/>
      <point x="727" y="419"/>
      <point x="727" y="410" type="curve" smooth="yes"/>
      <point x="720" y="333" type="line"/>
      <point x="649" y="333" type="line"/>
      <point x="649" y="488" type="line"/>
      <point x="1054" y="488" type="line"/>
      <point x="1054" y="432" type="line"/>
      <point x="792" y="59" type="line"/>
      <point x="964" y="59" type="line" smooth="yes"/>
      <point x="973" y="59"/>
      <point x="984" y="73"/>
      <point x="986" y="83" type="curve" smooth="yes"/>
      <point x="999" y="168" type="line"/>
      <point x="1068" y="168" type="line"/>
    </contour>
  </outline>
</glyph>
<glyph name="uni01F6" format="1">
  <advance width="1051"/>
  <unicode hex="01F6"/>
  <outline>
    <contour>
      <point x="971" y="500" type="line"/>
      <point x="971" y="144" type="line" smooth="yes"/>
      <point x="971" y="43"/>
      <point x="856" y="-16"/>
      <point x="747" y="-16" type="curve" smooth="yes"/>
      <point x="626" y="-16"/>
      <point x="522" y="43"/>
      <point x="522" y="144" type="curve" smooth="yes"/>
      <point x="522" y="320" type="line"/>
      <point x="247" y="320" type="line"/>
      <point x="247" y="78" type="line" smooth="yes"/>
      <point x="247" y="65"/>
      <point x="257" y="57"/>
      <point x="269" y="56" type="curve" smooth="yes"/>
      <point x="322" y="51" type="line"/>
      <point x="322" y="0" type="line"/>
      <point x="30" y="0" type="line"/>
      <point x="30" y="51" type="line"/>
      <point x="82" y="56" type="line" smooth="yes"/>
      <point x="94" y="57"/>
      <point x="104" y="65"/>
      <point x="104" y="78" type="curve" smooth="yes"/>
      <point x="104" y="593" type="line" smooth="yes"/>
      <point x="104" y="606"/>
      <point x="94" y="614"/>
      <point x="82" y="615" type="curve" smooth="yes"/>
      <point x="30" y="620" type="line"/>
      <point x="30" y="671" type="line"/>
      <point x="322" y="671" type="line"/>
      <point x="322" y="620" type="line"/>
      <point x="269" y="615" type="line" smooth="yes"/>
      <point x="257" y="614"/>
      <point x="247" y="606"/>
      <point x="247" y="593" type="curve" smooth="yes"/>
      <point x="247" y="384" type="line"/>
      <point x="522" y="384" type="line"/>
      <point x="522" y="593" type="line" smooth="yes"/>
      <point x="522" y="606"/>
      <point x="512" y="614"/>
      <point x="500" y="615" type="curve" smooth="yes"/>
      <point x="448" y="620" type="line"/>
      <point x="448" y="671" type="line"/>
      <point x="739" y="671" type="line"/>
      <point x="739" y="620" type="line"/>
      <point x="687" y="615" type="line" smooth="yes"/>
      <point x="676" y="614"/>
      <point x="665" y="606"/>
      <point x="665" y="593" type="curve" smooth="yes"/>
      <point x="665" y="137" type="line" smooth="yes"/>
      <point x="665" y="90"/>
      <point x="706" y="56"/>
      <point x="757" y="56" type="curve" smooth="yes"/>
      <point x="798" y="56"/>
      <point x="837" y="87"/>
      <point x="837" y="137" type="curve" smooth="yes"/>
      <point x="837" y="409" type="line"/>
      <point x="774" y="409" type="line"/>
      <point x="774" y="450" type="line"/>
      <point x="920" y="500" type="line"/>
    </contour>
  </outline>
</glyph>
<glyph name="aringacute" format="1">
  <advance width="553"/>
  <unicode hex="01FB"/>
  <outline>
    <contour>
      <point x="536" y="0" type="line"/>
      <point x="350" y="0" type="line"/>
      <point x="337" y="50" type="line"/>
      <point x="337" y="50"/>
      <point x="251" y="-12"/>
      <point x="163" y="-12" type="curve" smooth="yes"/>
      <point x="91" y="-12"/>
      <point x="32" y="38"/>
      <point x="32" y="117" type="curve" smooth="yes"/>
      <point x="32" y="207"/>
      <point x="63" y="251"/>
      <point x="338" y="312" type="curve"/>
      <point x="338" y="327"/>
      <point x="339" y="351"/>
      <point x="339" y="351" type="curve" smooth="yes"/>
      <point x="340" y="389"/>
      <point x="325" y="444"/>
      <point x="245" y="444" type="curve" smooth="yes"/>
      <point x="218" y="444"/>
      <point x="202" y="440"/>
      <point x="202" y="440" type="curve"/>
      <point x="202" y="345" type="line"/>
      <point x="99" y="345" type="line"/>
      <point x="99" y="345"/>
      <point x="54" y="340"/>
      <point x="54" y="381" type="curve" smooth="yes"/>
      <point x="54" y="455"/>
      <point x="171" y="500"/>
      <point x="277" y="500" type="curve" smooth="yes"/>
      <point x="392" y="500"/>
      <point x="470" y="474"/>
      <point x="470" y="330" type="curve" smooth="yes"/>
      <point x="470" y="73" type="line" smooth="yes"/>
      <point x="470" y="61"/>
      <point x="480" y="51"/>
      <point x="492" y="50" type="curve" smooth="yes"/>
      <point x="536" y="47" type="line"/>
    </contour>
    <contour>
      <point x="337" y="93" type="curve"/>
      <point x="337" y="258" type="line"/>
      <point x="208" y="232"/>
      <point x="174" y="205"/>
      <point x="174" y="145" type="curve" smooth="yes"/>
      <point x="174" y="104"/>
      <point x="203" y="71"/>
      <point x="245" y="71" type="curve" smooth="yes"/>
      <point x="288" y="71"/>
      <point x="337" y="93"/>
    </contour>
    <contour>
      <point x="395" y="677" type="curve" smooth="yes"/>
      <point x="395" y="607"/>
      <point x="338" y="551"/>
      <point x="268" y="551" type="curve" smooth="yes"/>
      <point x="199" y="551"/>
      <point x="142" y="607"/>
      <point x="142" y="677" type="curve" smooth="yes"/>
      <point x="142" y="747"/>
      <point x="199" y="803"/>
      <point x="268" y="803" type="curve" smooth="yes"/>
      <point x="338" y="803"/>
      <point x="395" y="747"/>
    </contour>
    <contour>
      <point x="331" y="677" type="curve" smooth="yes"/>
      <point x="331" y="712"/>
      <point x="303" y="740"/>
      <point x="268" y="740" type="curve" smooth="yes"/>
      <point x="234" y="740"/>
      <point x="205" y="712"/>
      <point x="205" y="677" type="curve" smooth="yes"/>
      <point x="205" y="642"/>
      <point x="234" y="614"/>
      <point x="268" y="614" type="curve" smooth="yes"/>
      <point x="303" y="614"/>
      <point x="331" y="642"/>
    </contour>
    <contour>
      <point x="430" y="955" type="curve" smooth="yes"/>
      <point x="430" y="942"/>
      <point x="418" y="921"/>
      <point x="404" y="913" type="curve" smooth="yes"/>
      <point x="242" y="824" type="line"/>
      <point x="172" y="824" type="line"/>
      <point x="309" y="976" type="line" smooth="yes"/>
      <point x="332" y="1001"/>
      <point x="345" y="1007"/>
      <point x="372" y="1007" type="curve" smooth="yes"/>
      <point x="415" y="1007"/>
      <point x="430" y="979"/>
    </contour>
  </outline>
</glyph>
<glyph name="Oslashacute" format="1">
  <advance width="755"/>
  <unicode hex="01FE"/>
  <outline>
    <contour>
      <point x="235" y="146" type="curve"/>
      <point x="482" y="578" type="line"/>
      <point x="456" y="605"/>
      <point x="423" y="620"/>
      <point x="384" y="620" type="curve" smooth="yes"/>
      <point x="245" y="620"/>
      <point x="197" y="471"/>
      <point x="197" y="337" type="curve" smooth="yes"/>
      <point x="197" y="269"/>
      <point x="209" y="200"/>
    </contour>
    <contour>
      <point x="519" y="524" type="curve"/>
      <point x="272" y="92" type="line"/>
      <point x="298" y="64"/>
      <point x="332" y="47"/>
      <point x="374" y="47" type="curve" smooth="yes"/>
      <point x="508" y="47"/>
      <point x="559" y="199"/>
      <point x="559" y="328" type="curve" smooth="yes"/>
      <point x="559" y="402"/>
      <point x="545" y="472"/>
    </contour>
    <contour>
      <point x="631" y="719" type="line"/>
      <point x="577" y="625" type="line"/>
      <point x="667" y="560"/>
      <point x="720" y="453"/>
      <point x="720" y="332" type="curve" smooth="yes"/>
      <point x="720" y="141"/>
      <point x="585" y="-16"/>
      <point x="384" y="-16" type="curve" smooth="yes"/>
      <point x="327" y="-16"/>
      <point x="274" y="-6"/>
      <point x="228" y="14" type="curve"/>
      <point x="170" y="-87" type="line"/>
      <point x="119" y="-57" type="line"/>
      <point x="176" y="43" type="line"/>
      <point x="90" y="102"/>
      <point x="37" y="203"/>
      <point x="37" y="340" type="curve" smooth="yes"/>
      <point x="37" y="537"/>
      <point x="162" y="687"/>
      <point x="375" y="687" type="curve" smooth="yes"/>
      <point x="431" y="687"/>
      <point x="482" y="675"/>
      <point x="526" y="655" type="curve"/>
      <point x="579" y="748" type="line"/>
    </contour>
    <contour>
      <point x="540" y="876" type="curve" smooth="yes"/>
      <point x="540" y="863"/>
      <point x="528" y="842"/>
      <point x="514" y="834" type="curve" smooth="yes"/>
      <point x="352" y="746" type="line"/>
      <point x="282" y="746" type="line"/>
      <point x="418" y="897" type="line" smooth="yes"/>
      <point x="441" y="922"/>
      <point x="454" y="929"/>
      <point x="481" y="929" type="curve" smooth="yes"/>
      <point x="524" y="929"/>
      <point x="540" y="900"/>
    </contour>
  </outline>
</glyph>
<glyph name="uni0200" format="1">
  <advance width="686"/>
  <unicode hex="0200"/>
  <outline>
    <contour>
      <point x="681" y="0" type="line"/>
      <point x="405" y="0" type="line"/>
      <point x="405" y="51" type="line"/>
      <point x="464" y="58" type="line" smooth="yes"/>
      <point x="470" y="59"/>
      <point x="476" y="68"/>
      <point x="473" y="75" type="curve" smooth="yes"/>
      <point x="419" y="234" type="line"/>
      <point x="205" y="234" type="line"/>
      <point x="150" y="79" type="line" smooth="yes"/>
      <point x="146" y="69"/>
      <point x="157" y="59"/>
      <point x="164" y="58" type="curve" smooth="yes"/>
      <point x="220" y="51" type="line"/>
      <point x="220" y="0" type="line"/>
      <point x="5" y="0" type="line"/>
      <point x="5" y="51" type="line"/>
      <point x="61" y="59" type="line"/>
      <point x="285" y="687" type="line"/>
      <point x="399" y="687" type="line"/>
      <point x="621" y="77" type="line" smooth="yes"/>
      <point x="626" y="65"/>
      <point x="629" y="61"/>
      <point x="643" y="58" type="curve" smooth="yes"/>
      <point x="681" y="51" type="line"/>
    </contour>
    <contour>
      <point x="394" y="293" type="line"/>
      <point x="308" y="533" type="line"/>
      <point x="224" y="293" type="line"/>
    </contour>
    <contour>
      <point x="532" y="746" type="line"/>
      <point x="462" y="746" type="line"/>
      <point x="301" y="834" type="line" smooth="yes"/>
      <point x="286" y="842"/>
      <point x="275" y="863"/>
      <point x="275" y="876" type="curve" smooth="yes"/>
      <point x="275" y="900"/>
      <point x="289" y="929"/>
      <point x="332" y="929" type="curve" smooth="yes"/>
      <point x="359" y="929"/>
      <point x="373" y="922"/>
      <point x="395" y="897" type="curve" smooth="yes"/>
    </contour>
    <contour>
      <point x="317" y="746" type="line"/>
      <point x="248" y="746" type="line"/>
      <point x="86" y="834" type="line" smooth="yes"/>
      <point x="72" y="842"/>
      <point x="60" y="863"/>
      <point x="60" y="876" type="curve" smooth="yes"/>
      <point x="60" y="900"/>
      <point x="74" y="929"/>
      <point x="117" y="929" type="curve" smooth="yes"/>
      <point x="144" y="929"/>
      <point x="158" y="922"/>
      <point x="181" y="897" type="curve" smooth="yes"/>
    </contour>
  </outline>
</glyph>
<glyph name="uni0202" format="1">
  <advance width="686"/>
  <unicode hex="0202"/>
  <outline>
    <contour>
      <point x="681" y="0" type="line"/>
      <point x="405" y="0" type="line"/>
      <point x="405" y="51" type="line"/>
      <point x="464" y="58" type="line" smooth="yes"/>
      <point x="470" y="59"/>
      <point x="476" y="68"/>
      <point x="473" y="75" type="curve" smooth="yes"/>
      <point x="419" y="234" type="line"/>
      <point x="205" y="234" type="line"/>
      <point x="150" y="79" type="line" smooth="yes"/>
      <point x="146" y="69"/>
      <point x="157" y="59"/>
      <point x="164" y="58" type="curve" smooth="yes"/>
      <point x="220" y="51" type="line"/>
      <point x="220" y="0" type="line"/>
      <point x="5" y="0" type="line"/>
      <point x="5" y="51" type="line"/>
      <point x="61" y="59" type="line"/>
      <point x="285" y="687" type="line"/>
      <point x="399" y="687" type="line"/>
      <point x="621" y="77" type="line" smooth="yes"/>
      <point x="626" y="65"/>
      <point x="629" y="61"/>
      <point x="643" y="58" type="curve" smooth="yes"/>
      <point x="681" y="51" type="line"/>
    </contour>
    <contour>
      <point x="394" y="293" type="line"/>
      <point x="308" y="533" type="line"/>
      <point x="224" y="293" type="line"/>
    </contour>
    <contour>
      <point x="496" y="746" type="curve"/>
      <point x="443" y="746" type="line"/>
      <point x="430" y="806"/>
      <point x="384" y="827"/>
      <point x="339" y="827" type="curve" smooth="yes"/>
      <point x="295" y="827"/>
      <point x="248" y="806"/>
      <point x="235" y="746" type="curve"/>
      <point x="183" y="746" type="line"/>
      <point x="183" y="836"/>
      <point x="234" y="909"/>
      <point x="339" y="909" type="curve" smooth="yes"/>
      <point x="444" y="909"/>
      <point x="496" y="836"/>
    </contour>
  </outline>
</glyph>
